
<svg class="animated" id="freepik_stories-hard-drive" xmlns="http://www.w3.org/2000/svg" viewBox="0 0 500 500" version="1.1" xmlns:xlink="http://www.w3.org/1999/xlink" xmlns:svgjs="http://svgjs.com/svgjs"><g id="freepik--background-complete--inject-31" style="transform-origin: 250px 214.194992px;" class="animable"><path d="M443.92,309.51H263.17a5.87,5.87,0,0,1-5.86-5.87V40.37a5.87,5.87,0,0,1,5.86-5.86H443.92a5.87,5.87,0,0,1,5.86,5.86V303.64A5.87,5.87,0,0,1,443.92,309.51ZM263.17,34.76a5.62,5.62,0,0,0-5.61,5.61V303.64a5.62,5.62,0,0,0,5.61,5.62H443.92a5.62,5.62,0,0,0,5.61-5.62V40.37a5.61,5.61,0,0,0-5.61-5.61Z" style="fill: rgb(224, 224, 224); transform-origin: 353.545013px 172.009995px;" id="el2pd3ckga8f3" class="animable"></path><path d="M235.49,309.51H54.75a5.87,5.87,0,0,1-5.87-5.87V40.37a5.87,5.87,0,0,1,5.87-5.86H235.49a5.86,5.86,0,0,1,5.86,5.86V303.64A5.86,5.86,0,0,1,235.49,309.51ZM54.75,34.76a5.62,5.62,0,0,0-5.62,5.61V303.64a5.62,5.62,0,0,0,5.62,5.62H235.49a5.62,5.62,0,0,0,5.61-5.62V40.37a5.61,5.61,0,0,0-5.61-5.61Z" style="fill: rgb(224, 224, 224); transform-origin: 145.115002px 172.009995px;" id="elxwq0yjodm6" class="animable"></path><rect y="370.58" width="500" height="0.25" style="fill: rgb(224, 224, 224); transform-origin: 250px 370.705px;" id="elvpa9wouj9fj" class="animable"></rect><rect x="101.8" y="59.97" width="58.27" height="109.86" style="fill: rgb(228, 228, 228); transform-origin: 130.935px 114.9px;" id="elw6ob4bx1bbf" class="animable"></rect><rect x="88.76" y="59.97" width="68.45" height="109.86" style="fill: rgb(244, 244, 244); transform-origin: 122.985px 114.9px;" id="eljrjvaige30f" class="animable"></rect><rect x="99.16" y="69.73" width="47.61" height="90.34" style="fill: rgb(255, 255, 255); transform-origin: 122.965px 114.9px;" id="el7yfukz9xcy5" class="animable"></rect><rect x="182.34" y="85.08" width="32.58" height="61.42" style="fill: rgb(228, 228, 228); transform-origin: 198.63px 115.79px;" id="elojdyz1nmsql" class="animable"></rect><rect x="175.05" y="85.08" width="38.27" height="61.42" style="fill: rgb(244, 244, 244); transform-origin: 194.185px 115.79px;" id="el4av1pv6rxlc" class="animable"></rect><rect x="180.87" y="90.54" width="26.62" height="50.51" style="fill: rgb(255, 255, 255); transform-origin: 194.18px 115.795px;" id="el9u00ricxhdu" class="animable"></rect><path d="M464.7,307.21c-1.48-4.27-13.21,1.53-18,8.61a36.75,36.75,0,0,0-6,16.5c.11-7.7.23-16,.35-23.81,1-1.95,3.17-6.44,4.74-10,5.28-11.88,17.83-16.34,22.16-23.81,5.68-9.83,5.64-24.58.81-29.9-4.2-4.62-18.11,26.65-19.68,30.14a93,93,0,0,0-8,29.57c.12-7.34.23-14.11.32-19.31.3-17,.66-22.43.83-24.11.58-.81,1.27-1.77,1.67-2.28,3.36-4.33,10.83-9.49,14.56-15.79,5.45-9.2,4.58-20.21.74-24.31-4-4.29-11.06,5.84-14.81,15.88s-2.15,19.64-3.2,28c-.22,1.64-.45,7.85-.66,16.46-1.14-9.27-3.41-15.48-7.61-21.26-5.2-7.12-9.66-15.79-13.88-14.66s-2,12.58,1.4,20.63c3,7.17,17.83,14.32,20,20.09-.26,11.67-.49,26.47-.65,40.24-1.17-7.12-.37-7.71-5.15-18.61-2.84-6.47-14.49-14.46-15.88-10s.74,12.86,5.12,18.75c3.55,4.75,11.42,4.74,13.24,7.69.43.69,1.84,3.33,2.64,4.84-.2,16.82-.28,31.67-.18,36.72l.74.06c0-1.31.06-9.87.21-21.19,1.92-6,14.79-9.53,18.76-15.8C463.5,320,466.49,312.33,464.7,307.21Z" style="fill: rgb(228, 228, 228); transform-origin: 444.515366px 290.619354px;" id="elwkew96inaae" class="animable"></path><path d="M452.61,371.09H427.9a2.84,2.84,0,0,1-2.78-2.28l-1.75-8.64h33.77l-1.76,8.64A2.82,2.82,0,0,1,452.61,371.09Z" style="fill: rgb(239, 239, 239); transform-origin: 440.25499px 365.62999px;" id="elbrb3frdab9k" class="animable"></path><path d="M457.85,363.52H422.66A1.66,1.66,0,0,1,421,362l-.74-6.39a1.65,1.65,0,0,1,1.47-1.83h36.81a1.65,1.65,0,0,1,1.65,1.66,1.09,1.09,0,0,1,0,.18l-.74,6.39A1.66,1.66,0,0,1,457.85,363.52Z" style="fill: rgb(239, 239, 239); transform-origin: 440.221451px 358.649979px;" id="elwk0ekcvgyj" class="animable"></path><path d="M278.79,62.87l-1.93-3.23A3.41,3.41,0,0,0,273.8,58l-27.11.87a3.42,3.42,0,0,0-3.31,3.53h0L245,114.21a3.58,3.58,0,0,0,3.68,3.44l61.61-2a3.57,3.57,0,0,0,3.44-3.67L312.3,66.76a3.42,3.42,0,0,0-3.52-3.32h0l-27.34.89A3,3,0,0,1,278.79,62.87Z" style="fill: rgb(222, 222, 222); transform-origin: 278.554802px 87.824238px;" id="el7gkqk8p66hu" class="animable"></path><path d="M308.79,63.44l-27.11.88a3.42,3.42,0,0,0-2.94,1.86L277,69.53a3,3,0,0,1-2.54,1.62L247.14,72a3.43,3.43,0,0,0-3.32,3.52L245,114.21a3.58,3.58,0,0,0,3.68,3.44l61.61-2a3.57,3.57,0,0,0,3.44-3.67L312.3,66.76a3.41,3.41,0,0,0-3.51-3.32Z" style="fill: rgb(239, 239, 239); transform-origin: 278.775101px 90.545004px;" id="elgxtlb41hj3p" class="animable"></path><path d="M137.19,249.74l-49.8,17.45a1.65,1.65,0,0,1-2.1-1h0L62,199.6a1.66,1.66,0,0,1,1-2.11l30.68-10.75,28,13.62,16.58,47.3A1.65,1.65,0,0,1,137.19,249.74Z" style="fill: rgb(239, 239, 239); transform-origin: 100.122978px 227.011833px;" id="elryha50uixan" class="animable"></path><polygon points="121.62 200.34 93.64 186.74 92.01 187.31 100.92 212.73 123.22 204.91 121.62 200.34" style="fill: rgb(228, 228, 228); transform-origin: 107.615002px 199.735001px;" id="elqil597i6ezg" class="animable"></polygon><polygon points="121.56 200.17 100.89 207.42 93.64 186.74 121.56 200.17" style="fill: none; transform-origin: 107.599998px 197.080002px;" id="elwvpe4gxs4p" class="animable"></polygon><polygon points="121.56 200.17 100.89 207.42 93.64 186.74 121.56 200.17" style="fill: rgb(240, 240, 240); transform-origin: 107.599998px 197.080002px;" id="el0zbm3uz6fh4b" class="animable"></polygon><g id="el13mlur87madj"><rect x="81.71" y="214.78" width="39.03" height="24.74" style="fill: rgb(228, 228, 228); transform-origin: 101.225px 227.15px; transform: rotate(-19.32deg);" class="animable"></rect></g><polygon points="94.41 233.63 89.2 244.47 105.24 238.84 94.41 233.63" style="fill: rgb(249, 249, 249); transform-origin: 97.219997px 239.050003px;" id="elvl6ac3xq2jk" class="animable"></polygon><polygon points="101.63 240.1 123.73 232.36 122.98 230.24 109.5 223.75 101.63 240.1" style="fill: rgb(249, 249, 249); transform-origin: 112.68px 231.925003px;" id="eljnfbwdyjos" class="animable"></polygon><path d="M100.29,223.68A4.17,4.17,0,1,1,95,221.13h0A4.16,4.16,0,0,1,100.29,223.68Z" style="fill: rgb(249, 249, 249); transform-origin: 96.359348px 225.070351px;" id="el199b4zelo59" class="animable"></path><polygon points="376.41 75.57 433.05 96.54 407.51 167.78 350.87 146.81 376.41 75.57" style="fill: rgb(240, 240, 240); transform-origin: 391.959991px 121.674999px;" id="eljquoq2whchr" class="animable"></polygon><path d="M413.2,107.93l-32-11.69a3,3,0,0,1-1.8-3.81h0a3,3,0,0,1,3.82-1.77l32,11.69a3,3,0,0,1,1.79,3.82h0A3,3,0,0,1,413.2,107.93Z" style="fill: rgb(255, 255, 255); transform-origin: 398.207169px 99.294014px;" id="elpsxnh4vojqk" class="animable"></path><path d="M409,119.71,377,108a3,3,0,0,1-1.79-3.81h0a3,3,0,0,1,3.83-1.77l32,11.69a3,3,0,0,1,1.79,3.82h0A3,3,0,0,1,409,119.71Z" style="fill: rgb(255, 255, 255); transform-origin: 394.021591px 111.064415px;" id="elekawkhwn4b" class="animable"></path><path d="M404.84,131.2l-32-11.7a3,3,0,0,1-1.79-3.81h0a3,3,0,0,1,3.83-1.76l32,11.68a3,3,0,0,1,1.79,3.83h0A3,3,0,0,1,404.84,131.2Z" style="fill: rgb(255, 255, 255); transform-origin: 389.863144px 122.565014px;" id="elya1r0l967in" class="animable"></path><path d="M374.9,145.9l-8.81-3.22a3,3,0,0,1-1.79-3.82h0a3,3,0,0,1,3.82-1.77l8.81,3.23a3,3,0,0,1,1.79,3.81h0A3,3,0,0,1,374.9,145.9Z" style="fill: rgb(255, 255, 255); transform-origin: 371.508438px 141.494995px;" id="ele81pmlielvd" class="animable"></path><path d="M400.5,143.26l-32-11.7a3,3,0,0,1-1.8-3.82h0a3,3,0,0,1,3.83-1.76l32,11.68a3,3,0,0,1,1.79,3.83h0A3,3,0,0,1,400.5,143.26Z" style="fill: rgb(255, 255, 255); transform-origin: 385.512161px 134.617821px;" id="elkz8x341nu7q" class="animable"></path><rect x="416.88" y="390.92" width="33.12" height="0.25" style="fill: rgb(235, 235, 235); transform-origin: 433.44px 391.045px;" id="elx78zxx2s5oa" class="animable"></rect><rect x="322.63" y="393.63" width="8.69" height="0.25" style="fill: rgb(235, 235, 235); transform-origin: 326.975px 393.755px;" id="el5kt442dxgmt" class="animable"></rect><rect x="396.69" y="381.63" width="19.19" height="0.25" style="fill: rgb(235, 235, 235); transform-origin: 406.285px 381.755px;" id="el6aifo9vwl05" class="animable"></rect><rect x="52.56" y="383.31" width="43.19" height="0.25" style="fill: rgb(235, 235, 235); transform-origin: 74.155px 383.435px;" id="elt2d6qoal86p" class="animable"></rect><rect x="104.66" y="383.31" width="6.33" height="0.25" style="fill: rgb(235, 235, 235); transform-origin: 107.825px 383.435px;" id="eliat470bzf3s" class="animable"></rect><rect x="131.57" y="387.53" width="93.68" height="0.25" style="fill: rgb(235, 235, 235); transform-origin: 178.41px 387.655px;" id="elm50ws767xzc" class="animable"></rect></g><g id="freepik--Shadow--inject-31" style="transform-origin: 255.375px 444.670013px;" class="animable"><path d="M464.25,444.67c0,3.39-93.52,6.13-208.87,6.13S46.5,448.06,46.5,444.67s93.52-6.13,208.88-6.13S464.25,441.29,464.25,444.67Z" style="fill: rgb(245, 245, 245); transform-origin: 255.375px 444.670013px;" id="el2j31m1wcsvt" class="animable"></path></g><g id="freepik--Tab--inject-31" style="transform-origin: 251.749954px 186.710007px;" class="animable"><path d="M133.25,116V260.77a7.65,7.65,0,0,0,7.65,7.65H367.35a2.9,2.9,0,0,0,2.9-2.9V115a3.88,3.88,0,0,0-3.88-3.88H138.11A4.85,4.85,0,0,0,133.25,116Z" style="fill: rgb(0, 213, 156); transform-origin: 251.749954px 189.769981px;" id="el9o997jssr9s" class="animable"></path><g id="eld4xfyrasq2c"><path d="M133.25,116V260.77a7.65,7.65,0,0,0,7.65,7.65H367.35a2.9,2.9,0,0,0,2.9-2.9V115a3.88,3.88,0,0,0-3.88-3.88H138.11A4.85,4.85,0,0,0,133.25,116Z" style="fill: rgb(255, 255, 255); opacity: 0.7; transform-origin: 251.749954px 189.769981px;" class="animable"></path></g><path d="M138.11,111.16H366.37a3.88,3.88,0,0,1,3.88,3.88v8.74a0,0,0,0,1,0,0h-237a0,0,0,0,1,0,0V116A4.86,4.86,0,0,1,138.11,111.16Z" style="fill: rgb(0, 213, 156); transform-origin: 251.75px 117.470001px;" id="eld76hu02fei9" class="animable"></path><g id="elrc21gsfiaz"><path d="M367.1,117.47a2.68,2.68,0,1,1-2.68-2.68A2.68,2.68,0,0,1,367.1,117.47Z" style="fill: rgb(255, 255, 255); opacity: 0.3; transform-origin: 364.420013px 117.470001px;" class="animable"></path></g><g id="el8tnew6hrdf"><path d="M359.48,117.47a2.69,2.69,0,1,1-2.69-2.68A2.68,2.68,0,0,1,359.48,117.47Z" style="fill: rgb(255, 255, 255); opacity: 0.3; transform-origin: 356.789978px 117.480026px;" class="animable"></path></g><g id="elbfkq399eghf"><path d="M351.85,117.47a2.68,2.68,0,1,1-2.68-2.68A2.68,2.68,0,0,1,351.85,117.47Z" style="fill: rgb(255, 255, 255); opacity: 0.3; transform-origin: 349.169998px 117.470001px;" class="animable"></path></g><g id="elcghnw2fa67r"><path d="M366.89,123.78h3.36a0,0,0,0,1,0,0V265.49a2.9,2.9,0,0,1-2.9,2.9h-.46a0,0,0,0,1,0,0V123.78A0,0,0,0,1,366.89,123.78Z" style="opacity: 0.1; transform-origin: 368.570007px 196.084991px;" class="animable"></path></g><rect x="366.89" y="125.35" width="3.36" height="33.24" style="fill: rgb(255, 255, 255); transform-origin: 368.57px 141.97px;" id="elpr9a616sywj" class="animable"></rect><g id="ele1wwi4giyyn"><rect x="303.12" y="245.94" width="42.21" height="22.48" style="fill: rgb(255, 255, 255); opacity: 0.8; transform-origin: 324.225px 257.18px;" class="animable"></rect></g><rect x="308.07" y="251.14" width="32.3" height="2.28" rx="1.14" style="fill: rgb(0, 213, 156); transform-origin: 324.22px 252.28px;" id="elkvnc1lc231f" class="animable"></rect><rect x="308.07" y="256.04" width="32.3" height="2.28" rx="1.14" style="fill: rgb(0, 213, 156); transform-origin: 324.22px 257.18px;" id="elk8swo0o68wd" class="animable"></rect><rect x="308.07" y="260.94" width="32.3" height="2.28" rx="1.14" style="fill: rgb(0, 213, 156); transform-origin: 324.22px 262.08px;" id="el5wwdi53jiim" class="animable"></rect><g id="eld36znejhs1i"><rect x="308.07" y="251.14" width="32.3" height="2.28" rx="1.14" style="fill: rgb(255, 255, 255); opacity: 0.4; transform-origin: 324.22px 252.28px;" class="animable"></rect></g><g id="eloma6f2ztytl"><rect x="308.07" y="256.04" width="32.3" height="2.28" rx="1.14" style="fill: rgb(255, 255, 255); opacity: 0.4; transform-origin: 324.22px 257.18px;" class="animable"></rect></g><g id="elcirp3piyfs7"><rect x="308.07" y="260.94" width="32.3" height="2.28" rx="1.14" style="fill: rgb(255, 255, 255); opacity: 0.4; transform-origin: 324.22px 262.08px;" class="animable"></rect></g><g id="el33wbnh2nl4s"><rect x="159.11" y="245.86" width="42.21" height="22.48" style="fill: rgb(255, 255, 255); opacity: 0.8; transform-origin: 180.215px 257.1px;" class="animable"></rect></g><rect x="164.06" y="251.07" width="32.3" height="2.28" rx="1.14" style="fill: rgb(0, 213, 156); transform-origin: 180.21px 252.21px;" id="elqkszbjmuj" class="animable"></rect><rect x="164.06" y="255.96" width="32.3" height="2.28" rx="1.14" style="fill: rgb(0, 213, 156); transform-origin: 180.21px 257.1px;" id="el7n06ww8qp43" class="animable"></rect><rect x="164.06" y="260.86" width="32.3" height="2.28" rx="1.14" style="fill: rgb(0, 213, 156); transform-origin: 180.21px 262px;" id="eljrnan7e18a8" class="animable"></rect><g id="elf0keqp8laz"><rect x="164.06" y="251.07" width="32.3" height="2.28" rx="1.14" style="fill: rgb(255, 255, 255); opacity: 0.4; transform-origin: 180.21px 252.21px;" class="animable"></rect></g><g id="elcb7gqmzbodv"><rect x="164.06" y="255.96" width="32.3" height="2.28" rx="1.14" style="fill: rgb(255, 255, 255); opacity: 0.4; transform-origin: 180.21px 257.1px;" class="animable"></rect></g><g id="elytsqsl8xexa"><rect x="164.06" y="260.86" width="32.3" height="2.28" rx="1.14" style="fill: rgb(255, 255, 255); opacity: 0.4; transform-origin: 180.21px 262px;" class="animable"></rect></g><g id="el41ozudyp0q5"><rect x="231.3" y="245.94" width="41.83" height="22.44" style="fill: rgb(255, 255, 255); opacity: 0.8; transform-origin: 252.215px 257.16px;" class="animable"></rect></g><rect x="233.77" y="248.18" width="36.89" height="20.2" style="fill: rgb(0, 213, 156); transform-origin: 252.215px 258.28px;" id="elf5uwjsu3b1u" class="animable"></rect><g id="elxynpt65liq"><rect x="233.77" y="248.18" width="36.89" height="20.2" style="fill: rgb(255, 255, 255); opacity: 0.4; transform-origin: 252.215px 258.28px;" class="animable"></rect></g><polygon points="236.53 268.42 242.68 264.22 247.88 268.39 236.53 268.42" style="fill: rgb(255, 255, 255); transform-origin: 242.205002px 266.320007px;" id="el27j1iciqccbj" class="animable"></polygon><polygon points="251.22 268.39 261.7 261.35 269.66 268.39 251.22 268.39" style="fill: rgb(255, 255, 255); transform-origin: 260.440002px 264.87001px;" id="elpd5txqq6khb" class="animable"></polygon><path d="M246.26,257.1a2.88,2.88,0,1,1-2.88-2.87A2.87,2.87,0,0,1,246.26,257.1Z" style="fill: rgb(255, 255, 255); transform-origin: 243.379982px 257.110046px;" id="elxyqiuqfl0ql" class="animable"></path><rect x="231.71" y="139.8" width="38.69" height="13.26" style="fill: rgb(255, 255, 255); transform-origin: 251.055px 146.43px;" id="elexfp2pzwbe" class="animable"></rect><path d="M228.47,140.42v28.05a1.41,1.41,0,0,0,1.41,1.41h41.29a1.41,1.41,0,0,0,1.41-1.41V143.18a1.41,1.41,0,0,0-1.41-1.41H246.06a1.41,1.41,0,0,1-1.23-.71l-.79-1.39a1.15,1.15,0,0,0-1-.58H229.84A1.35,1.35,0,0,0,228.47,140.42Z" style="fill: rgb(0, 213, 156); transform-origin: 250.525009px 154.484917px;" id="elotwcqy2i1sn" class="animable"></path><rect x="231.71" y="193.54" width="38.69" height="13.26" style="fill: rgb(255, 255, 255); transform-origin: 251.055px 200.17px;" id="eltuearo8dqbq" class="animable"></rect><path d="M228.47,194.16v28.05a1.41,1.41,0,0,0,1.41,1.41h41.29a1.41,1.41,0,0,0,1.41-1.41V196.92a1.41,1.41,0,0,0-1.41-1.41H246.06a1.41,1.41,0,0,1-1.23-.71l-.79-1.39a1.15,1.15,0,0,0-1-.58H229.84A1.36,1.36,0,0,0,228.47,194.16Z" style="fill: rgb(0, 213, 156); transform-origin: 250.525009px 208.224983px;" id="elpjksro4l4ic" class="animable"></path><rect x="160.69" y="139.8" width="38.69" height="13.26" style="fill: rgb(255, 255, 255); transform-origin: 180.035px 146.43px;" id="el9txoexcnzbr" class="animable"></rect><path d="M157.45,140.42v28.05a1.41,1.41,0,0,0,1.41,1.41h41.29a1.41,1.41,0,0,0,1.41-1.41V143.18a1.41,1.41,0,0,0-1.41-1.41H175a1.41,1.41,0,0,1-1.23-.71l-.79-1.39a1.15,1.15,0,0,0-1-.58H158.82A1.34,1.34,0,0,0,157.45,140.42Z" style="fill: rgb(0, 213, 156); transform-origin: 179.504997px 154.484833px;" id="elkt8t8nj8xwh" class="animable"></path><rect x="160.69" y="193.54" width="38.69" height="13.26" style="fill: rgb(255, 255, 255); transform-origin: 180.035px 200.17px;" id="elgwvf98177nh" class="animable"></rect><path d="M157.45,194.16v28.05a1.41,1.41,0,0,0,1.41,1.41h41.29a1.41,1.41,0,0,0,1.41-1.41V196.92a1.41,1.41,0,0,0-1.41-1.41H175a1.41,1.41,0,0,1-1.23-.71l-.79-1.39a1.15,1.15,0,0,0-1-.58H158.82A1.35,1.35,0,0,0,157.45,194.16Z" style="fill: rgb(0, 213, 156); transform-origin: 179.504997px 208.224922px;" id="elkr1ly3hqzlf" class="animable"></path><rect x="302.73" y="139.8" width="38.69" height="13.26" style="fill: rgb(255, 255, 255); transform-origin: 322.075px 146.43px;" id="eluywg8qhc61a" class="animable"></rect><path d="M299.49,140.42v28.05a1.41,1.41,0,0,0,1.41,1.41h41.29a1.41,1.41,0,0,0,1.41-1.41V143.18a1.41,1.41,0,0,0-1.41-1.41H317.08a1.42,1.42,0,0,1-1.23-.71l-.78-1.39a1.17,1.17,0,0,0-1-.58H300.87A1.35,1.35,0,0,0,299.49,140.42Z" style="fill: rgb(0, 213, 156); transform-origin: 321.544998px 154.484833px;" id="el6tz9dwdinh9" class="animable"></path><path d="M300.9,224.3a1.89,1.89,0,0,1-1.31-.52.5.5,0,0,1,.69-.73.9.9,0,0,0,.62.25h3.8a.5.5,0,0,1,.5.5.5.5,0,0,1-.5.5h-3.8Zm41.29,0h-3.43a.5.5,0,0,1-.5-.5.51.51,0,0,1,.5-.5h3.43a.91.91,0,0,0,.78-.43.48.48,0,0,1,.68-.16.49.49,0,0,1,.17.68A1.9,1.9,0,0,1,342.19,224.3Zm-8.29,0H329a.5.5,0,0,1-.5-.5.5.5,0,0,1,.5-.5h4.87a.51.51,0,0,1,.5.5A.5.5,0,0,1,333.9,224.3Zm-9.73,0H319.3a.5.5,0,0,1-.5-.5.5.5,0,0,1,.5-.5h4.87a.51.51,0,0,1,.5.5A.5.5,0,0,1,324.17,224.3Zm-9.74,0h-4.86a.5.5,0,0,1-.5-.5.5.5,0,0,1,.5-.5h4.86a.5.5,0,0,1,.5.5A.5.5,0,0,1,314.43,224.3Zm-14.94-5.13a.5.5,0,0,1-.5-.5v-4.86a.5.5,0,0,1,.5-.5.5.5,0,0,1,.5.5v4.86A.5.5,0,0,1,299.49,219.17Zm44.11-.37a.5.5,0,0,1-.5-.5v-4.86a.5.5,0,1,1,1,0v4.86A.5.5,0,0,1,343.6,218.8Zm-44.11-9.36a.5.5,0,0,1-.5-.5v-4.87a.51.51,0,0,1,.5-.5.5.5,0,0,1,.5.5v4.87A.5.5,0,0,1,299.49,209.44Zm44.11-.37a.5.5,0,0,1-.5-.5v-4.86a.5.5,0,0,1,1,0v4.86A.5.5,0,0,1,343.6,209.07Zm-44.11-9.36a.51.51,0,0,1-.5-.5v-4.87a.51.51,0,0,1,.5-.51.49.49,0,0,1,.5.49v4.89A.5.5,0,0,1,299.49,199.71Zm44.11-.37a.5.5,0,0,1-.5-.5V197.1a.91.91,0,0,0-.91-.91h-.91a.5.5,0,0,1-.5-.5.5.5,0,0,1,.5-.5h.91a1.92,1.92,0,0,1,1.91,1.91v1.74A.5.5,0,0,1,343.6,199.34ZM317,196.19h0c-1.06-.05-1.6-1.07-2-1.82-.1-.19-.19-.36-.28-.51a.68.68,0,0,0-.6-.35h-.69a.5.5,0,0,1-.5-.5.5.5,0,0,1,.5-.5h.69a1.67,1.67,0,0,1,1.45.83c.09.15.2.35.32.57.31.59.66,1.26,1.15,1.28a.51.51,0,0,1,.48.53A.5.5,0,0,1,317,196.19Zm19.46,0h-4.87a.5.5,0,0,1-.5-.5.51.51,0,0,1,.5-.5h4.87a.5.5,0,0,1,.5.5A.5.5,0,0,1,336.41,196.19Zm-9.73,0h-4.87a.5.5,0,0,1-.5-.5.51.51,0,0,1,.5-.5h4.87a.51.51,0,0,1,.5.5A.5.5,0,0,1,326.68,196.19Zm-18.19-2.68h-4.86a.5.5,0,0,1-.5-.5.5.5,0,0,1,.5-.5h4.86a.5.5,0,0,1,.5.5A.5.5,0,0,1,308.49,193.51Z" style="fill: rgb(0, 213, 156); transform-origin: 321.544983px 208.405006px;" id="elqvhp4ta73z8" class="animable"></path><path d="M320.2,202.14a7.87,7.87,0,1,0,8.7,6.94A7.88,7.88,0,0,0,320.2,202.14Zm5.3,12.27a6.28,6.28,0,1,1,0-8.87A6.28,6.28,0,0,1,325.5,214.41Z" style="fill: rgb(0, 213, 156); transform-origin: 321.079422px 209.961243px;" id="elpsc9y3i5vhm" class="animable"></path><polygon points="324.87 208.98 322.08 208.97 322.09 206.18 320.1 206.17 320.09 208.96 317.3 208.95 317.29 210.95 320.08 210.96 320.06 213.75 322.06 213.76 322.07 210.97 324.86 210.98 324.87 208.98" style="fill: rgb(0, 213, 156); transform-origin: 321.080002px 209.964996px;" id="eln1seb16gvch" class="animable"></polygon><path d="M196.2,106h-21a.5.5,0,0,1-.5-.5.5.5,0,0,1,.5-.5h21a.5.5,0,0,1,.5.5A.51.51,0,0,1,196.2,106Z" style="fill: rgb(0, 213, 156); transform-origin: 185.699997px 105.5px;" id="elzeytpwqacs" class="animable"></path><path d="M206.38,106H202a.5.5,0,0,1-.5-.5.5.5,0,0,1,.5-.5h4.38a.5.5,0,0,1,.5.5A.5.5,0,0,1,206.38,106Z" style="fill: rgb(0, 213, 156); transform-origin: 204.190002px 105.5px;" id="elaz4jkmhbgt6" class="animable"></path></g><g id="freepik--device-1--inject-31" style="transform-origin: 108.560001px 344.540009px;" class="animable"><path d="M57.76,261.75H159.28a7.19,7.19,0,0,1,7.19,7.19V415.6a11.27,11.27,0,0,1-11.27,11.27H58a7.12,7.12,0,0,1-7.12-7.12V268.68A6.93,6.93,0,0,1,57.76,261.75Z" style="fill: rgb(38, 50, 56); transform-origin: 108.674999px 344.310013px;" id="el0bdg1lpmdaj7" class="animable"></path><g id="elogg7bz1bv5j"><g style="opacity: 0.6; transform-origin: 108.674999px 344.310013px;" class="animable"><path d="M57.76,261.75H159.28a7.19,7.19,0,0,1,7.19,7.19V415.6a11.27,11.27,0,0,1-11.27,11.27H58a7.12,7.12,0,0,1-7.12-7.12V268.68A6.93,6.93,0,0,1,57.76,261.75Z" style="fill: rgb(255, 255, 255); transform-origin: 108.674999px 344.310013px;" id="elvz99995pux9" class="animable"></path></g></g><g id="elg62rk4p5oq"><polygon points="58.85 354.8 58.85 291.24 75.75 271.27 140.69 271.27 157.88 290.88 161.48 373.17 161.48 385.16 144.92 410.25 118.06 410.25 78.75 411.12 58.85 390.87 58.85 354.8" style="opacity: 0.3; transform-origin: 110.164997px 341.194992px;" class="animable"></polygon></g><path d="M132.24,384.59,119.93,403a2.37,2.37,0,0,0,2,3.68h20.69a2.78,2.78,0,0,0,2.31-1.24L157.21,387a2.37,2.37,0,0,0-2-3.68H134.55A2.75,2.75,0,0,0,132.24,384.59Z" style="fill: rgb(235, 235, 235); transform-origin: 138.570019px 395.000015px;" id="elc7bicc8kd5t" class="animable"></path><g id="elagdupfj1evk"><g style="opacity: 0.3; transform-origin: 124.110001px 403.429962px;" class="animable"><path d="M125.83,403.43a1.72,1.72,0,1,1-1.72-1.72A1.72,1.72,0,0,1,125.83,403.43Z" id="el1cy401ynzpl" style="transform-origin: 124.110001px 403.429962px;" class="animable"></path></g></g><g id="eljo8cpbvcnpk"><g style="opacity: 0.3; transform-origin: 153.179991px 386.869994px;" class="animable"><circle cx="153.18" cy="386.87" r="1.72" id="elog6dkqbt05" style="transform-origin: 153.18px 386.87px;" class="animable"></circle></g></g><g id="elspyvfx4unw"><g style="opacity: 0.3; transform-origin: 59.370003px 270.289993px;" class="animable"><path d="M57.82,261.75H67.91a0,0,0,0,1,0,0v17.08a0,0,0,0,1,0,0H50.83a0,0,0,0,1,0,0V268.73A7,7,0,0,1,57.82,261.75Z" id="elcy3d0kpxfoc" style="transform-origin: 59.370003px 270.289993px;" class="animable"></path></g></g><path d="M62.26,270.29a2.89,2.89,0,1,1-2.89-2.9A2.89,2.89,0,0,1,62.26,270.29Z" style="fill: rgb(38, 50, 56); transform-origin: 59.370012px 270.280045px;" id="elveeywc5snib" class="animable"></path><g id="elryuqgroi1l"><g style="opacity: 0.3; transform-origin: 157.925003px 270.285004px;" class="animable"><path d="M149.39,261.75h10a7.07,7.07,0,0,1,7.07,7.07v10a0,0,0,0,1,0,0H149.39a0,0,0,0,1,0,0V261.75A0,0,0,0,1,149.39,261.75Z" id="elpwfe0b789v9" style="transform-origin: 157.925003px 270.285004px;" class="animable"></path></g></g><path d="M160.64,270.75a2.89,2.89,0,1,1-2.89-2.89A2.89,2.89,0,0,1,160.64,270.75Z" style="fill: rgb(38, 50, 56); transform-origin: 157.75px 270.750015px;" id="elftxe8fakv6k" class="animable"></path><g id="elhhspplf7t9"><g style="opacity: 0.3; transform-origin: 59.190001px 418.789993px;" class="animable"><path d="M50.65,410.25H67.73a0,0,0,0,1,0,0v17.08a0,0,0,0,1,0,0H62.17a11.52,11.52,0,0,1-11.52-11.52v-5.56A0,0,0,0,1,50.65,410.25Z" id="elr24p816p15" style="transform-origin: 59.190001px 418.789993px;" class="animable"></path></g></g><path d="M62.08,418.79a2.89,2.89,0,1,1-2.89-2.89A2.89,2.89,0,0,1,62.08,418.79Z" style="fill: rgb(38, 50, 56); transform-origin: 59.190001px 418.790024px;" id="el6l9et3q22bc" class="animable"></path><g id="ely6dtuw10bx"><g style="opacity: 0.3; transform-origin: 157.750015px 418.790009px;" class="animable"><path d="M149.21,427.33h0V410.25h17.08A17.08,17.08,0,0,1,149.21,427.33Z" id="elopxz1dizv2" style="transform-origin: 157.750015px 418.790009px;" class="animable"></path></g></g><path d="M160.64,418.79a2.89,2.89,0,1,1-2.89-2.89A2.89,2.89,0,0,1,160.64,418.79Z" style="fill: rgb(38, 50, 56); transform-origin: 157.75px 418.790024px;" id="el4wfhzrgz6zd" class="animable"></path><path d="M109.87,272.92a49.25,49.25,0,1,0,49.25,49.25A49.25,49.25,0,0,0,109.87,272.92Zm0,55.45a6.2,6.2,0,1,1,6.2-6.2A6.2,6.2,0,0,1,109.87,328.37Z" style="fill: rgb(0, 213, 156); transform-origin: 109.869995px 322.170013px;" id="elijtnwu4ol1r" class="animable"></path><g id="elvufp67axxvq"><g style="opacity: 0.3; transform-origin: 109.869995px 322.170013px;" class="animable"><path d="M109.87,272.92a49.25,49.25,0,1,0,49.25,49.25A49.25,49.25,0,0,0,109.87,272.92Zm0,55.45a6.2,6.2,0,1,1,6.2-6.2A6.2,6.2,0,0,1,109.87,328.37Z" style="fill: rgb(255, 255, 255); transform-origin: 109.869995px 322.170013px;" id="elz7wef219fim" class="animable"></path></g></g><g id="elsi1sod73ruj"><g style="opacity: 0.3; transform-origin: 109.870007px 322.169998px;" class="animable"><path d="M109.87,306.36a15.81,15.81,0,1,0,15.81,15.81A15.81,15.81,0,0,0,109.87,306.36Zm0,22a6.2,6.2,0,1,1,6.2-6.2A6.2,6.2,0,0,1,109.87,328.37Z" id="eldnip8xigdui" style="transform-origin: 109.870007px 322.169998px;" class="animable"></path></g></g><path d="M112.46,311.43a2.2,2.2,0,1,1-2.19-2.19A2.2,2.2,0,0,1,112.46,311.43Z" style="fill: rgb(224, 224, 224); transform-origin: 110.259991px 311.439972px;" id="eljf7w4v8ckng" class="animable"></path><path d="M101.67,319a2.19,2.19,0,1,1-.73-3A2.19,2.19,0,0,1,101.67,319Z" style="fill: rgb(224, 224, 224); transform-origin: 99.795788px 317.86734px;" id="elamldsunumj9" class="animable"></path><path d="M105.15,331.59a2.2,2.2,0,1,1-.73-3A2.2,2.2,0,0,1,105.15,331.59Z" style="fill: rgb(224, 224, 224); transform-origin: 103.262115px 330.460602px;" id="elxcgdqctyjkh" class="animable"></path><path d="M122,319a2.2,2.2,0,1,1-.73-3A2.2,2.2,0,0,1,122,319Z" style="fill: rgb(224, 224, 224); transform-origin: 120.112137px 317.870636px;" id="elx57v9u319fo" class="animable"></path><path d="M119.28,330.94a2.19,2.19,0,1,1-.73-3A2.19,2.19,0,0,1,119.28,330.94Z" style="fill: rgb(224, 224, 224); transform-origin: 117.405792px 329.807343px;" id="elmn8jaijnt7i" class="animable"></path><g id="elpqwgtyzhsag"><g style="opacity: 0.3; transform-origin: 130.109997px 350.955002px;" class="animable"><path d="M158.37,330.45,101.85,371c1.38.22,2.67.38,3.86.46l51.53-35.74A47.52,47.52,0,0,0,158.37,330.45Z" style="fill: rgb(255, 255, 255); transform-origin: 130.109997px 350.955002px;" id="ela0rqk0rwh5g" class="animable"></path></g></g><g id="elc8jq5ci5udw"><circle cx="93.88" cy="376.15" r="6.98" style="fill: rgb(0, 213, 156); transform-origin: 93.88px 376.15px; transform: rotate(-41.347777deg);" class="animable"></circle></g><path d="M89.52,370.7l29.83-23.63a.18.18,0,0,1,.26.24L99.32,380.53Z" style="fill: rgb(0, 213, 156); transform-origin: 104.578747px 363.782211px;" id="elr4pmbkgn3fo" class="animable"></path><g id="elc51ebty785g"><g style="opacity: 0.3; transform-origin: 93.885406px 376.150574px;" class="animable"><path d="M100.27,375.58a6.41,6.41,0,1,1-7-5.81A6.41,6.41,0,0,1,100.27,375.58Z" id="elrbtuw0vg1j" style="transform-origin: 93.885406px 376.150574px;" class="animable"></path></g></g><path d="M96.85,375.89a3,3,0,1,1-3.24-2.71A3,3,0,0,1,96.85,375.89Z" style="fill: rgb(38, 50, 56); transform-origin: 93.862995px 376.169296px;" id="ellbjuupuw0o" class="animable"></path><path d="M61.45,363.78v24.49a3.59,3.59,0,0,0,1.06,2.55l15,15A3.6,3.6,0,0,0,80,406.86h32.54a3.59,3.59,0,0,0,3.59-3.59V388.41a3.6,3.6,0,0,0-3.59-3.6H90.41a3.58,3.58,0,0,1-2.67-1.19l-20-22.24A3.57,3.57,0,0,0,65,360.19h0A3.59,3.59,0,0,0,61.45,363.78Z" style="fill: rgb(235, 235, 235); transform-origin: 88.790005px 383.524582px;" id="elu60hky42e9e" class="animable"></path><g id="ela1l9s0j4wkh"><g style="opacity: 0.3; transform-origin: 99.659618px 301.775009px;" class="animable"><path d="M61.36,313.63l68.75-36.37a48.89,48.89,0,0,1,8.59,5L60.79,326.29A49.66,49.66,0,0,1,61.36,313.63Z" style="fill: rgb(255, 255, 255); transform-origin: 99.659618px 301.775009px;" id="elkjt7kkvbaa" class="animable"></path></g></g><g id="el7wzivdzvyrn"><g style="opacity: 0.3; transform-origin: 93.480003px 290.979996px;" class="animable"><path d="M62.72,307.91l61.52-32.86c-1.33-.4-2.59-.74-3.75-1L64.54,302.88A48.26,48.26,0,0,0,62.72,307.91Z" style="fill: rgb(255, 255, 255); transform-origin: 93.480003px 290.979996px;" id="el10j12mcwdssd" class="animable"></path></g></g></g><g id="freepik--device-2--inject-31" style="transform-origin: 246.100014px 354.690002px;" class="animable"><polygon points="242.32 268.12 244.59 274.33 257.83 274.33 260.11 268.18 242.32 268.12" style="fill: rgb(38, 50, 56); transform-origin: 251.214996px 271.224991px;" id="elbk2s683dmmm" class="animable"></polygon><rect x="248.2" y="270.34" width="6.13" height="15.16" style="fill: rgb(38, 50, 56); transform-origin: 251.265px 277.92px;" id="elqol1w5uo16m" class="animable"></rect><path d="M349.16,382.13h-6.43v-1h6.43a2.56,2.56,0,0,0,2.56-2.56V313.41a7.9,7.9,0,0,0-7.89-7.89H258.17a7.46,7.46,0,0,1-7.45-7.45V284.46h1v13.61a6.45,6.45,0,0,0,6.45,6.45h85.66a8.9,8.9,0,0,1,8.89,8.89v65.16A3.56,3.56,0,0,1,349.16,382.13Z" style="fill: rgb(38, 50, 56); transform-origin: 301.720024px 333.294998px;" id="eljt2sgb3dci" class="animable"></path><rect x="139.48" y="325.62" width="170.11" height="115.64" rx="11.29" style="fill: rgb(0, 213, 156); transform-origin: 224.535px 383.44px;" id="el3aj7ralugik" class="animable"></rect><g id="el00g22jtijcr6e"><g style="opacity: 0.3; transform-origin: 224.534996px 383.440002px;" class="animable"><rect x="139.48" y="325.62" width="170.11" height="115.64" rx="11.29" id="elhat8gw83ng" style="transform-origin: 224.535px 383.44px;" class="animable"></rect></g></g><rect x="147.27" y="325.62" width="170.11" height="115.64" rx="11.29" style="fill: rgb(0, 213, 156); transform-origin: 232.325px 383.44px;" id="elbh5ba9iuln" class="animable"></rect><g id="el9vdd62tq3tv"><path d="M322.15,369.61h14a4.77,4.77,0,0,1,4.77,4.77v19.31a0,0,0,0,1,0,0H317.38a0,0,0,0,1,0,0V374.38A4.77,4.77,0,0,1,322.15,369.61Z" style="fill: rgb(38, 50, 56); transform-origin: 329.149979px 381.649979px; transform: rotate(90deg);" class="animable"></path></g><g id="el6o957aabquf"><rect x="339.88" y="380.1" width="5.71" height="3.1" style="fill: rgb(38, 50, 56); transform-origin: 342.735px 381.65px; transform: rotate(90deg);" class="animable"></rect></g><rect x="156.71" y="343.22" width="6.63" height="9.32" style="fill: rgb(255, 255, 255); transform-origin: 160.025px 347.88px;" id="el07yf4amqps5k" class="animable"></rect><path d="M219.73,322.61h-21a.5.5,0,0,1-.5-.5.5.5,0,0,1,.5-.5h21a.5.5,0,0,1,.5.5A.51.51,0,0,1,219.73,322.61Z" style="fill: rgb(0, 213, 156); transform-origin: 209.229996px 322.109985px;" id="ely0surr5lww" class="animable"></path><path d="M228.44,322.61h-4.38a.51.51,0,0,1-.5-.5.5.5,0,0,1,.5-.5h4.38a.5.5,0,0,1,.5.5A.5.5,0,0,1,228.44,322.61Z" style="fill: rgb(0, 213, 156); transform-origin: 226.25px 322.109985px;" id="elogdp27rprj" class="animable"></path></g><g id="freepik--Character--inject-31" style="transform-origin: 401.413925px 309.737167px;" class="animable"><polygon points="443.69 438.99 435.5 439.79 429.44 419.04 441.9 417.69 443.69 438.99" style="fill: rgb(238, 193, 187); transform-origin: 436.565002px 428.740005px;" id="el8lqgd720im" class="animable"></polygon><path d="M434.31,436.17h2.92a2.06,2.06,0,0,1,1.67.87c1.69,2.3,3,1.43,4.79-.73,1.17-.14,1.48,1.2,1.57,1.56l2.19,7.95a1.25,1.25,0,0,1-.86,1.55,1.49,1.49,0,0,1-.36.05H423.05c-3.68,0-4.45-3.72-2.93-4.06,6.83-1.51,11.66-3.52,13.77-5.51C434.29,437.51,433.88,437.25,434.31,436.17Z" style="fill: rgb(38, 50, 56); transform-origin: 433.441895px 441.794998px;" id="elhbn1cckfsq" class="animable"></path><path d="M430,438.88a13.35,13.35,0,0,0,2.74-.35.17.17,0,0,0,.1-.21.19.19,0,0,0-.1-.1c-.41-.2-4.07-1.91-5-1.26a.55.55,0,0,0-.24.52,1.19,1.19,0,0,0,.5.95A3.23,3.23,0,0,0,430,438.88Zm2.16-.57c-1.07.2-3.08.46-3.91-.16a.91.91,0,0,1-.36-.69.2.2,0,0,1,.09-.22C428.44,436.88,430.6,437.64,432.11,438.31Z" style="fill: rgb(0, 213, 156); transform-origin: 430.172211px 437.855026px;" id="el7ncr7agg8nj" class="animable"></path><path d="M432.65,438.54h.11a.17.17,0,0,0,.05-.18c0-.15-.86-3.75-2.86-3.52-.5.07-.64.31-.66.51-.13.95,2.18,2.76,3.27,3.21Zm-2.5-3.41c1.27,0,2,2.1,2.25,2.94-1.19-.63-2.86-2.13-2.76-2.71,0-.05,0-.19.37-.22Z" style="fill: rgb(0, 213, 156); transform-origin: 431.051392px 436.694733px;" id="elcbatwaf8g7" class="animable"></path><path d="M434.76,440.28a.25.25,0,0,1-.21-.12,3.31,3.31,0,0,0-2.31-1.49.24.24,0,0,1-.21-.28.26.26,0,0,1,.28-.21,3.78,3.78,0,0,1,2.66,1.71.25.25,0,0,1-.08.35A.28.28,0,0,1,434.76,440.28Z" style="fill: rgb(0, 213, 156); transform-origin: 433.518417px 439.229431px;" id="el9ckqfvd5d4v" class="animable"></path><path d="M432.94,441.65a.27.27,0,0,1-.21-.12,3.27,3.27,0,0,0-2.3-1.49.25.25,0,1,1,.06-.49,3.82,3.82,0,0,1,2.67,1.71.27.27,0,0,1-.08.35A.33.33,0,0,1,432.94,441.65Z" style="fill: rgb(0, 213, 156); transform-origin: 431.681992px 440.595093px;" id="elaxs6qptc8b" class="animable"></path><path d="M430.68,442.8a.27.27,0,0,1-.21-.12,3.31,3.31,0,0,0-2.31-1.49.25.25,0,1,1,.07-.49,3.8,3.8,0,0,1,2.66,1.71.25.25,0,0,1-.08.35A.28.28,0,0,1,430.68,442.8Z" style="fill: rgb(0, 213, 156); transform-origin: 429.420181px 441.74501px;" id="el7ba0cu4j3t8" class="animable"></path><g id="el38mybbkrn2r"><polygon points="432.64 430.01 433.38 432.55 443.03 431.07 442.85 428.98 432.64 430.01" style="opacity: 0.3; transform-origin: 437.835007px 430.764999px;" class="animable"></polygon></g><polygon points="395.99 438.99 387.8 439.79 381.74 419.04 394.21 417.69 395.99 438.99" style="fill: rgb(238, 193, 187); transform-origin: 388.86499px 428.740005px;" id="elauzbcp6pcir" class="animable"></polygon><path d="M386.61,436.17h2.93a2.05,2.05,0,0,1,1.66.87c1.69,2.3,3,1.43,4.79-.73,1.17-.14,1.48,1.2,1.58,1.56l2.19,7.95a1.26,1.26,0,0,1-.86,1.55,1.5,1.5,0,0,1-.37.05H375.36c-3.69,0-4.45-3.72-2.94-4.06,6.83-1.51,11.67-3.52,13.78-5.51C386.59,437.51,386.19,437.25,386.61,436.17Z" style="fill: rgb(38, 50, 56); transform-origin: 385.74823px 441.794998px;" id="elcpdhehb1nx7" class="animable"></path><path d="M382.25,438.88a13.35,13.35,0,0,0,2.74-.35.16.16,0,0,0,.1-.21.17.17,0,0,0-.1-.1c-.41-.2-4.07-1.91-5-1.26a.53.53,0,0,0-.24.52,1.18,1.18,0,0,0,.49.95A3.24,3.24,0,0,0,382.25,438.88Zm2.17-.57c-1.08.2-3.09.46-3.92-.16a1,1,0,0,1-.36-.69.2.2,0,0,1,.1-.22C380.74,436.88,382.9,437.64,384.42,438.31Z" style="fill: rgb(0, 213, 156); transform-origin: 382.422867px 437.855316px;" id="eltynrp2ka17" class="animable"></path><path d="M385,438.54h.12a.17.17,0,0,0,.05-.18c0-.15-.86-3.75-2.87-3.52-.5.07-.64.31-.66.51-.12.95,2.18,2.76,3.28,3.21Zm-2.5-3.41c1.27,0,2,2.1,2.26,2.94-1.2-.63-2.87-2.13-2.76-2.71,0-.05,0-.19.37-.22Z" style="fill: rgb(0, 213, 156); transform-origin: 383.406769px 436.694733px;" id="el9g4fovzh3vr" class="animable"></path><path d="M387.07,440.28a.25.25,0,0,1-.22-.12,3.27,3.27,0,0,0-2.3-1.49.25.25,0,0,1-.22-.28.27.27,0,0,1,.29-.21,3.8,3.8,0,0,1,2.66,1.71.26.26,0,0,1-.08.35A.33.33,0,0,1,387.07,440.28Z" style="fill: rgb(0, 213, 156); transform-origin: 385.822357px 439.229385px;" id="elbrqje0n4ahw" class="animable"></path><path d="M385.25,441.65a.26.26,0,0,1-.21-.12,3.31,3.31,0,0,0-2.31-1.49.24.24,0,0,1-.21-.28.25.25,0,0,1,.28-.21,3.8,3.8,0,0,1,2.66,1.71.26.26,0,0,1-.08.35A.33.33,0,0,1,385.25,441.65Z" style="fill: rgb(0, 213, 156); transform-origin: 384.006531px 440.598907px;" id="el0ebph2i2gv3q" class="animable"></path><path d="M383,442.8a.27.27,0,0,1-.22-.12,3.27,3.27,0,0,0-2.3-1.49.26.26,0,0,1-.22-.28.25.25,0,0,1,.29-.21,3.82,3.82,0,0,1,2.66,1.71.26.26,0,0,1-.08.35A.33.33,0,0,1,383,442.8Z" style="fill: rgb(0, 213, 156); transform-origin: 381.752838px 441.748154px;" id="elohqfwjrsh0r" class="animable"></path><g id="elytv7qhi5iz"><polygon points="384.94 430.01 385.69 432.55 395.33 431.07 395.15 428.98 384.94 430.01" style="opacity: 0.3; transform-origin: 390.134995px 430.764999px;" class="animable"></polygon></g><path d="M378.48,282.66s-6.79,30-10,56.11c-1,8-1.17,18.61.57,26.45l13.09,65.07,16.47-1.65c-2.59-28.06-6.19-62.68-7.23-77.41C395,334,402.7,313.09,410.29,292.31Z" style="fill: rgb(0, 213, 156); transform-origin: 389.010986px 356.475021px;" id="elj0ux0o3lljg" class="animable"></path><path d="M432.6,356.47c-.37-1.62-1-4.92-1.69-9.26l.06,0c-.53-5.75-1.52-32.42-3.34-49.43-1.4-10.84-4.17-18.17-7-21.76-.14-.19-.27-.35-.39-.5-.46-.58-.75-.9-.75-.9-.53.13-1,.26-1.58.37l-.58.13a83.7,83.7,0,0,1-37-1.06c-1.81,4.48-3.16,14-4.49,23.92,2.06,2.26,11.1,5.19,21.47,7.13l3,13.37c1.55,8.3,3.55,16.43,5.25,23.75l1.77,8c.11.52.21,1,.31,1.56.9,4.61,22.31,78.89,22.31,78.89l13.95-.82S437.65,378.45,432.6,356.47Z" style="fill: rgb(0, 213, 156); transform-origin: 409.870026px 352.36998px;" id="el6t59jzfs66w" class="animable"></path><path d="M380.35,230.23c-1.74,9.58-5.22,22.18-5.22,22.18-2.24.47-18.37,0-18.37,0l.71,6.57s6,1.21,12,2.56c10.53,2.37,12.47,1.68,15.1-4.41S391,231.91,391,231.91Z" style="fill: rgb(238, 193, 187); transform-origin: 373.880005px 246.517128px;" id="eldhwtq3t3ye" class="animable"></path><path d="M386.34,219.33a42.07,42.07,0,0,0-9.44,17.61l16.19,3.87s4.48-11.82,2.66-16.15C393.86,220.16,390.93,215.82,386.34,219.33Z" style="fill: rgb(38, 50, 56); transform-origin: 386.54248px 229.429337px;" id="elr8mtvp8tlk" class="animable"></path><g id="elmre8h59pork"><g style="opacity: 0.3; transform-origin: 384.069962px 233px;" class="animable"><path d="M385.33,227a18,18,0,0,0-1.82,4.29,38.76,38.76,0,0,0-1,6.82l3.12.89C385.47,234.85,385.45,231.18,385.33,227Z" id="elg38dz727vg4" style="transform-origin: 384.069962px 233px;" class="animable"></path></g></g><path d="M426,239.41l5.12-17.47c-3.24-4.84-19.28-8.55-19.28-8.55L401.3,214s-4.06.91-7.53,2c-4.64,1.52-7.15,2.73-8.26,5.31,0,0-1.94,5.7-.77,17.46.32,3.23,0,20-.95,25.59l-5.46,13.09c19.3,15,44,0,44,0a52.92,52.92,0,0,1-1.84-8.2c.28-3.31-.11-8.41,1.29-14.2C422.05,253.94,425.55,240.49,426,239.41Z" style="fill: rgb(38, 50, 56); transform-origin: 404.724991px 248.753304px;" id="elnhmzqcn1z2" class="animable"></path><g id="elmikott7382n"><path d="M424.39,244.2s-7.4-9.32-6.14-13.2l7.62,7.13Z" style="opacity: 0.3; transform-origin: 421.987793px 237.599998px;" class="animable"></path></g><path d="M428.86,220.21c4.05,1.36,8.09,14.17,8.09,14.17L425,242.25s-7-10.36-5.72-15.72C420.4,222,423.71,218.47,428.86,220.21Z" style="fill: rgb(38, 50, 56); transform-origin: 428.036819px 231.003845px;" id="el5mz39ftpap" class="animable"></path><path d="M425.81,241.74s7.32,15.78,7.2,16.39c-.46,2.25-24,.73-24,.73l-.57,6.31a86.85,86.85,0,0,0,21.62,3.63c11.32.23,16.47-5.7,13.73-12.77-2.92-7.54-8.25-20.74-8.25-20.74Z" style="fill: rgb(238, 193, 187); transform-origin: 426.476471px 252.048256px;" id="ell452ogsusdl" class="animable"></path><g id="elgjukh4ckxth"><path d="M433,258.13a7.15,7.15,0,0,1,4.65.91s-.23-1-2.15-1.75a8.63,8.63,0,0,0-2.93-.33Z" style="opacity: 0.3; transform-origin: 435.110016px 257.992371px;" class="animable"></path></g><path d="M434.52,191.31c-.94-.84-2.38-.61-3.61-.88a6.44,6.44,0,0,1-4-3.59c-.85-1.64-1.32-3.46-2.14-5.12A9.73,9.73,0,0,0,420.2,177c-2-.9-6-.7-7.18,1.79l-.75,5.11c2.45,4.06,1.89,7.45,1.48,12.18-.31,3.46,1.58,5.21,3.34,7,1.46,1.51,4.84,2.11,6.94,1.94a4.59,4.59,0,0,0,3.1-1.27,2.25,2.25,0,0,0,0-3.08,8.35,8.35,0,0,0,8-6.26A3.26,3.26,0,0,0,434.52,191.31Z" style="fill: rgb(38, 50, 56); transform-origin: 423.778534px 190.779053px;" id="eloqkco18uk3o" class="animable"></path><path d="M414.39,178.7a5.19,5.19,0,0,1,3.58,3.11,5.46,5.46,0,0,1,.51,3.2,3.54,3.54,0,0,1-1.84,2.58,2.62,2.62,0,0,1-3-.5,3.3,3.3,0,0,1-.58-2.82,23.87,23.87,0,0,1,1-2.81,4.52,4.52,0,0,0,.17-2.92" style="fill: rgb(0, 213, 156); transform-origin: 415.747284px 183.197784px;" id="el8drf99ipop9" class="animable"></path><path d="M414.34,214.06s-3.28,2.52-7.5,6.15a14.86,14.86,0,0,1-2.87,2c-2.76,1.47-5.28,2.31-6,1a4.81,4.81,0,0,1-.36-.94c-.58-2.23-.34-5.37,1.47-6.8,2-1.62,3-3,2.64-5.2a16.65,16.65,0,0,0-1.16-3.77l1.6-1.87,8.37-8.44C410.36,201.76,409.93,211,414.34,214.06Z" style="fill: rgb(238, 193, 187); transform-origin: 405.834686px 210.025276px;" id="elbdx31pf9gc" class="animable"></path><g id="el08sr2knozyr2"><path d="M401.83,210.69c2.3-1.37,4.83-3.74,4.53-6.45a12.49,12.49,0,0,0-.66-2.91L401,207.52A15.74,15.74,0,0,1,401.83,210.69Z" style="opacity: 0.2; transform-origin: 403.692154px 206.009995px;" class="animable"></path></g><path d="M412.93,187.06c-.78,8.59-.93,12.24-5.37,16.75-6.68,6.78-16.95,4.5-18.71-4-1.6-7.67,0-20.45,8.4-24.06A11.06,11.06,0,0,1,412.93,187.06Z" style="fill: rgb(238, 193, 187); transform-origin: 400.651657px 191.241165px;" id="eldwvulrl9dr" class="animable"></path><path d="M402.22,189.77c0,.8-.54,1.46-1.1,1.48s-1-.64-.94-1.44.54-1.47,1.1-1.48S402.27,189,402.22,189.77Z" style="fill: rgb(38, 50, 56); transform-origin: 401.199249px 189.790161px;" id="el7on47tgv4rm" class="animable"></path><path d="M393.31,189.64c0,.78-.54,1.43-1.1,1.44s-1-.61-.94-1.39.54-1.42,1.1-1.44S393.36,188.86,393.31,189.64Z" style="fill: rgb(38, 50, 56); transform-origin: 392.289246px 189.664825px;" id="el9p6bvi3k0o7" class="animable"></path><path d="M403.59,186.69a.37.37,0,0,1-.3-.1,3.09,3.09,0,0,0-2.84-.79.38.38,0,0,1-.49-.29.46.46,0,0,1,.31-.53,3.85,3.85,0,0,1,3.59,1,.42.42,0,0,1,0,.6A.55.55,0,0,1,403.59,186.69Z" style="fill: rgb(38, 50, 56); transform-origin: 401.968399px 185.78405px;" id="el9c3hh4t3gp6" class="animable"></path><path d="M390.56,186.26a.4.4,0,0,1-.3,0,.41.41,0,0,1-.11-.58,4.4,4.4,0,0,1,3.28-2.16.39.39,0,0,1,.41.4.47.47,0,0,1-.42.45,3.51,3.51,0,0,0-2.58,1.74A.51.51,0,0,1,390.56,186.26Z" style="fill: rgb(38, 50, 56); transform-origin: 391.957367px 184.904327px;" id="el91fbdkmr0ol" class="animable"></path><path d="M409.27,192.45s-2.65-4-1.56-11.82a2.47,2.47,0,0,0-1.94-2.8c-3.71-.72-8.67-5.4-14.72,3.89,0,0,3.08-11.81,19.78-6.65,10.74,3.33,4.74,16.74,3.19,18.05S409.27,192.45,409.27,192.45Z" style="fill: rgb(38, 50, 56); transform-origin: 404.070251px 183.666611px;" id="elyi1jlietp1" class="animable"></path><path d="M415.54,194.06a6.92,6.92,0,0,1-4.18,3.25c-2.28.57-3.45-3.08-2.68-5.37a4.58,4.58,0,0,1,5.15-3C416,189.42,416.7,192.05,415.54,194.06Z" style="fill: rgb(238, 193, 187); transform-origin: 412.269455px 193.117149px;" id="el8riohilcpht" class="animable"></path><path d="M395.48,198.05a23.82,23.82,0,0,1,1.54,3.16c.2,0,.41-.08.61-.14,2.74-.64,3.79-1.84,4.14-3a4,4,0,0,0-.25-2.65c-1.25,1.21-3.75,2-5.11,2.37C395.84,198,395.48,198.05,395.48,198.05Z" style="fill: rgb(38, 50, 56); transform-origin: 398.684799px 198.31501px;" id="elm9hmku8qadr" class="animable"></path><path d="M396.41,197.81l.48.92c2.58-.61,4.31-1.38,4.93-2.35a3.55,3.55,0,0,0-.3-.94C400.27,196.65,397.77,197.44,396.41,197.81Z" style="fill: rgb(255, 255, 255); transform-origin: 399.115005px 197.084991px;" id="elscgukvsxhje" class="animable"></path><path d="M397.63,201.07c2.74-.64,3.79-1.84,4.14-3a9.17,9.17,0,0,0-2.9,1.32A3.37,3.37,0,0,0,397.63,201.07Z" style="fill: rgb(220, 87, 83); transform-origin: 399.700012px 199.570007px;" id="el2n2kk0fwjep" class="animable"></path><path d="M395.62,189.41a29,29,0,0,1-2.86,5.23.66.66,0,0,0,.31,1,4.3,4.3,0,0,0,2.31,0Z" style="fill: rgb(212, 130, 125); transform-origin: 394.129486px 192.604019px;" id="elk0r99kfv8d" class="animable"></path><path d="M401.45,188.31l-2-.47S400.56,189.32,401.45,188.31Z" style="fill: rgb(38, 50, 56); transform-origin: 400.450012px 188.251373px;" id="elixzizr4b0yh" class="animable"></path><path d="M392.58,188.27l-2-.46S391.68,189.28,392.58,188.27Z" style="fill: rgb(38, 50, 56); transform-origin: 391.579987px 188.217178px;" id="el59tgdssvs3q" class="animable"></path><path d="M389.54,185.36s-5.23-6.37,3.78-11.59c0,0,7.85-4.32,15.38.75s7.65,8.49.5,16.32c0,0,.78-1-1.87-3.36s-5.56-4.4-4.14-6.65a3.78,3.78,0,0,0-2.36,2.93l-3.86-1a7.17,7.17,0,0,1,1.19-3,6.89,6.89,0,0,0-2.66,2.91l-3.34.63s.49-3.07,1.43-4.17A19.59,19.59,0,0,0,389.54,185.36Z" style="fill: rgb(38, 50, 56); transform-origin: 401.243988px 181.447166px;" id="el1x6wpwsrw2b" class="animable"></path><rect x="361.06" y="241.74" width="47.22" height="16.19" style="fill: rgb(255, 255, 255); transform-origin: 384.67px 249.835px;" id="el46iyvx0so1u" class="animable"></rect><path d="M357.11,242.5v34.24a1.72,1.72,0,0,0,1.72,1.72h50.4a1.72,1.72,0,0,0,1.72-1.72V245.87a1.72,1.72,0,0,0-1.72-1.72H378.58a1.74,1.74,0,0,1-1.5-.88l-1-1.69a1.42,1.42,0,0,0-1.24-.71h-16.1A1.65,1.65,0,0,0,357.11,242.5Z" style="fill: rgb(0, 213, 156); transform-origin: 384.029984px 259.66497px;" id="elovmcrsdrzb" class="animable"></path><path d="M410.94,257.71s-7.58,1.8-8.3,3.3,1.64,1.41,1.64,1.41-2.59.25-2.63,1.36c-.06,1.34,2.42,1.24,2.42,1.24s-2.11.29-2.08,1.29,2.83,1.12,2.83,1.12-1.45.49-1,1.17,6.35,1,8.12-.1,1.88-8.73,1.56-10.4S413,255.53,411,253v4.74Z" style="fill: rgb(238, 193, 187); transform-origin: 407.644958px 261.110001px;" id="elcarorcjnq1p" class="animable"></path><g id="elzi3qqktnj0f"><path d="M404.29,262.54h0l4.5-.65a.12.12,0,0,0,.09-.14c0-.07-.06-.12-.12-.11l-4.5.65a.12.12,0,0,0-.1.14A.12.12,0,0,0,404.29,262.54Z" style="opacity: 0.2; transform-origin: 406.520172px 262.0896px;" class="animable"></path></g><g id="elevngbebfoil"><path d="M404.2,265.14h0l4.38-.28c.06,0,.1-.06.1-.13a.12.12,0,0,0-.12-.12l-4.37.28a.12.12,0,0,0-.1.14A.1.1,0,0,0,404.2,265.14Z" style="opacity: 0.2; transform-origin: 406.384064px 264.875305px;" class="animable"></path></g><g id="ely0z6brcv0l"><path d="M405,267.55l3.26-.11a.13.13,0,0,0,0-.26l-3.26.12a.11.11,0,0,0-.1.13A.11.11,0,0,0,405,267.55Z" style="opacity: 0.2; transform-origin: 406.644058px 267.36499px;" class="animable"></path></g><path d="M357.77,256.42s7.19,1.84,7.85,3.25-1.56,1.31-1.56,1.31,2.44.27,2.47,1.32c0,1.26-2.3,1.14-2.3,1.14s2,.3,1.94,1.24-2.68,1-2.68,1,1.36.47,1,1.11-6,.85-7.65-.19-1.67-8.25-1.35-9.82-.33-2.43,1.64-4.82l.67,4.44Z" style="fill: rgb(238, 193, 187); transform-origin: 360.929321px 259.642517px;" id="el5q5ni6dlx1x" class="animable"></path><g id="elviimt1l975"><path d="M364.05,261.1h0l-4.23-.67a.11.11,0,0,1-.09-.13c0-.07.06-.12.12-.11l4.23.67a.12.12,0,0,1,.09.14A.11.11,0,0,1,364.05,261.1Z" style="opacity: 0.2; transform-origin: 361.950073px 260.644623px;" class="animable"></path></g><g id="el09u8voz0diyf"><path d="M364.1,263.55h0l-4.12-.32a.11.11,0,0,1-.1-.12A.11.11,0,0,1,360,263l4.12.32a.12.12,0,0,1,0,.23Z" style="opacity: 0.2; transform-origin: 362.042618px 263.274796px;" class="animable"></path></g><g id="eldjk8g97m0i"><path d="M363.35,265.81l-3.07-.15a.11.11,0,0,1-.1-.12.1.1,0,0,1,.11-.11l3.07.14a.12.12,0,0,1,.1.13A.13.13,0,0,1,363.35,265.81Z" style="opacity: 0.2; transform-origin: 361.819977px 265.61972px;" class="animable"></path></g></g><defs>     <filter id="active" height="200%">         <feMorphology in="SourceAlpha" result="DILATED" operator="dilate" radius="2"></feMorphology>                <feFlood flood-color="#32DFEC" flood-opacity="1" result="PINK"></feFlood>        <feComposite in="PINK" in2="DILATED" operator="in" result="OUTLINE"></feComposite>        <feMerge>            <feMergeNode in="OUTLINE"></feMergeNode>            <feMergeNode in="SourceGraphic"></feMergeNode>        </feMerge>    </filter>    <filter id="hover" height="200%">        <feMorphology in="SourceAlpha" result="DILATED" operator="dilate" radius="2"></feMorphology>                <feFlood flood-color="#ff0000" flood-opacity="0.5" result="PINK"></feFlood>        <feComposite in="PINK" in2="DILATED" operator="in" result="OUTLINE"></feComposite>        <feMerge>            <feMergeNode in="OUTLINE"></feMergeNode>            <feMergeNode in="SourceGraphic"></feMergeNode>        </feMerge>            <feColorMatrix type="matrix" values="0   0   0   0   0                0   1   0   0   0                0   0   0   0   0                0   0   0   1   0 "></feColorMatrix>    </filter></defs></svg>