<?xml version="1.0" encoding="utf-8"?>
<!-- Generator: Adobe Illustrator 25.0.0, SVG Export Plug-In . SVG Version: 6.00 Build 0)  -->
<svg version="1.1" id="livetype" xmlns="http://www.w3.org/2000/svg" xmlns:xlink="http://www.w3.org/1999/xlink" x="0px" y="0px"
	 viewBox="0 0 119.7 40" style="enable-background:new 0 0 119.7 40;" xml:space="preserve">
<style type="text/css">
	.Graphic_x0020_Style_x0020_2{fill:url(#SVGID_1_);}
	.st0{fill:#B7B7B7;}
	.st1{fill:#000001;}
	.st2{fill:#FFFFFF;}
	.st3{fill:#FFFFFF;stroke:#FFFFFF;stroke-width:0.2;stroke-miterlimit:10;}
	.st4{fill:#6CC8F0;}
	.st5{fill:url(#SVGID_2_);}
	.st6{fill:url(#SVGID_3_);}
	.st7{fill:url(#SVGID_4_);}
</style>
<linearGradient id="SVGID_1_" gradientUnits="userSpaceOnUse" x1="-331.9995" y1="-389.5216" x2="-332.7066" y2="-388.8145">
	<stop  offset="0" style="stop-color:#E93B3D"/>
	<stop  offset="1" style="stop-color:#C51A65"/>
</linearGradient>
<g>
	<g>
		<path class="st0" d="M110.1,0H9.5C9.2,0,8.8,0,8.4,0C8.1,0,7.8,0,7.5,0c-0.7,0-1.3,0.1-2,0.2C4.8,0.3,4.2,0.5,3.6,0.8
			C3,1.1,2.5,1.5,2,2C1.5,2.5,1.1,3,0.8,3.6C0.5,4.2,0.3,4.9,0.2,5.5C0.1,6.2,0,6.9,0,7.5c0,0.3,0,0.6,0,0.9c0,0.4,0,0.7,0,1.1v20.9
			c0,0.4,0,0.7,0,1.1c0,0.3,0,0.6,0,0.9c0,0.7,0.1,1.3,0.2,2c0.1,0.7,0.3,1.3,0.6,1.9C1.1,37,1.5,37.5,2,38c0.5,0.5,1,0.9,1.6,1.2
			c0.6,0.3,1.2,0.5,1.9,0.6c0.7,0.1,1.3,0.2,2,0.2c0.3,0,0.6,0,0.9,0c0.4,0,0.7,0,1.1,0h100.6c0.4,0,0.7,0,1.1,0c0.3,0,0.6,0,0.9,0
			c0.7,0,1.3-0.1,2-0.2c0.7-0.1,1.3-0.3,1.9-0.6c0.6-0.3,1.1-0.7,1.6-1.2c0.5-0.5,0.9-1,1.2-1.6c0.3-0.6,0.5-1.2,0.6-1.9
			c0.1-0.7,0.2-1.3,0.2-2c0-0.3,0-0.6,0-0.9c0-0.4,0-0.7,0-1.1V9.5c0-0.4,0-0.7,0-1.1c0-0.3,0-0.6,0-0.9c0-0.7-0.1-1.3-0.2-2
			c-0.1-0.7-0.3-1.3-0.6-1.9c-0.3-0.6-0.7-1.1-1.2-1.6c-0.5-0.5-1-0.9-1.6-1.2c-0.6-0.3-1.2-0.5-1.9-0.6c-0.7-0.1-1.3-0.2-2-0.2
			c-0.3,0-0.6,0-0.9,0C110.9,0,110.5,0,110.1,0L110.1,0z"/>
		<path class="st1" d="M8.4,39.1c-0.3,0-0.6,0-0.9,0c-0.6,0-1.2,0-1.9-0.2c-0.6-0.1-1.2-0.3-1.7-0.5c-0.5-0.3-1-0.6-1.4-1
			c-0.4-0.4-0.8-0.9-1-1.4c-0.3-0.5-0.4-1-0.5-1.7c-0.1-0.7-0.2-1.4-0.2-1.9c0-0.2,0-0.9,0-0.9V8.4c0,0,0-0.7,0-0.9
			c0-0.5,0-1.2,0.2-1.9C1.2,5.1,1.3,4.5,1.6,4c0.3-0.5,0.6-1,1-1.4C3,2.2,3.5,1.9,4,1.6c0.5-0.3,1.1-0.4,1.7-0.5
			C6.3,0.9,7,0.9,7.5,0.9l0.9,0h102.8l0.9,0c0.5,0,1.2,0,1.9,0.2c0.6,0.1,1.1,0.3,1.7,0.5c0.5,0.3,1,0.6,1.4,1
			c0.4,0.4,0.8,0.9,1,1.4c0.3,0.5,0.4,1.1,0.5,1.6c0.1,0.6,0.2,1.3,0.2,1.9c0,0.3,0,0.6,0,0.9c0,0.4,0,0.7,0,1.1v20.9
			c0,0.4,0,0.7,0,1.1c0,0.3,0,0.6,0,0.9c0,0.6-0.1,1.2-0.2,1.9c-0.1,0.6-0.3,1.2-0.5,1.7c-0.3,0.5-0.6,1-1,1.4
			c-0.4,0.4-0.9,0.8-1.4,1c-0.5,0.3-1,0.4-1.7,0.5c-0.6,0.1-1.3,0.1-1.9,0.2c-0.3,0-0.6,0-0.9,0l-1.1,0L8.4,39.1z"/>
	</g>
</g>
<g>
	<g>
		<path class="st3" d="M41.7,10.9c0,0.7-0.2,1.3-0.7,1.8c-0.5,0.5-1.2,0.8-2,0.8c-0.8,0-1.4-0.3-2-0.8c-0.5-0.5-0.8-1.2-0.8-2
			c0-0.8,0.3-1.5,0.8-2c0.5-0.5,1.2-0.8,2-0.8c0.4,0,0.7,0.1,1.1,0.2c0.3,0.1,0.6,0.3,0.8,0.6l-0.5,0.5c-0.4-0.4-0.8-0.6-1.5-0.6
			c-0.6,0-1,0.2-1.5,0.6c-0.4,0.4-0.6,0.9-0.6,1.5c0,0.6,0.2,1.1,0.6,1.5c0.4,0.4,0.9,0.6,1.5,0.6c0.6,0,1.1-0.2,1.5-0.6
			c0.3-0.3,0.4-0.6,0.4-1.1H39v-0.6h2.6C41.7,10.6,41.7,10.8,41.7,10.9z"/>
		<path class="st3" d="M45.8,8.7h-2.4v1.7h2.2V11h-2.2v1.7h2.4v0.7h-3.1V8h3.1V8.7z"/>
		<path class="st3" d="M48.7,13.4H48V8.7h-1.5V8h3.7v0.7h-1.5V13.4z"/>
		<path class="st3" d="M52.8,13.4V8h0.7v5.3H52.8z"/>
		<path class="st3" d="M56.5,13.4h-0.7V8.7h-1.5V8H58v0.7h-1.5V13.4z"/>
		<path class="st3" d="M65,12.7c-0.5,0.5-1.2,0.8-2,0.8c-0.8,0-1.4-0.3-2-0.8c-0.5-0.5-0.8-1.2-0.8-2c0-0.8,0.3-1.4,0.8-2
			c0.5-0.5,1.2-0.8,2-0.8c0.8,0,1.4,0.3,2,0.8c0.5,0.5,0.8,1.2,0.8,2C65.7,11.5,65.5,12.1,65,12.7z M61.5,12.2
			c0.4,0.4,0.9,0.6,1.4,0.6c0.6,0,1.1-0.2,1.4-0.6c0.4-0.4,0.6-0.9,0.6-1.5c0-0.6-0.2-1.1-0.6-1.5c-0.4-0.4-0.9-0.6-1.4-0.6
			c-0.6,0-1.1,0.2-1.4,0.6c-0.4,0.4-0.6,0.9-0.6,1.5C61,11.3,61.2,11.8,61.5,12.2z"/>
		<path class="st3" d="M66.7,13.4V8h0.8l2.6,4.1h0l0-1V8h0.7v5.3h-0.7L67.4,9h0l0,1v3.3H66.7z"/>
	</g>
	<path class="st2" d="M60.1,21.1c-2.1,0-3.8,1.6-3.8,3.8c0,2.2,1.7,3.8,3.8,3.8c2.1,0,3.8-1.6,3.8-3.8
		C63.9,22.7,62.2,21.1,60.1,21.1z M60.1,27.2c-1.1,0-2.1-0.9-2.1-2.3c0-1.4,1-2.3,2.1-2.3c1.1,0,2.1,0.9,2.1,2.3
		C62.2,26.3,61.2,27.2,60.1,27.2z M51.8,21.1c-2.1,0-3.8,1.6-3.8,3.8c0,2.2,1.7,3.8,3.8,3.8c2.1,0,3.8-1.6,3.8-3.8
		C55.6,22.7,53.9,21.1,51.8,21.1z M51.8,27.2c-1.1,0-2.1-0.9-2.1-2.3c0-1.4,1-2.3,2.1-2.3c1.1,0,2.1,0.9,2.1,2.3
		C53.9,26.3,53,27.2,51.8,27.2z M42,22.3v1.6h3.8c-0.1,0.9-0.4,1.6-0.9,2c-0.6,0.6-1.4,1.2-3,1.2c-2.4,0-4.2-1.9-4.2-4.3
		s1.8-4.3,4.2-4.3c1.3,0,2.2,0.5,2.9,1.1l1.1-1.1c-1-0.9-2.2-1.6-4-1.6c-3.2,0-6,2.6-6,5.9c0,3.2,2.7,5.9,6,5.9
		c1.7,0,3.1-0.6,4.1-1.6c1.1-1.1,1.4-2.5,1.4-3.8c0-0.4,0-0.7-0.1-1H42z M82.2,23.5c-0.3-0.8-1.3-2.4-3.2-2.4
		c-1.9,0-3.6,1.5-3.6,3.8c0,2.1,1.6,3.8,3.8,3.8c1.7,0,2.7-1.1,3.2-1.7L81,26.2c-0.4,0.6-1,1-1.9,1c-0.8,0-1.4-0.4-1.8-1.1l5.1-2.1
		L82.2,23.5z M77.1,24.8c0-1.5,1.1-2.2,2-2.2c0.7,0,1.2,0.3,1.4,0.8L77.1,24.8z M73,28.5h1.7V17.4H73V28.5z M70.2,22L70.2,22
		c-0.4-0.4-1.1-0.8-2-0.8c-1.9,0-3.6,1.7-3.6,3.8c0,2.1,1.7,3.8,3.6,3.8c0.9,0,1.6-0.4,2-0.9h0.1v0.5c0,1.4-0.8,2.2-2,2.2
		c-1,0-1.6-0.7-1.9-1.3l-1.4,0.6c0.4,1,1.5,2.2,3.4,2.2c1.9,0,3.6-1.1,3.6-3.9v-6.8h-1.6V22z M68.3,27.2c-1.1,0-2.1-1-2.1-2.3
		c0-1.3,1-2.3,2.1-2.3c1.1,0,2,1,2,2.3C70.4,26.3,69.5,27.2,68.3,27.2z M90,17.4h-4v11.1h1.7v-4.2H90c1.8,0,3.6-1.3,3.6-3.5
		S91.9,17.4,90,17.4z M90.1,22.7h-2.4v-3.8h2.4c1.2,0,1.9,1,1.9,1.9C92,21.7,91.3,22.7,90.1,22.7z M100.3,21.1c-1.2,0-2.4,0.5-3,1.7
		l1.5,0.6c0.3-0.6,0.9-0.8,1.5-0.8c0.9,0,1.7,0.5,1.7,1.4v0.1c-0.3-0.2-0.9-0.4-1.7-0.4c-1.6,0-3.2,0.9-3.2,2.5
		c0,1.5,1.3,2.4,2.8,2.4c1.1,0,1.7-0.5,2.1-1.1h0.1v0.9h1.6v-4.3C103.7,22.2,102.2,21.1,100.3,21.1z M100.1,27.2
		c-0.5,0-1.3-0.3-1.3-0.9c0-0.9,0.9-1.2,1.8-1.2c0.7,0,1.1,0.2,1.5,0.4C102,26.5,101.1,27.2,100.1,27.2z M109.5,21.4l-1.9,4.8h-0.1
		l-2-4.8h-1.8l3,6.7l-1.7,3.7h1.7l4.6-10.5H109.5z M94.6,28.5h1.7V17.4h-1.7V28.5z"/>
	<g>
		<g>
			<g>
				<path class="st4" d="M8.8,8.5C8.5,8.8,8.4,9.2,8.4,9.8v19.6c0,0.6,0.2,1,0.4,1.2l0.1,0.1l11-11v-0.1v-0.1L8.8,8.5L8.8,8.5z"/>
				<linearGradient id="SVGID_2_" gradientUnits="userSpaceOnUse" x1="27.1464" y1="19.5816" x2="5.6504" y2="19.5816">
					<stop  offset="0" style="stop-color:#FFDE00"/>
					<stop  offset="0.1941" style="stop-color:#FDCE00"/>
					<stop  offset="0.5469" style="stop-color:#F9B300"/>
					<stop  offset="0.8279" style="stop-color:#F7A100"/>
					<stop  offset="1" style="stop-color:#F69B00"/>
				</linearGradient>
				<path class="st5" d="M23.5,23.4l-3.7-3.7v-0.1v-0.1l3.7-3.7l0.1,0l4.3,2.5c1.2,0.7,1.2,1.9,0,2.6L23.5,23.4L23.5,23.4z"/>
				<linearGradient id="SVGID_3_" gradientUnits="userSpaceOnUse" x1="21.5679" y1="21.6202" x2="1.3499" y2="41.8382">
					<stop  offset="0" style="stop-color:#E93B3D"/>
					<stop  offset="1" style="stop-color:#C51A65"/>
				</linearGradient>
				<path class="st6" d="M23.6,23.3l-3.8-3.8L8.8,30.7c0.4,0.4,1.1,0.5,1.8,0.1L23.6,23.3"/>
				<linearGradient id="SVGID_4_" gradientUnits="userSpaceOnUse" x1="1.2598" y1="-2.7658" x2="17.7673" y2="13.7417">
					<stop  offset="0" style="stop-color:#1A9C67"/>
					<stop  offset="0.3168" style="stop-color:#49A963"/>
					<stop  offset="0.7398" style="stop-color:#6BB95E"/>
					<stop  offset="1" style="stop-color:#76C05C"/>
				</linearGradient>
				<path class="st7" d="M23.6,15.8l-13-7.4C9.9,8,9.2,8.1,8.8,8.5l11.1,11.1L23.6,15.8z"/>
			</g>
		</g>
	</g>
</g>
</svg>
