<?xml version="1.0" encoding="utf-8"?>
<!-- Generator: Adobe Illustrator 25.0.0, SVG Export Plug-In . SVG Version: 6.00 Build 0)  -->
<svg version="1.1" id="livetype" xmlns="http://www.w3.org/2000/svg" xmlns:xlink="http://www.w3.org/1999/xlink" x="0px" y="0px"
	 viewBox="0 0 119.7 40" style="enable-background:new 0 0 119.7 40;" xml:space="preserve">
<style type="text/css">
	.st0{fill:#B7B7B7;}
	.st1{fill:#000001;}
	.st2{fill:#FFFFFF;}
	.st3{fill:#FFFFFF;stroke:#FFFFFF;stroke-width:0.2;stroke-miterlimit:10;}
	.st4{fill:#6CC8F0;}
	.st5{fill:url(#SVGID_1_);}
	.st6{fill:url(#SVGID_2_);}
	.st7{fill:url(#SVGID_3_);}
</style>
<g>
	<g>
		<path class="st0" d="M110.1,0H9.5C9.2,0,8.8,0,8.4,0C8.1,0,7.8,0,7.5,0c-0.7,0-1.3,0.1-2,0.2C4.8,0.3,4.2,0.5,3.6,0.8
			C3,1.1,2.5,1.5,2,2C1.5,2.5,1.1,3,0.8,3.6C0.5,4.2,0.3,4.9,0.2,5.5C0.1,6.2,0,6.9,0,7.5c0,0.3,0,0.6,0,0.9c0,0.4,0,0.7,0,1.1v20.9
			c0,0.4,0,0.7,0,1.1c0,0.3,0,0.6,0,0.9c0,0.7,0.1,1.3,0.2,2c0.1,0.7,0.3,1.3,0.6,1.9C1.1,37,1.5,37.5,2,38c0.5,0.5,1,0.9,1.6,1.2
			c0.6,0.3,1.2,0.5,1.9,0.6c0.7,0.1,1.3,0.2,2,0.2c0.3,0,0.6,0,0.9,0c0.4,0,0.7,0,1.1,0h100.6c0.4,0,0.7,0,1.1,0c0.3,0,0.6,0,0.9,0
			c0.7,0,1.3-0.1,2-0.2c0.7-0.1,1.3-0.3,1.9-0.6c0.6-0.3,1.1-0.7,1.6-1.2c0.5-0.5,0.9-1,1.2-1.6c0.3-0.6,0.5-1.2,0.6-1.9
			c0.1-0.7,0.2-1.3,0.2-2c0-0.3,0-0.6,0-0.9c0-0.4,0-0.7,0-1.1V9.5c0-0.4,0-0.7,0-1.1c0-0.3,0-0.6,0-0.9c0-0.7-0.1-1.3-0.2-2
			c-0.1-0.7-0.3-1.3-0.6-1.9c-0.3-0.6-0.7-1.1-1.2-1.6c-0.5-0.5-1-0.9-1.6-1.2c-0.6-0.3-1.2-0.5-1.9-0.6c-0.7-0.1-1.3-0.2-2-0.2
			c-0.3,0-0.6,0-0.9,0C110.9,0,110.5,0,110.1,0L110.1,0z"/>
		<path class="st1" d="M8.4,39.1c-0.3,0-0.6,0-0.9,0c-0.6,0-1.2,0-1.9-0.2c-0.6-0.1-1.2-0.3-1.7-0.5c-0.5-0.3-1-0.6-1.4-1
			c-0.4-0.4-0.8-0.9-1-1.4c-0.3-0.5-0.4-1-0.5-1.7c-0.1-0.7-0.2-1.4-0.2-1.9c0-0.2,0-0.9,0-0.9V8.4c0,0,0-0.7,0-0.9
			c0-0.5,0-1.2,0.2-1.9C1.2,5.1,1.3,4.5,1.6,4c0.3-0.5,0.6-1,1-1.4C3,2.2,3.5,1.9,4,1.6c0.5-0.3,1.1-0.4,1.7-0.5
			C6.3,0.9,7,0.9,7.5,0.9l0.9,0h102.8l0.9,0c0.5,0,1.2,0,1.9,0.2c0.6,0.1,1.1,0.3,1.7,0.5c0.5,0.3,1,0.6,1.4,1
			c0.4,0.4,0.8,0.9,1,1.4c0.3,0.5,0.4,1.1,0.5,1.6c0.1,0.6,0.2,1.3,0.2,1.9c0,0.3,0,0.6,0,0.9c0,0.4,0,0.7,0,1.1v20.9
			c0,0.4,0,0.7,0,1.1c0,0.3,0,0.6,0,0.9c0,0.6-0.1,1.2-0.2,1.9c-0.1,0.6-0.3,1.2-0.5,1.7c-0.3,0.5-0.6,1-1,1.4
			c-0.4,0.4-0.9,0.8-1.4,1c-0.5,0.3-1,0.4-1.7,0.5c-0.6,0.1-1.3,0.1-1.9,0.2c-0.3,0-0.6,0-0.9,0l-1.1,0L8.4,39.1z"/>
	</g>
</g>
<g id="XMLID_1_">
	<g id="XMLID_8_">
		<path id="XMLID_10_" class="st2" d="M24.8,20.3c0-2.8,2.3-4.1,2.4-4.2c-1.3-1.9-3.3-2.1-4-2.2c-1.7-0.2-3.3,1-4.2,1
			c-0.9,0-2.2-1-3.6-1c-1.8,0-3.5,1.1-4.5,2.7c-1.9,3.3-0.5,8.3,1.4,11c0.9,1.3,2,2.8,3.4,2.8c1.4-0.1,1.9-0.9,3.6-0.9
			c1.7,0,2.1,0.9,3.6,0.9c1.5,0,2.4-1.3,3.3-2.7c1.1-1.5,1.5-3,1.5-3.1C27.7,24.7,24.8,23.6,24.8,20.3z"/>
		<path id="XMLID_9_" class="st2" d="M22,12.2c0.7-0.9,1.3-2.2,1.1-3.5c-1.1,0-2.4,0.7-3.2,1.7c-0.7,0.8-1.3,2.1-1.1,3.4
			C20,13.8,21.3,13.1,22,12.2z"/>
	</g>
</g>
<g>
	<path class="st2" d="M37.2,21.4h1.9v1.3h0.1c0.6-0.9,1.4-1.5,2.9-1.5c1.1,0,2.2,0.5,2.6,1.5c0.7-1,1.6-1.5,2.9-1.5
		c2,0,3.1,0.9,3.1,3.1v6.4h-2.1v-5.4c0-1.5-0.1-2.5-1.7-2.5c-1.4,0-2,0.9-2,2.5v5.5h-2.1v-6c0-1.3-0.4-2-1.6-2c-1.1,0-2,0.9-2,2.4
		v5.5h-2.1V21.4z"/>
	<path class="st2" d="M70.6,24.5c-0.2-1.1-1-1.7-2.1-1.7c-1.1,0-2.6,0.6-2.6,3.4c0,1.5,0.7,3.2,2.5,3.2c1.2,0,2-0.8,2.2-2.1h2.1
		c-0.4,2.4-1.9,3.7-4.3,3.7c-2.9,0-4.5-2.1-4.5-4.8c0-2.8,1.5-5,4.6-5c2.2,0,4,1.1,4.2,3.4H70.6z"/>
	<path class="st2" d="M86.9,24.3c0,3.7-2.3,6.7-6.2,6.7c-3.9,0-6.2-3.1-6.2-6.7s2.3-6.7,6.2-6.7C84.6,17.5,86.9,20.6,86.9,24.3z
		 M76.9,24.3c0,2.5,1.2,4.9,3.9,4.9s3.9-2.4,3.9-4.9s-1.2-4.9-3.9-4.9S76.9,21.8,76.9,24.3z"/>
	<path class="st2" d="M91.2,26.4c0,2,1.5,2.8,3.3,2.8c2,0,2.7-1,2.7-1.9c0-1-0.5-1.4-1.1-1.6c-0.9-0.3-2.1-0.6-3.8-1.1
		c-2.2-0.6-2.8-1.9-2.8-3.3c0-2.6,2.4-3.8,4.7-3.8c2.7,0,4.9,1.4,4.9,4.1h-2.2c-0.1-1.7-1.2-2.3-2.8-2.3c-1,0-2.4,0.4-2.4,1.7
		c0,0.9,0.6,1.4,1.5,1.7c0.2,0.1,3,0.8,3.7,1c1.7,0.5,2.5,1.9,2.5,3.3c0,2.9-2.6,4-5.1,4c-2.9,0-5.3-1.4-5.4-4.6H91.2z"/>
</g>
<path class="st2" d="M53.2,28.2c0-1.7,1.3-2.7,3.5-2.8l2.6-0.1v-0.8c0-1-0.7-1.6-2-1.6c-1,0-1.8,0.4-2,1.1h-1.8
	c0.2-1.6,1.7-2.7,3.9-2.7c2.4,0,3.7,1.2,3.7,3.2v6.5h-1.8v-1.3h-0.1c-0.6,1-1.6,1.5-2.9,1.5C54.5,31,53.2,29.9,53.2,28.2z
	 M59.3,27.3v-0.8L57,26.7c-1.3,0.1-1.9,0.5-1.9,1.4c0,0.9,0.7,1.4,1.8,1.4C58.3,29.4,59.3,28.5,59.3,27.3z"/>
<g>
	<g>
		<path class="st2" d="M82.3,10.4H83V10c0-1.1,0.6-1.3,1.2-1.3c0.3,0,0.5,0,0.7,0.1v0.7c-0.1,0-0.2,0-0.4,0c-0.3,0-0.5,0.1-0.5,0.4
			v0.4h0.8v0.7H84v3.6H83v-3.6h-0.7V10.4z"/>
		<path class="st2" d="M85.5,12.5c0-1.3,0.8-2.3,2.2-2.3c1.4,0,2.2,0.9,2.2,2.3c0,1.3-0.8,2.3-2.2,2.3
			C86.3,14.8,85.5,13.8,85.5,12.5z M88.9,12.5c0-0.7-0.4-1.5-1.2-1.5c-0.8,0-1.2,0.8-1.2,1.5c0,0.7,0.4,1.5,1.2,1.5
			C88.5,14,88.9,13.2,88.9,12.5z"/>
		<path class="st2" d="M90.9,10.4h0.9v0.8h0c0.1-0.5,0.7-0.9,1.3-0.9c0.2,0,0.3,0,0.4,0v0.9c-0.1,0-0.3,0-0.4,0
			c-0.6,0-1.2,0.5-1.2,1.5v2h-0.9V10.4z"/>
	</g>
	<path class="st2" d="M39.7,8.9c1.8,0,2.8,1.1,2.8,3c0,1.9-1,3-2.8,3h-2.2v-6H39.7z M38.5,14h1.1c1.2,0,2-0.8,2-2.1
		c0-1.3-0.7-2.1-2-2.1h-1.1V14z"/>
	<path class="st2" d="M43.5,12.6c0-1.5,0.8-2.3,2.1-2.3c1.3,0,2.1,0.9,2.1,2.3c0,1.5-0.8,2.3-2.1,2.3C44.3,14.9,43.5,14,43.5,12.6z
		 M46.9,12.6c0-1-0.4-1.5-1.2-1.5c-0.8,0-1.2,0.6-1.2,1.5c0,1,0.4,1.6,1.2,1.6C46.4,14.1,46.9,13.6,46.9,12.6z"/>
	<path class="st2" d="M53.4,14.8h-0.9l-0.9-3.3h-0.1l-0.9,3.3h-0.9l-1.2-4.5h0.9l0.8,3.4h0.1l0.9-3.4H52l0.9,3.4H53l0.8-3.4h0.9
		L53.4,14.8z"/>
	<path class="st2" d="M55.7,10.3h0.9v0.7h0.1c0.2-0.5,0.7-0.8,1.3-0.8c1,0,1.6,0.6,1.6,1.7v2.9h-0.9v-2.7c0-0.7-0.3-1.1-1-1.1
		s-1.1,0.4-1.1,1.1v2.6h-0.9V10.3z"/>
	<path class="st2" d="M61,8.6h0.9v6.3H61V8.6z"/>
	<path class="st2" d="M63.1,12.6c0-1.5,0.8-2.3,2.1-2.3c1.3,0,2.1,0.9,2.1,2.3c0,1.5-0.8,2.3-2.1,2.3C63.9,14.9,63.1,14,63.1,12.6z
		 M66.4,12.6c0-1-0.4-1.5-1.2-1.5c-0.8,0-1.2,0.6-1.2,1.5c0,1,0.4,1.6,1.2,1.6C66,14.1,66.4,13.6,66.4,12.6z"/>
	<path class="st2" d="M68.3,13.6c0-0.8,0.6-1.3,1.7-1.3l1.2-0.1v-0.4c0-0.5-0.3-0.7-0.9-0.7c-0.5,0-0.8,0.2-0.9,0.5h-0.9
		c0.1-0.8,0.8-1.3,1.8-1.3c1.1,0,1.8,0.6,1.8,1.5v3.1h-0.9v-0.6h-0.1c-0.3,0.5-0.8,0.7-1.4,0.7C68.9,14.9,68.3,14.4,68.3,13.6z
		 M71.2,13.2v-0.4l-1.1,0.1c-0.6,0-0.9,0.3-0.9,0.6c0,0.4,0.4,0.6,0.8,0.6C70.7,14.2,71.2,13.7,71.2,13.2z"/>
	<path class="st2" d="M73.2,12.6c0-1.4,0.7-2.3,1.9-2.3c0.6,0,1.1,0.3,1.4,0.8h0.1V8.6h0.9v6.3h-0.9v-0.7h-0.1
		c-0.3,0.5-0.8,0.8-1.4,0.8C73.9,14.9,73.2,14,73.2,12.6z M74.1,12.6c0,1,0.5,1.5,1.2,1.5c0.7,0,1.2-0.6,1.2-1.5
		c0-0.9-0.5-1.5-1.2-1.5C74.6,11.1,74.1,11.6,74.1,12.6z"/>
</g>
</svg>
