<svg width="120" height="40" viewBox="0 0 120 40" fill="none" xmlns="http://www.w3.org/2000/svg">
<path d="M7.70305 40C7.39898 40 7.09492 40 6.79085 40C6.18271 40 5.57458 40 4.86508 39.7906C4.25695 39.6859 3.64881 39.4764 3.14203 39.267C2.63525 38.9529 2.12847 38.6387 1.72305 38.2199C1.31763 37.801 0.912203 37.2775 0.709492 36.7539C0.405424 36.2304 0.304068 35.7068 0.202712 34.9738C0.101356 34.2408 0 33.5079 0 32.9843C0 32.7749 0 32.0419 0 32.0419V7.8534C0 7.8534 0 7.12042 0 6.91099C0 6.38743 -1.51032e-08 5.65445 0.202712 4.92147C0.405424 4.39791 0.50678 3.76963 0.810847 3.24607C1.11492 2.72251 1.41898 2.19895 1.82441 1.7801C2.22983 1.36126 2.73661 1.04712 3.24339 0.732984C3.75017 0.418848 4.3583 0.314136 4.96644 0.209424C5.57458 4.68099e-08 6.28407 0 6.79085 0H7.70305H111.897H112.809C113.316 0 114.025 4.68099e-08 114.735 0.209424C115.343 0.314136 115.85 0.52356 116.458 0.732984C116.965 1.04712 117.472 1.36126 117.877 1.7801C118.282 2.19895 118.688 2.72251 118.891 3.24607C119.195 3.76963 119.296 4.39791 119.397 4.92147C119.499 5.54974 119.6 6.28272 119.6 6.91099C119.6 7.22513 119.6 7.53927 119.6 7.8534C119.6 8.27225 119.6 8.58639 119.6 9.00524V30.8901C119.6 31.3089 119.6 31.623 119.6 32.0419C119.6 32.356 119.6 32.6702 119.6 32.9843C119.6 33.6126 119.499 34.2408 119.397 34.9738C119.296 35.6021 119.093 36.2304 118.891 36.7539C118.586 37.2775 118.282 37.801 117.877 38.2199C117.472 38.6387 116.965 39.0576 116.458 39.267C115.951 39.5812 115.444 39.6859 114.735 39.7906C114.127 39.8953 113.417 39.8953 112.809 40C112.505 40 112.201 40 111.897 40H110.782H7.70305Z" fill="#000001"/>
<path d="M42 15.8974V8.5641H43.9692C46.2289 8.5641 47.3269 10.0205 47.3269 12.1538V12.2462C47.3269 14.3795 46.2289 15.8974 43.9511 15.8974H42ZM43.207 14.8205H43.9148C45.3668 14.8205 46.0655 13.8769 46.0655 12.2564V12.1744C46.0655 10.5949 45.4303 9.64102 43.9057 9.64102H43.207V14.8205ZM51.1454 16C49.7478 16 48.7133 14.9026 48.7133 13.2718V13.1897C48.7133 11.5282 49.7569 10.4205 51.1544 10.4205C52.5429 10.4205 53.5865 11.5179 53.5865 13.159V13.241C53.5865 14.9128 52.5429 16 51.1454 16ZM51.1544 15.0359C51.9712 15.0359 52.4612 14.3487 52.4612 13.2513V13.1795C52.4612 12.0718 51.9712 11.3949 51.1544 11.3949C50.3377 11.3949 49.8386 12.0615 49.8386 13.1692V13.2513C49.8386 14.3487 50.3195 15.0359 51.1544 15.0359ZM56.0618 15.8974L54.6098 10.5333H55.7805L56.7243 14.4103L57.7316 10.5333H58.6482L59.5738 14.4103L60.5629 10.5333H61.6338L60.1455 15.8974H59.0293L58.149 12.2872L57.1871 15.8974H56.0618ZM63.1109 15.8974V10.5333H64.2089V11.3846C64.4358 10.8615 64.9622 10.4205 65.7426 10.4205C66.6954 10.4205 67.367 11.0462 67.367 12.5231V15.8974H66.2689V12.6359C66.2689 11.8256 65.9785 11.4564 65.3251 11.4564C64.7081 11.4564 64.2089 11.8872 64.2089 12.7385V15.8974H63.1109ZM69.2978 15.8974V8.05128H70.3959V15.8974H69.2978ZM74.4866 16C73.089 16 72.0545 14.9026 72.0545 13.2718V13.1897C72.0545 11.5282 73.0981 10.4205 74.4956 10.4205C75.8841 10.4205 76.9277 11.5179 76.9277 13.159V13.241C76.9277 14.9128 75.8841 16 74.4866 16ZM74.4956 15.0359C75.3124 15.0359 75.8024 14.3487 75.8024 13.2513V13.1795C75.8024 12.0718 75.3124 11.3949 74.4956 11.3949C73.6789 11.3949 73.1798 12.0615 73.1798 13.1692V13.2513C73.1798 14.3487 73.6607 15.0359 74.4956 15.0359ZM80.0655 15.1077C80.737 15.1077 81.2361 14.7077 81.2361 14.0205V13.4872H80.6735C79.8386 13.4872 79.3032 13.7026 79.3032 14.359C79.3032 14.8103 79.521 15.1077 80.0655 15.1077ZM79.8023 16C78.9311 16 78.2142 15.5282 78.2142 14.4103C78.2142 13.159 79.285 12.7077 80.6463 12.7077H81.2361V12.4308C81.2361 11.7128 81.0183 11.3538 80.374 11.3538C79.8023 11.3538 79.521 11.6615 79.4666 12.1949H78.4048C78.4955 10.9436 79.3758 10.4205 80.4376 10.4205C81.4993 10.4205 82.3342 10.9128 82.3342 12.3795V15.8974H81.2543V15.241C80.9457 15.7026 80.5283 16 79.8023 16ZM86.2887 15.0154C87.051 15.0154 87.6137 14.441 87.6137 13.241V13.159C87.6137 11.9795 87.1327 11.3949 86.3341 11.3949C85.5264 11.3949 85.0546 12.0308 85.0546 13.1897V13.2718C85.0546 14.4513 85.5809 15.0154 86.2887 15.0154ZM86.0165 16C84.8277 16 83.9293 15.0462 83.9293 13.3026V13.2205C83.9293 11.5077 84.8277 10.4205 86.0619 10.4205C86.8332 10.4205 87.3142 10.8205 87.5774 11.3538V8.05128H88.6754V15.8974H87.5774V14.9949C87.3233 15.5282 86.7153 16 86.0165 16ZM93.617 15.8974V11.4667H92.9727V10.5333H93.617V9.81538C93.617 8.6359 94.1978 8 95.2142 8C95.4774 8 95.6407 8.03077 95.8404 8.10256V9.06667C95.7133 9.01538 95.5409 8.97436 95.3412 8.97436C94.8966 8.97436 94.7151 9.30256 94.7151 9.7641V10.5333H95.795V11.4667H94.7151V15.8974H93.617ZM99.2867 16C97.8892 16 96.8547 14.9026 96.8547 13.2718V13.1897C96.8547 11.5282 97.8983 10.4205 99.2958 10.4205C100.684 10.4205 101.728 11.5179 101.728 13.159V13.241C101.728 14.9128 100.684 16 99.2867 16ZM99.2958 15.0359C100.113 15.0359 100.603 14.3487 100.603 13.2513V13.1795C100.603 12.0718 100.113 11.3949 99.2958 11.3949C98.479 11.3949 97.9799 12.0615 97.9799 13.1692V13.2513C97.9799 14.3487 98.4609 15.0359 99.2958 15.0359ZM103.359 15.8974V10.5333H104.457V11.5385C104.757 10.8615 105.201 10.4615 106 10.4513V11.6103C105.038 11.6205 104.457 11.9692 104.457 13.1077V15.8974H103.359Z" fill="white"/>
<path d="M43.7642 30.8452L41 19.7742H43.112L45.0376 27.9032L47.1962 19.7742H48.9045L51.1096 27.9497L53.0974 19.7742H55.023L52.2433 30.8452H50.1779L47.9882 22.7781L45.7365 30.8452H43.7642ZM57.0538 21.4155C56.4326 21.4155 55.9357 20.951 55.9357 20.3471C55.9357 19.7277 56.4326 19.2632 57.0538 19.2632C57.675 19.2632 58.1719 19.7277 58.1719 20.3471C58.1719 20.951 57.675 21.4155 57.0538 21.4155ZM56.1376 30.8452V22.7471H58.0166V30.8452H56.1376ZM60.0008 30.8452V22.7471H61.8798V24.0323C62.2681 23.2426 63.1688 22.5768 64.5043 22.5768C66.1349 22.5768 67.2841 23.5213 67.2841 25.751V30.8452H65.405V25.9213C65.405 24.6981 64.9081 24.1406 63.79 24.1406C62.734 24.1406 61.8798 24.791 61.8798 26.0761V30.8452H60.0008ZM72.6537 29.5135C73.9581 29.5135 74.9209 28.6465 74.9209 26.8348V26.711C74.9209 24.9303 74.0979 24.0477 72.7313 24.0477C71.3492 24.0477 70.5417 25.0077 70.5417 26.7574V26.8813C70.5417 28.6619 71.4424 29.5135 72.6537 29.5135ZM72.1878 31C70.1534 31 68.616 29.56 68.616 26.9277V26.8039C68.616 24.2181 70.1534 22.5768 72.2654 22.5768C73.5854 22.5768 74.4085 23.1806 74.8588 23.9858V19H76.7379V30.8452H74.8588V29.4826C74.424 30.2877 73.3835 31 72.1878 31ZM82.2938 31C79.9023 31 78.1319 29.3432 78.1319 26.8813V26.7574C78.1319 24.249 79.9178 22.5768 82.3093 22.5768C84.6853 22.5768 86.4712 24.2335 86.4712 26.711V26.8348C86.4712 29.3587 84.6853 31 82.2938 31ZM82.3093 29.5445C83.707 29.5445 84.5456 28.5071 84.5456 26.8503V26.7419C84.5456 25.0697 83.707 24.0477 82.3093 24.0477C80.9117 24.0477 80.0576 25.0542 80.0576 26.7265V26.8503C80.0576 28.5071 80.8806 29.5445 82.3093 29.5445ZM89.3095 30.8452L86.8248 22.7471H88.8281L90.4431 28.6L92.1669 22.7471H93.7354L95.3194 28.6L97.0121 22.7471H98.8445L96.2977 30.8452H94.3876L92.8813 25.3948L91.2352 30.8452H89.3095ZM102.754 31C100.658 31 99.4311 30.04 99.3534 28.3213H101.124C101.217 29.1419 101.636 29.6219 102.739 29.6219C103.748 29.6219 104.199 29.2658 104.199 28.5845C104.199 27.9187 103.655 27.671 102.459 27.4697C100.316 27.129 99.5243 26.5252 99.5243 25.0077C99.5243 23.3819 101.046 22.5768 102.568 22.5768C104.23 22.5768 105.55 23.1961 105.752 25.0232H104.012C103.857 24.28 103.438 23.9394 102.568 23.9394C101.76 23.9394 101.279 24.3265 101.279 24.8994C101.279 25.4877 101.667 25.72 102.956 25.9368C104.866 26.231 106 26.6955 106 28.4142C106 30.0555 104.835 31 102.754 31Z" fill="white"/>
<path d="M23.0951 7.77588H12.1626V19.0179H23.0951V7.77588Z" fill="#F25022"/>
<path d="M35.1622 7.77588H24.2297V19.0179H35.1622V7.77588Z" fill="#7FBA00"/>
<path d="M23.0951 20.1714H12.1626V31.4134H23.0951V20.1714Z" fill="#00A4EF"/>
<path d="M35.1622 20.1714H24.2297V31.4134H35.1622V20.1714Z" fill="#FFB900"/>
</svg>
