<svg class="animated" id="freepik_stories-remote-meeting" xmlns="http://www.w3.org/2000/svg" viewBox="0 0 500 500" version="1.1" xmlns:xlink="http://www.w3.org/1999/xlink" xmlns:svgjs="http://svgjs.com/svgjs"><style>svg#freepik_stories-remote-meeting:not(.animated) .animable {opacity: 0;}svg#freepik_stories-remote-meeting.animated #freepik--Window--inject-61 {animation: 1.5s Infinite  linear floating;animation-delay: 0s;}            @keyframes floating {                0% {                    opacity: 1;                    transform: translateY(0px);                }                50% {                    transform: translateY(-10px);                }                100% {                    opacity: 1;                    transform: translateY(0px);                }            }        </style><g id="freepik--background-complete--inject-61" style="transform-origin: 250px 228.229996px;" class="animable"><rect y="382.4" width="500" height="0.25" style="fill: rgb(235, 235, 235); transform-origin: 250px 382.525px;" id="elpu4l2x0dv3h" class="animable"></rect><rect x="416.78" y="398.49" width="33.12" height="0.25" style="fill: rgb(235, 235, 235); transform-origin: 433.34px 398.615px;" id="el1r5nu7fmfov" class="animable"></rect><rect x="322.53" y="401.21" width="8.69" height="0.25" style="fill: rgb(235, 235, 235); transform-origin: 326.875px 401.335px;" id="elqk9ngoong" class="animable"></rect><rect x="396.59" y="389.21" width="19.19" height="0.25" style="fill: rgb(235, 235, 235); transform-origin: 406.185px 389.335px;" id="elcczzxq5ovr9" class="animable"></rect><rect x="52.46" y="390.89" width="43.19" height="0.25" style="fill: rgb(235, 235, 235); transform-origin: 74.055px 391.015px;" id="elhgiqdu9obts" class="animable"></rect><rect x="104.56" y="390.89" width="6.33" height="0.25" style="fill: rgb(235, 235, 235); transform-origin: 107.725px 391.015px;" id="elt5g8yhlowv" class="animable"></rect><rect x="131.47" y="395.11" width="93.68" height="0.25" style="fill: rgb(235, 235, 235); transform-origin: 178.31px 395.235px;" id="elv2osqt4eape" class="animable"></rect><path d="M237,337.8H43.91a5.71,5.71,0,0,1-5.7-5.71V60.66A5.71,5.71,0,0,1,43.91,55H237a5.71,5.71,0,0,1,5.71,5.71V332.09A5.71,5.71,0,0,1,237,337.8ZM43.91,55.2a5.46,5.46,0,0,0-5.45,5.46V332.09a5.46,5.46,0,0,0,5.45,5.46H237a5.47,5.47,0,0,0,5.46-5.46V60.66A5.47,5.47,0,0,0,237,55.2Z" style="fill: rgb(235, 235, 235); transform-origin: 140.459999px 196.400009px;" id="elu4qgkgsi2lm" class="animable"></path><path d="M453.31,337.8H260.21a5.72,5.72,0,0,1-5.71-5.71V60.66A5.72,5.72,0,0,1,260.21,55h193.1A5.71,5.71,0,0,1,459,60.66V332.09A5.71,5.71,0,0,1,453.31,337.8ZM260.21,55.2a5.47,5.47,0,0,0-5.46,5.46V332.09a5.47,5.47,0,0,0,5.46,5.46h193.1a5.47,5.47,0,0,0,5.46-5.46V60.66a5.47,5.47,0,0,0-5.46-5.46Z" style="fill: rgb(235, 235, 235); transform-origin: 356.75px 196.399994px;" id="ellrue46dn7fg" class="animable"></path><path d="M309.49,376.57H288.38l11.1-90.37a8.06,8.06,0,0,1,7.77-6.93h92.1l-13.5,97.3Z" style="fill: rgb(245, 245, 245); transform-origin: 343.865005px 327.920013px;" id="el1sfua9z2jf1" class="animable"></path><path d="M376.43,376.57h21.11l11.1-90.37a6,6,0,0,0-6.08-6.93h-7.25a8.06,8.06,0,0,0-7.78,6.93Z" style="fill: rgb(240, 240, 240); transform-origin: 392.571426px 327.919037px;" id="elo9avdal3yn" class="animable"></path><path d="M368.66,376.47l3.82-43.72A4.17,4.17,0,0,1,376.1,329l1.58-.2a5.59,5.59,0,0,0,4.86-5l.69-8a5.59,5.59,0,0,0-5.56-6.08h35.27a5.59,5.59,0,0,1,5.57,6.08l-.7,8a5.58,5.58,0,0,1-4.86,5l-1.57.2a4.17,4.17,0,0,0-3.62,3.77l-3.83,43.72a6.17,6.17,0,0,1-6.14,5.63H362.51A6.18,6.18,0,0,0,368.66,376.47Z" style="fill: rgb(230, 230, 230); transform-origin: 390.520752px 345.919998px;" id="el2z38h00qpj" class="animable"></path><path d="M271.58,321.81a13.29,13.29,0,0,0-13.24-12.13h30.71a13.29,13.29,0,0,1,13.24,12.13l3,34.65H274.61Z" style="fill: rgb(230, 230, 230); transform-origin: 281.814987px 333.069992px;" id="eli5v35mr4d98" class="animable"></path><path d="M244.7,309.68h13.64a13.29,13.29,0,0,1,13.24,12.13l3,34.65h73.14l3-34.65A13.3,13.3,0,0,1,364,309.68h13.65a5.59,5.59,0,0,1,5.56,6.08l-.69,8a5.59,5.59,0,0,1-4.86,5l-1.58.2a4.17,4.17,0,0,0-3.62,3.77l-3.82,43.72a6.18,6.18,0,0,1-6.15,5.63H259.85a6.17,6.17,0,0,1-6.14-5.63l-3.83-43.72a4.17,4.17,0,0,0-3.62-3.77l-1.57-.2a5.58,5.58,0,0,1-4.86-5l-.7-8A5.59,5.59,0,0,1,244.7,309.68Z" style="fill: rgb(240, 240, 240); transform-origin: 311.169991px 345.879974px;" id="el3q1usielr5b" class="animable"></path><path d="M92.51,131.35s-1.17-7.73,4.46-12.68,5.14-7.9,3.53-8.29-3.09,4.57-5.57,5.93c0,0-.08-7.06,2.44-9.66s3.84-9.3,1.44-9.41-2.64,4-3.14,6.88-3.16,7-3.16,7-.52-6.31-2.15-8.92,2.71-8.54,1-11.14S86.76,93.4,87,99s4,11.52,3.1,17.34c0,0-1.64-4.08-3.11-4.45s-3-3.08-3.95-4.08-2.23,2.47,0,5.69S91,125.3,90.1,132.26Z" style="fill: rgb(230, 230, 230); transform-origin: 91.689369px 111.303677px;" id="eljy2iz0yknn" class="animable"></path><path d="M95.88,127.83l1.85,11.58a5.9,5.9,0,0,1-5.82,6.82h-2a5.89,5.89,0,0,1-5.81-6.82L86,127.83Z" style="fill: rgb(230, 230, 230); transform-origin: 90.914135px 137.030006px;" id="el43pon4kbn6a" class="animable"></path><g id="elstii1kyqnzg"><rect x="67.97" y="141.95" width="130.44" height="6.7" style="fill: rgb(224, 224, 224); transform-origin: 133.19px 145.3px; transform: rotate(180deg);" class="animable" id="elza3c5yhe6qr"></rect></g><g id="elk69bksoj6l"><rect x="186.66" y="117.25" width="5.75" height="24.7" style="fill: rgb(235, 235, 235); transform-origin: 189.535px 129.6px; transform: rotate(180deg);" class="animable" id="elwtujffw1n6"></rect></g><g id="ellkrwzogocej"><rect x="158.87" y="117.25" width="5.75" height="24.7" style="fill: rgb(235, 235, 235); transform-origin: 161.745px 129.6px; transform: rotate(180deg);" class="animable" id="elsojkn94jt9p"></rect></g><g id="elw52gb7obm9n"><rect x="125.19" y="116.94" width="5.75" height="24.7" style="fill: rgb(235, 235, 235); transform-origin: 128.065px 129.29px; transform: rotate(-170.22deg);" class="animable" id="elblbc4s8tzzg"></rect></g><g id="elgwdpum7a1wp"><rect x="179.54" y="120.5" width="5.75" height="21.45" style="fill: rgb(235, 235, 235); transform-origin: 182.415px 131.225px; transform: rotate(180deg);" class="animable" id="elar0pkz28ty5"></rect></g><g id="elpaozhm67it"><rect x="166.33" y="120.5" width="5.75" height="21.45" style="fill: rgb(235, 235, 235); transform-origin: 169.205px 131.225px; transform: rotate(180deg);" class="animable" id="el8pttpqbr9w8"></rect></g><g id="elyswjuolqqfp"><rect x="132.99" y="120.5" width="5.75" height="21.45" style="fill: rgb(235, 235, 235); transform-origin: 135.865px 131.225px; transform: rotate(180deg);" class="animable" id="el59pif94gbgl"></rect></g><g id="elqrtmerrq9c"><rect x="148.93" y="120.14" width="5.75" height="21.45" style="fill: rgb(235, 235, 235); transform-origin: 151.805px 130.865px; transform: rotate(-167.47deg);" class="animable" id="ell9wfhhrr6c8"></rect></g><g id="el0nm726tq35th"><rect x="174.57" y="116.02" width="2.87" height="25.93" style="fill: rgb(235, 235, 235); transform-origin: 176.005px 128.985px; transform: rotate(180deg);" class="animable" id="eldot1h8ghjku"></rect></g><g id="eldkmtxxpofwg"><rect x="140.39" y="116.02" width="2.87" height="25.93" style="fill: rgb(235, 235, 235); transform-origin: 141.825px 128.985px; transform: rotate(180deg);" class="animable" id="el0yxf2wtxb1h"></rect></g><rect x="67.97" y="191.98" width="130.44" height="6.7" style="fill: rgb(224, 224, 224); transform-origin: 133.19px 195.33px;" id="el436983ykw0l" class="animable"></rect><rect x="73.97" y="167.28" width="5.75" height="24.7" style="fill: rgb(235, 235, 235); transform-origin: 76.845px 179.63px;" id="el97nrf13d526" class="animable"></rect><rect x="101.76" y="167.28" width="5.75" height="24.7" style="fill: rgb(235, 235, 235); transform-origin: 104.635px 179.63px;" id="elmgzn1897l8l" class="animable"></rect><g id="elioepceb66m"><rect x="135.44" y="166.97" width="5.75" height="24.7" style="fill: rgb(235, 235, 235); transform-origin: 138.315px 179.32px; transform: rotate(-9.78deg);" class="animable" id="el95c5z9ox70k"></rect></g><rect x="81.09" y="170.54" width="5.75" height="21.45" style="fill: rgb(235, 235, 235); transform-origin: 83.965px 181.265px;" id="el1u1y6pdekesi" class="animable"></rect><rect x="94.3" y="170.54" width="5.75" height="21.45" style="fill: rgb(235, 235, 235); transform-origin: 97.175px 181.265px;" id="eltqa8u4z3qhg" class="animable"></rect><rect x="127.64" y="170.54" width="5.75" height="21.45" style="fill: rgb(235, 235, 235); transform-origin: 130.515px 181.265px;" id="el22tzm1960ix" class="animable"></rect><g id="eldi47ns2uqa"><rect x="111.7" y="170.17" width="5.75" height="21.45" style="fill: rgb(235, 235, 235); transform-origin: 114.575px 180.895px; transform: rotate(-12.53deg);" class="animable" id="elcv17a89zqc8"></rect></g><rect x="88.94" y="166.05" width="2.87" height="25.93" style="fill: rgb(235, 235, 235); transform-origin: 90.375px 179.015px;" id="elfhfp0v0sn5s" class="animable"></rect><rect x="123.12" y="166.05" width="2.87" height="25.93" style="fill: rgb(235, 235, 235); transform-origin: 124.555px 179.015px;" id="elqta865bx1dj" class="animable"></rect><rect x="157.89" y="172.43" width="28" height="19.33" style="fill: rgb(235, 235, 235); transform-origin: 171.89px 182.095px;" id="elv9iuwqq939d" class="animable"></rect><rect x="298.14" y="124.21" width="112.19" height="124.08" style="fill: rgb(224, 224, 224); transform-origin: 354.235px 186.25px;" id="eli6y0ftg1ix" class="animable"></rect><rect x="297.55" y="124.21" width="116.36" height="124.08" style="fill: rgb(240, 240, 240); transform-origin: 355.73px 186.25px;" id="elbesrnef75z9" class="animable"></rect><rect x="302.29" y="128.17" width="106.7" height="114.42" style="fill: rgb(255, 255, 255); transform-origin: 355.64px 185.38px;" id="el4rg44ztrltd" class="animable"></rect><rect x="405.9" y="128.17" width="3.09" height="114.42" style="fill: rgb(224, 224, 224); transform-origin: 407.445px 185.38px;" id="el58v4xqcqbbj" class="animable"></rect><g id="eljz7polbyv1"><rect x="352.58" y="159.88" width="3.09" height="104.22" style="fill: rgb(224, 224, 224); transform-origin: 354.125px 211.99px; transform: rotate(-90deg);" class="animable" id="el1f0ziv8xf9j"></rect></g><rect x="300.63" y="205.27" width="108.36" height="5.18" style="fill: rgb(240, 240, 240); transform-origin: 354.81px 207.86px;" id="elbfm4mwh9rbp" class="animable"></rect></g><g id="freepik--Shadow--inject-61" style="transform-origin: 250px 416.239983px;" class="animable"><ellipse id="freepik--path--inject-61" cx="250" cy="416.24" rx="193.89" ry="11.32" style="fill: rgb(245, 245, 245); transform-origin: 250px 416.24px;" class="animable"></ellipse></g><g id="freepik--trash-bin--inject-61" style="transform-origin: 314.89003px 397.624985px;" class="animable"><path d="M327.17,399.75a2.12,2.12,0,0,0-1.7-3,4.53,4.53,0,0,0-1.44-5,1.07,1.07,0,0,0-.62-.28,1.17,1.17,0,0,0-.67.3l-4,2.84a2.42,2.42,0,0,0-.78.78c-.81,1.57,2.1,3.58.9,4.87-.34.37-.89.45-1.32.72-.95.59-1.06,1.88-1.5,2.9s-2,1.82-2.56.87c.43-1-.87-1.82-1.94-1.94s-2.17-.19-2.76-1.18c-1.51,1.31-4.89-2.37-4.81-3.85a2.91,2.91,0,0,0-2.36,2.42,17.54,17.54,0,0,0-.13,3.7c0,2.4-.81,4.75-.77,7.15,0,1.87.76,3.95,2.47,4.7a6.6,6.6,0,0,0,2.66.36l19.49-.13a3,3,0,0,0,1.37-.22c.88-.46,1.06-1.62,1.14-2.61l1.05-12.7Z" style="fill: #009CD5; transform-origin: 314.799271px 403.798141px;" id="elafoid0xb5nv" class="animable"></path><g id="elkwwmu1fdfc"><path d="M327.17,399.75a2.12,2.12,0,0,0-1.7-3,4.53,4.53,0,0,0-1.44-5,1.07,1.07,0,0,0-.62-.28,1.17,1.17,0,0,0-.67.3l-4,2.84a2.42,2.42,0,0,0-.78.78c-.81,1.57,2.1,3.58.9,4.87-.34.37-.89.45-1.32.72-.95.59-1.06,1.88-1.5,2.9s-2,1.82-2.56.87c.43-1-.87-1.82-1.94-1.94s-2.17-.19-2.76-1.18c-1.51,1.31-4.89-2.37-4.81-3.85a2.91,2.91,0,0,0-2.36,2.42,17.54,17.54,0,0,0-.13,3.7c0,2.4-.81,4.75-.77,7.15,0,1.87.76,3.95,2.47,4.7a6.6,6.6,0,0,0,2.66.36l19.49-.13a3,3,0,0,0,1.37-.22c.88-.46,1.06-1.62,1.14-2.61l1.05-12.7Z" style="fill: rgb(255, 255, 255); opacity: 0.3; isolation: isolate; transform-origin: 314.799271px 403.798141px;" class="animable" id="eleaqvvze5jea"></path></g><path d="M328.3,379.15H298.06l.25,3.06.18,2.18.46,5.67.26,3.27.35,4.34.15,1.86.05.55.18,2.19.24,3,.15,1.86.15,1.89.18,2.19.14,1.66.15,1.86.06.81h27.75l.07-.81.15-1.86.13-1.67.18-2.19.16-1.88.15-1.86.24-3,.18-2.18,0-.55.15-1.86.35-4.34.27-3.26.45-5.68.18-2.18.25-3.06Zm1.82,2h0l-.58-.58h.63ZM330,383l-.05.74-2.71,2.7-3.11-3.1,2.78-2.78h.66Zm-.78,9.68-2,2-3.11-3.11,3.11-3.09,2.14,2.14Zm-28.78-2.08h0l2.15-2.14,3.1,3.09-3.1,3.11-2-2Zm25.8-3.15-3.11,3.1-3.1-3.1,3.1-3.11Zm-4.88-6.89h3.55l-1.78,1.78Zm.76,11-3.1,3.11-3.1-3.11,3.1-3.09Zm-10.31,4.11,3.11-3.1,3.1,3.1-3.1,3.11Zm2.1,4.11-3.11,3.1-3.09-3.1,3.1-3.1Zm5.11-3.1,3.1,3.1-3.1,3.1-3.1-3.1Zm-4.1-6.12-3.11-3.1,3.11-3.11,3.1,3.11Zm-1,1-3.1,3.11-3.1-3.11,3.1-3.09Zm-7.21-1-3.1-3.1,3.1-3.11,3.1,3.11Zm0,2,3.1,3.1-3.1,3.11-3.1-3.11Zm3.1,11.32-3.1,3.1-3.1-3.1,3.1-3.1Zm1,1,3.11,3.11-3.1,3.1-3.1-3.1Zm1-1,3.11-3.1,3.1,3.1-3.1,3.1Zm7.21,1,3.1,3.11-3.1,3.1-3.1-3.1ZM323.1,409l3.11,3.11-2,2H322l-2-2Zm-3.1-5.11,3.1-3.1,3.11,3.1L323.1,407Zm0-8.22,3.1-3.1,3.11,3.1-3.11,3.11Zm2.09-12.32-3.1,3.1-3.1-3.1,2.78-2.78h.65Zm-7.2-1-1.78-1.78h3.55Zm-1,1-3.1,3.1-3.1-3.1,2.77-2.78h.66Zm-5.44-2.78-1.77,1.78-1.77-1.78Zm-5.55,0,2.77,2.78-3.1,3.1-2.7-2.7-.06-.74,2.43-2.44Zm-2.66,0-.58.58h0l0-.58Zm-.19,5.37,1.52,1.52-1.3,1.29Zm.84,10.41-.12-1.47h0l.8.8-.68.68Zm.15,1.86,1.53-1.53,3.1,3.1-3.1,3.1-1.25-1.25Zm.46,5.75v-.14l.07.07-.07.07Zm.54,6.61-.39-4.76.92-.92,3.1,3.11-3.1,3.1-.53-.53Zm.29,3.55-.06-.71.3-.3,1,1Zm1.25-2,3.1-3.11,3.1,3.11-2,2h-2.19Zm6.2,2,1-1,1,1Zm4,0-2-2,3.11-3.11,3.1,3.11-2,2Zm4.2,0,1-1,1,1Zm9.46,0H326.2l1-1,.3.3Zm.29-3.55-.53.53L324.1,408l3.11-3.11.92.92Zm.55-6.76,0,.15-.06-.07.08-.08Zm.18-2.18-1.26,1.25-3.11-3.1,3.11-3.1,1.53,1.53Zm.42-5.28-.68-.68.8-.79Zm.85-10.42-.23,2.83-1.3-1.3,1.53-1.53Z" style="fill: #009CD5; transform-origin: 314.86496px 397.344971px;" id="eldzqt9os9bp7" class="animable"></path><g id="el58wl76x10vf"><g style="opacity: 0.6; isolation: isolate; transform-origin: 314.86496px 397.344971px;" class="animable" id="eli498p5n23ps"><path d="M328.3,379.15H298.06l.25,3.06.18,2.18.46,5.67.26,3.27.35,4.34.15,1.86.05.55.18,2.19.24,3,.15,1.86.15,1.89.18,2.19.14,1.66.15,1.86.06.81h27.75l.07-.81.15-1.86.13-1.67.18-2.19.16-1.88.15-1.86.24-3,.18-2.18,0-.55.15-1.86.35-4.34.27-3.26.45-5.68.18-2.18.25-3.06Zm1.82,2h0l-.58-.58h.63ZM330,383l-.05.74-2.71,2.7-3.11-3.1,2.78-2.78h.66Zm-.78,9.68-2,2-3.11-3.11,3.11-3.09,2.14,2.14Zm-28.78-2.08h0l2.15-2.14,3.1,3.09-3.1,3.11-2-2Zm25.8-3.15-3.11,3.1-3.1-3.1,3.1-3.11Zm-4.88-6.89h3.55l-1.78,1.78Zm.76,11-3.1,3.11-3.1-3.11,3.1-3.09Zm-10.31,4.11,3.11-3.1,3.1,3.1-3.1,3.11Zm2.1,4.11-3.11,3.1-3.09-3.1,3.1-3.1Zm5.11-3.1,3.1,3.1-3.1,3.1-3.1-3.1Zm-4.1-6.12-3.11-3.1,3.11-3.11,3.1,3.11Zm-1,1-3.1,3.11-3.1-3.11,3.1-3.09Zm-7.21-1-3.1-3.1,3.1-3.11,3.1,3.11Zm0,2,3.1,3.1-3.1,3.11-3.1-3.11Zm3.1,11.32-3.1,3.1-3.1-3.1,3.1-3.1Zm1,1,3.11,3.11-3.1,3.1-3.1-3.1Zm1-1,3.11-3.1,3.1,3.1-3.1,3.1Zm7.21,1,3.1,3.11-3.1,3.1-3.1-3.1ZM323.1,409l3.11,3.11-2,2H322l-2-2Zm-3.1-5.11,3.1-3.1,3.11,3.1L323.1,407Zm0-8.22,3.1-3.1,3.11,3.1-3.11,3.11Zm2.09-12.32-3.1,3.1-3.1-3.1,2.78-2.78h.65Zm-7.2-1-1.78-1.78h3.55Zm-1,1-3.1,3.1-3.1-3.1,2.77-2.78h.66Zm-5.44-2.78-1.77,1.78-1.77-1.78Zm-5.55,0,2.77,2.78-3.1,3.1-2.7-2.7-.06-.74,2.43-2.44Zm-2.66,0-.58.58h0l0-.58Zm-.19,5.37,1.52,1.52-1.3,1.29Zm.84,10.41-.12-1.47h0l.8.8-.68.68Zm.15,1.86,1.53-1.53,3.1,3.1-3.1,3.1-1.25-1.25Zm.46,5.75v-.14l.07.07-.07.07Zm.54,6.61-.39-4.76.92-.92,3.1,3.11-3.1,3.1-.53-.53Zm.29,3.55-.06-.71.3-.3,1,1Zm1.25-2,3.1-3.11,3.1,3.11-2,2h-2.19Zm6.2,2,1-1,1,1Zm4,0-2-2,3.11-3.11,3.1,3.11-2,2Zm4.2,0,1-1,1,1Zm9.46,0H326.2l1-1,.3.3Zm.29-3.55-.53.53L324.1,408l3.11-3.11.92.92Zm.55-6.76,0,.15-.06-.07.08-.08Zm.18-2.18-1.26,1.25-3.11-3.1,3.11-3.1,1.53,1.53Zm.42-5.28-.68-.68.8-.79Zm.85-10.42-.23,2.83-1.3-1.3,1.53-1.53Z" style="fill: rgb(255, 255, 255); transform-origin: 314.86496px 397.344971px;" id="elf904b1n6r8r" class="animable"></path></g></g><g id="ela29q64wjvvm"><rect x="296.13" y="377.88" width="37.52" height="3.96" rx="1.64" style="fill: #009CD5; transform-origin: 314.89px 379.86px; transform: rotate(180deg);" class="animable" id="elg755gw5wiuc"></rect></g><rect x="298.83" y="413.41" width="32.11" height="3.96" rx="1.64" style="fill: #009CD5; transform-origin: 314.885px 415.39px;" id="elmkkf3j3dhv" class="animable"></rect></g><g id="freepik--Window--inject-61" style="transform-origin: 305.389999px 187.114998px;" class="animable"><rect x="177.23" y="93.51" width="256.32" height="187.21" rx="4.13" style="fill: #009CD5; transform-origin: 305.39px 187.115px;" id="elq5yd3akq6q" class="animable"></rect><g id="elxexpxfc1yvm"><rect x="177.23" y="103.63" width="256.32" height="168.98" style="opacity: 0.4; isolation: isolate; transform-origin: 305.39px 188.12px;" class="animable" id="elkbichxpintt"></rect></g><circle cx="427.55" cy="98.44" r="2.41" style="fill: rgb(255, 255, 255); transform-origin: 427.55px 98.44px;" id="elu1umpxl7zgg" class="animable"></circle><circle cx="419.42" cy="98.44" r="2.41" style="fill: rgb(255, 255, 255); transform-origin: 419.42px 98.44px;" id="elcbgi69oh2mw" class="animable"></circle><circle cx="411.29" cy="98.44" r="2.41" style="fill: rgb(255, 255, 255); transform-origin: 411.29px 98.44px;" id="eluna2nc3umvo" class="animable"></circle><rect x="178.18" y="191.45" width="83.29" height="72.98" style="fill: rgb(38, 50, 56); transform-origin: 219.825px 227.94px;" id="elarytln8tbl" class="animable"></rect><rect x="178.18" y="116.86" width="83.29" height="72.98" style="fill: rgb(38, 50, 56); transform-origin: 219.825px 153.35px;" id="elavwjwk23wer" class="animable"></rect><rect x="263.38" y="116.86" width="83.29" height="72.98" style="fill: #009CD5; transform-origin: 305.025px 153.35px;" id="el2wpstvhtny7" class="animable"></rect><rect x="348.59" y="116.86" width="83.29" height="72.98" style="fill: rgb(255, 255, 255); transform-origin: 390.235px 153.35px;" id="el0cpctl6vn4os" class="animable"></rect><rect x="263.38" y="191.45" width="83.29" height="72.98" style="fill: rgb(38, 50, 56); transform-origin: 305.025px 227.94px;" id="elbr90iriacj7" class="animable"></rect><rect x="348.59" y="191.45" width="83.29" height="72.98" style="fill: #009CD5; transform-origin: 390.235px 227.94px;" id="el5vfa1tmi9xk" class="animable"></rect><g id="freepik--group--inject-61" style="transform-origin: 390.240997px 154.731762px;" class="animable"><path d="M417.61,189.84l1.89-15.92a8.36,8.36,0,0,0-6.45-9.17c-21.62-4.81-34.52-.05-34.52-.05a100.39,100.39,0,0,0-11.11,25.14Z" style="fill: rgb(38, 50, 56); transform-origin: 393.491348px 176.219589px;" id="el5i6r2nppusl" class="animable"></path><path d="M402,164.06a31.15,31.15,0,0,1,5.58-.11c-4.7-3.93-2.37-13.91-.46-19.33l-14.53,8.21a15.51,15.51,0,0,1,.36,2.11,7.38,7.38,0,0,1-.44,3.76,12.23,12.23,0,0,1-3.45,3.9l5.82,2.59Z" style="fill: rgb(228, 137, 123); transform-origin: 398.319992px 154.904991px;" id="el67dqyzs6r8" class="animable"></path><g id="elyofr2qeloo"><path d="M403.79,149.84c-.58,6.66-7.74,8.49-11.25,8.86a7.38,7.38,0,0,0,.44-3.76Z" style="opacity: 0.2; isolation: isolate; transform-origin: 398.165009px 154.269997px;" class="animable" id="elps0evl9a8c"></path></g><path d="M384.68,129.69s-1.14,9.47,4.36,13.46S393.35,124,393.35,124Z" style="fill: rgb(38, 50, 56); transform-origin: 389.020325px 133.806244px;" id="el8ko0o1w1mci" class="animable"></path><path d="M406,149.7a12.27,12.27,0,0,1-1,1.68,9.37,9.37,0,0,1-10,3.86,6.94,6.94,0,0,1-.78-.22,10.38,10.38,0,0,1-5.84-4.63c0-.07-.09-.16-.14-.23-.18-.32-.34-.65-.5-1a23.56,23.56,0,0,1-.81-2.25c-2-6.43-1.76-17.18,4.21-20.87,4.75-3,12.26-2,15.25,2.77.86,1.35-.1,4.88.05,6.47C407.15,141.74,407.87,145.85,406,149.7Z" style="fill: rgb(228, 137, 123); transform-origin: 396.496567px 139.925247px;" id="eleys4nzd69ln" class="animable"></path><path d="M395.64,139.24c.14.58-.13,1.13-.53,1.2s-.79-.37-.89-1,.13-1.14.52-1.2S395.53,138.64,395.64,139.24Z" style="fill: rgb(38, 50, 56); transform-origin: 394.936996px 139.341026px;" id="el0x1qzxqel7ld" class="animable"></path><path d="M388.88,140.39c.14.59-.14,1.14-.53,1.2s-.78-.37-.89-1,.14-1.14.52-1.2S388.78,139.83,388.88,140.39Z" style="fill: rgb(38, 50, 56); transform-origin: 388.175247px 140.490334px;" id="el5pcc7lk5zpe" class="animable"></path><path d="M391.08,140.32a21.5,21.5,0,0,1-2,5.6,3.54,3.54,0,0,0,3,.05Z" style="fill: rgb(222, 87, 83); transform-origin: 390.579971px 143.29953px;" id="eljs89d7glw6l" class="animable"></path><path d="M397.36,136.69a.38.38,0,0,1-.37-.08,2.89,2.89,0,0,0-2.44-.79.36.36,0,0,1-.43-.26.34.34,0,0,1,.26-.42h0a3.51,3.51,0,0,1,3.1,1,.36.36,0,0,1,0,.5h0A.42.42,0,0,1,397.36,136.69Z" style="fill: rgb(38, 50, 56); transform-origin: 395.844833px 135.898514px;" id="ellodhn05dmad" class="animable"></path><path d="M385.58,138.56a.38.38,0,0,1-.21.05.35.35,0,0,1-.24-.44h0a3.53,3.53,0,0,1,2.19-2.41.36.36,0,0,1,.44.24h0a.36.36,0,0,1-.24.44h0a2.88,2.88,0,0,0-1.7,1.93A.38.38,0,0,1,385.58,138.56Z" style="fill: rgb(38, 50, 56); transform-origin: 386.443848px 137.178688px;" id="el3tira6e89bu" class="animable"></path><path d="M409.24,130.73c0-.2.08-.4.11-.62,1-7.09-9.39-11.26-18.77-10.38-4.09.39-3.15,7.38-3.15,7.38s-2.32,0-3.37,1.41c-1.85,2.5,1,8,1,8-1.43-8,2.71-8.44,2.71-8.44s1,3.1,2.85,2.82,6.53-4.81,8.83-4.27a4.22,4.22,0,0,1,3.14,2.83,5,5,0,0,1-1.52,3.83c-2,2.21,1.36,6.93,3.67,8.37,0,0-.08-1.19.95-1s1.52,6.38-.08,9.57c0,0,2.63-3,3.51-9.72A35,35,0,0,0,409.24,130.73Z" style="fill: rgb(38, 50, 56); transform-origin: 396.480743px 134.92178px;" id="elytmyr016nc" class="animable"></path><path d="M393.56,148.9h0a5.48,5.48,0,0,0,4.42-2.41.18.18,0,0,0-.06-.26.18.18,0,0,0-.25.05h0a5.24,5.24,0,0,1-4.12,2.22.19.19,0,0,0-.19.18v0a.19.19,0,0,0,.18.19Z" style="fill: rgb(38, 50, 56); transform-origin: 395.686157px 147.549805px;" id="elq0kw30ghah" class="animable"></path><path d="M410.66,140.76a7.09,7.09,0,0,1-3.4,4.21c-2.19,1.18-3.82-.65-3.68-3,.16-2.09,1.45-5.29,3.88-5.47S411.28,138.54,410.66,140.76Z" style="fill: rgb(228, 137, 123); transform-origin: 407.189423px 140.914085px;" id="el3wugns669df" class="animable"></path><g id="el4xqzr9qa0eb"><path d="M395,155.24a6.94,6.94,0,0,1-.78-.22,10.38,10.38,0,0,1-5.84-4.63c1.74-.19,5.37-.55,6.11-.23S395.1,153.76,395,155.24Z" style="opacity: 0.1; isolation: isolate; transform-origin: 391.728851px 152.636215px;" class="animable" id="elbbpnewatih5"></path></g><polygon points="384.02 189.84 388.89 189.84 394.19 170.3 399.01 165.19 390.57 165.19 392.54 170.11 384.02 189.84" style="fill: #009CD5; transform-origin: 391.514999px 177.514999px;" id="el5olm7bpzqn4" class="animable"></polygon><path d="M366.09,186.19l-.31,3.65h7.91c6.77-16.07,13.06-27.72,13.06-27.72l-8.22,2.58c-19,5.56-20.6,18-17.36,21.18S366.09,186.19,366.09,186.19Z" style="fill: #009CD5; transform-origin: 373.296814px 175.979996px;" id="elcdisbso5t3k" class="animable"></path><g id="el145epuurt2z"><path d="M366.09,186.19l-.31,3.65h7.91c6.77-16.07,13.06-27.72,13.06-27.72l-8.22,2.58c-19,5.56-20.6,18-17.36,21.18S366.09,186.19,366.09,186.19Z" style="fill: rgb(255, 255, 255); opacity: 0.5; isolation: isolate; transform-origin: 373.296814px 175.979996px;" class="animable" id="el795gt98tbgl"></path></g><path d="M372,189.84h1.84C380,176.57,390.23,161,390.23,161A32.1,32.1,0,0,0,378,163.39l2.11,5.88-5.09,1Z" style="fill: #009CD5; transform-origin: 381.115005px 175.419945px;" id="elfmgg4qobgu" class="animable"></path><g id="eli6ju8cp4nnn"><path d="M372,189.84h1.84C380,176.57,390.23,161,390.23,161A32.1,32.1,0,0,0,378,163.39l2.11,5.88-5.09,1Z" style="fill: rgb(255, 255, 255); opacity: 0.4; isolation: isolate; transform-origin: 381.115005px 175.419945px;" class="animable" id="el53jrq9jrfou"></path></g><g id="el7n566rzqt9m"><path d="M369.86,189.84a17.59,17.59,0,0,0,1.64-7.18l-5.41,3.53-.31,3.65Z" style="opacity: 0.2; isolation: isolate; transform-origin: 368.639984px 186.249992px;" class="animable" id="ellmgfnsij8v"></path></g><polygon points="387.55 162.94 391.44 159.42 394.91 164.15 405.91 159.42 408.67 163.88 398.01 169.17 394.47 165.76 390.57 168.22 387.55 162.94" style="fill: rgb(38, 50, 56); transform-origin: 398.110001px 164.294998px;" id="eltqxbi6slma" class="animable"></polygon><g id="el5gjrjmc7sd"><polygon points="387.55 162.94 391.44 159.42 394.91 164.15 405.91 159.42 408.67 163.88 398.01 169.17 394.47 165.76 390.57 168.22 387.55 162.94" style="fill: rgb(255, 255, 255); opacity: 0.2; isolation: isolate; transform-origin: 398.110001px 164.294998px;" class="animable" id="elxqnfucxzhvg"></polygon></g><path d="M375,174.69l11.74-12.57a6.37,6.37,0,0,0,4.11-1.6c1.74-1.64,4.11-8.9,3.53-9.37s-7.58-1.05-8.24-.23-3.56,8.16-3.56,8.16L370,168.92Z" style="fill: rgb(228, 137, 123); transform-origin: 382.234619px 162.599106px;" id="elolfx6fmy01" class="animable"></path><polygon points="376.3 163.7 378.62 161.65 384.18 165.96 381.66 169.31 376.3 163.7" style="fill: rgb(38, 50, 56); transform-origin: 380.23999px 165.479996px;" id="el92i7vpl8r3m" class="animable"></polygon><g id="el2oe134173c5"><polygon points="376.3 163.7 378.62 161.65 384.18 165.96 381.66 169.31 376.3 163.7" style="fill: rgb(255, 255, 255); opacity: 0.2; isolation: isolate; transform-origin: 380.23999px 165.479996px;" class="animable" id="elik9s58bx5pr"></polygon></g><path d="M376.93,162.39l6.66,5.27S368.11,192.18,362.48,187,359.73,173.71,376.93,162.39Z" style="fill: #009CD5; transform-origin: 371.728806px 175.054344px;" id="elqbqvlvmfne" class="animable"></path><g id="eld8qitnni17e"><path d="M376.93,162.39l6.66,5.27S368.11,192.18,362.48,187,359.73,173.71,376.93,162.39Z" style="fill: rgb(255, 255, 255); opacity: 0.6; isolation: isolate; transform-origin: 371.728806px 175.054344px;" class="animable" id="elu91licv2y0h"></path></g><path d="M419.63,189.84l1-17.58a8.1,8.1,0,0,0-5.22-7.94L406.64,161s.37,13.2,1.39,28.81Z" style="fill: #009CD5; transform-origin: 413.639191px 175.419998px;" id="elfffi2x876o" class="animable"></path><g id="elzkvb283cewl"><path d="M419.63,189.84l1-17.58a8.1,8.1,0,0,0-5.22-7.94L406.64,161s.37,13.2,1.39,28.81Z" style="fill: rgb(255, 255, 255); opacity: 0.5; isolation: isolate; transform-origin: 413.639191px 175.419998px;" class="animable" id="elpudp1pyhrxr"></path></g><path d="M411.62,189.84l3.23-9.07L410,176.35l5.55-1.66c-3.53-10.88-9.25-14.58-9.25-14.58-1.42,7,0,20.81,1.13,29.73Z" style="fill: #009CD5; transform-origin: 410.627136px 174.974998px;" id="eldkeaoem5ewq" class="animable"></path><g id="elmiqfm5p9xcf"><path d="M411.62,189.84l3.23-9.07L410,176.35l5.55-1.66c-3.53-10.88-9.25-14.58-9.25-14.58-1.42,7,0,20.81,1.13,29.73Z" style="fill: rgb(255, 255, 255); opacity: 0.4; isolation: isolate; transform-origin: 410.627136px 174.974998px;" class="animable" id="elcemmbep6kkm"></path></g><path d="M367.48,187.7c1,.38,8.85.9,8.85.9l1.83,1.24h12.78l-13-6.13a6.42,6.42,0,0,0-2.77-3.43c-2.1-1.16-9.74-1.19-10-.5S366.49,187.31,367.48,187.7Z" style="fill: rgb(228, 137, 123); transform-origin: 378.040771px 184.580925px;" id="eld14ky77smy" class="animable"></path><polygon points="386.92 189.84 388.1 187.72 383.24 185.59 381.51 189.84 386.92 189.84" style="fill: rgb(38, 50, 56); transform-origin: 384.805008px 187.714996px;" id="eldod30o3zlyb" class="animable"></polygon><g id="el5ewwellpp35"><polygon points="386.92 189.84 388.1 187.72 383.24 185.59 381.51 189.84 386.92 189.84" style="fill: rgb(255, 255, 255); opacity: 0.2; isolation: isolate; transform-origin: 384.805008px 187.714996px;" class="animable" id="el2ma8libhcgx"></polygon></g><path d="M413.35,189.84c5.8-9.07,9.88-20.11,5.14-23.32,0,0-3.64-1-18.67,21.93,0,0-1.65,3.54-14-2l-1.61,3.4Z" style="fill: #009CD5; transform-origin: 402.388596px 178.18177px;" id="elj3sgdozscb" class="animable"></path><g id="el9826a2lnhq"><path d="M413.35,189.84c5.8-9.07,9.88-20.11,5.14-23.32,0,0-3.64-1-18.67,21.93,0,0-1.65,3.54-14-2l-1.61,3.4Z" style="fill: rgb(255, 255, 255); opacity: 0.6; isolation: isolate; transform-origin: 402.388596px 178.18177px;" class="animable" id="eln6fybrp2s0b"></path></g></g><g id="el7ee99qvw1gq"><rect x="263.38" y="191.45" width="83.29" height="72.98" style="fill: rgb(255, 255, 255); opacity: 0.3; isolation: isolate; transform-origin: 305.025px 227.94px;" class="animable" id="el33he01kh32n"></rect></g><g id="freepik--group--inject-61" style="transform-origin: 219.820854px 155.386452px;" class="animable"><path d="M192.51,189.84c2-5.21,13.75-15.36,13.75-15.36V164c-6,1.12-20.69,13.76-21.07,25.81Z" style="fill: #009CD5; transform-origin: 195.724998px 176.919998px;" id="elgxh24emok0s" class="animable"></path><g id="el8oekeuncmpv"><path d="M192.51,189.84c1-2.48,4.11-6.07,7.14-9.16,3.37-3.4,6.61-6.19,6.61-6.19V164c-6,1.12-20.7,13.76-21.07,25.81Z" style="fill: rgb(255, 255, 255); opacity: 0.6; isolation: isolate; transform-origin: 195.724998px 176.919998px;" class="animable" id="elfyg6hrm69wi"></path></g><g id="elybslugydptr"><path d="M199.65,180.68c3.37-3.4,6.61-6.19,6.61-6.19v-3.05S200.48,174.31,199.65,180.68Z" style="opacity: 0.2; isolation: isolate; transform-origin: 202.954994px 176.05999px;" class="animable" id="elp99if9zhbcf"></path></g><path d="M248.58,189.84c1.5-9.22,3-16.82,3.65-20.26a2.06,2.06,0,0,0-1.57-2.42c-2.15-.47-4.37-.87-6.6-1.21a207.2,207.2,0,0,0-30.45-2c-4.52,0-7.35.13-7.35.13-2.06,7.38-3.29,16.57-4,25.81Z" style="fill: #009CD5; transform-origin: 227.265739px 176.916588px;" id="els6ifm3rnqs" class="animable"></path><g id="el745s6xausje"><path d="M248.59,189.84l.12-.77c1.45-8.87,2.85-16.15,3.51-19.49a1.68,1.68,0,0,0,0-.55,2,2,0,0,0-1.59-1.87c-2.16-.47-4.37-.87-6.6-1.21a207.2,207.2,0,0,0-30.45-2c-4.52,0-7.35.13-7.35.13-2.06,7.38-3.29,16.57-4,25.81Z" style="fill: rgb(255, 255, 255); opacity: 0.7; isolation: isolate; transform-origin: 227.236313px 176.916565px;" class="animable" id="el93e9tel2pr7"></path></g><path d="M222.52,175.78c13,1.38,21.71-9.7,21.71-9.7l-.17-.13a207.2,207.2,0,0,0-30.45-2S210.29,174.48,222.52,175.78Z" style="fill: #009CD5; transform-origin: 228.71447px 169.921082px;" id="el9q197izbinr" class="animable"></path><path d="M236.92,164.93c-3.66,3.33-12.63,2.1-12.63,2.1s-5.6-1.53-4.43-3.28c3.3-.55,4.9-2.09,5.56-4.06a9.51,9.51,0,0,0,.33-3.76,19,19,0,0,0-.27-2.11l11.09-8.21C235.12,151,233.34,161,236.92,164.93Z" style="fill: rgb(228, 137, 123); transform-origin: 228.309624px 156.431015px;" id="elcnsh30dz8al" class="animable"></path><g id="el6ycw8bd2i5f"><path d="M234,150.83c-.44,6.65-5.91,8.49-8.59,8.86a9.51,9.51,0,0,0,.33-3.76Z" style="opacity: 0.2; isolation: isolate; transform-origin: 229.705002px 155.260002px;" class="animable" id="eloqexxjqxb4j"></path></g><path d="M235.29,160.71l-10.6,4.78-.63-3.83L220.17,163a3.21,3.21,0,0,0-2.13,3.36l.44,4.2,5.38-2.94,2.68,3.79,12.74-6.13Z" style="fill: #009CD5; transform-origin: 228.651367px 166.059998px;" id="elko39dfo1xjq" class="animable"></path><g id="el1fq1exutwj"><path d="M235.29,160.71l-10.6,4.78-.63-3.83L220.17,163a3.21,3.21,0,0,0-2.13,3.36l.44,4.2,5.38-2.94,2.68,3.79,12.74-6.13Z" style="fill: rgb(255, 255, 255); opacity: 0.3; isolation: isolate; transform-origin: 228.651367px 166.059998px;" class="animable" id="el75h76uhua27"></path></g><path d="M217.08,128.91s-3,10.38,2.07,15.2,7.69-14.9,7.69-14.9Z" style="fill: rgb(38, 50, 56); transform-origin: 221.519348px 136.889397px;" id="el0ubr191wjqzk" class="animable"></path><g id="el25tg7mqgd9aj"><path d="M217.08,128.91s-3,10.38,2.07,15.2,7.69-14.9,7.69-14.9Z" style="fill: rgb(255, 255, 255); opacity: 0.2; isolation: isolate; transform-origin: 221.519348px 136.889397px;" class="animable" id="el022y7ydlt9d5"></path></g><path d="M217,150.08c.11.37.23.74.37,1.09a10.87,10.87,0,0,0,5.46,5.79,9.93,9.93,0,0,0,7.15.56,9.82,9.82,0,0,0,4.38-2.83c3.74-4.06,3.47-8.59,3.63-16.27a10.5,10.5,0,0,0-14.88-9.95C215.71,131.8,215.09,143.24,217,150.08Z" style="fill: rgb(228, 137, 123); transform-origin: 227.038452px 142.723717px;" id="ellu5hfgy9ghn" class="animable"></path><path d="M226.43,141c.06.61-.29,1.14-.7,1.15s-.76-.48-.79-1.1.3-1.15.7-1.16S226.4,140.37,226.43,141Z" style="fill: rgb(38, 50, 56); transform-origin: 225.687401px 141.019974px;" id="elvktnl2yrpk" class="animable"></path><path d="M219.36,141.27c.07.62-.29,1.15-.7,1.16s-.75-.48-.78-1.11.29-1.14.7-1.15S219.34,140.68,219.36,141.27Z" style="fill: rgb(38, 50, 56); transform-origin: 218.623405px 141.300003px;" id="elkrwfuvmzdq" class="animable"></path><path d="M221.62,141.5a22.17,22.17,0,0,1-2.79,5.46,3.64,3.64,0,0,0,3,.44Z" style="fill: rgb(222, 87, 83); transform-origin: 220.329979px 144.522888px;" id="elz9kmgfg7htm" class="animable"></path><path d="M216.63,138.35a.35.35,0,0,0,.38,0,3,3,0,0,1,2.62-.41.36.36,0,0,0,.48-.19.37.37,0,0,0-.19-.48h0a3.66,3.66,0,0,0-3.31.47.37.37,0,0,0-.11.51h0A.37.37,0,0,0,216.63,138.35Z" style="fill: rgb(38, 50, 56); transform-origin: 218.290016px 137.737343px;" id="el8j34l7ltrs" class="animable"></path><path d="M227.72,138.13a.39.39,0,0,0,.2-.08.38.38,0,0,0,0-.52h0a3.64,3.64,0,0,0-3.28-.71.37.37,0,0,0-.23.46h0a.38.38,0,0,0,.47.23h0a3,3,0,0,1,2.58.61A.4.4,0,0,0,227.72,138.13Z" style="fill: rgb(38, 50, 56); transform-origin: 226.207886px 137.419502px;" id="elakitsicwowt" class="animable"></path><path d="M232,129.06l-.45,3.38a2.51,2.51,0,0,1,1.24,3.19c-1.12,2.84.45,7.27,2.62,9.05,0,0,.08-1.23,1.12-.93s.68,6.73-1.38,9.77c0,0,3.1-2.74,4.9-9.47,1.67-6.22,1.92-11.42.66-13.84Z" style="fill: rgb(38, 50, 56); transform-origin: 236.527596px 141.290009px;" id="ellj6qxnqkhnh" class="animable"></path><path d="M223,151.43a.23.23,0,0,1-.14,0,.26.26,0,0,1-.07-.35,6,6,0,0,1,3.44-2.45.25.25,0,0,1,.3.2.25.25,0,0,1-.19.29,5.58,5.58,0,0,0-3.13,2.24A.26.26,0,0,1,223,151.43Z" style="fill: rgb(38, 50, 56); transform-origin: 224.642387px 150.032494px;" id="elyvgzw7ck07" class="animable"></path><g id="elzdfofu9pai"><path d="M219.53,154.56a10.64,10.64,0,0,0,3.3,2.4,9.93,9.93,0,0,0,7.15.56,8.14,8.14,0,0,0-3.72-1.9A32.89,32.89,0,0,0,219.53,154.56Z" style="opacity: 0.1; isolation: isolate; transform-origin: 224.754997px 156.249176px;" class="animable" id="elnqddwcxo5eo"></path></g><g id="elyukg9lejg9t"><path d="M232,129.06l-.45,3.38a2.51,2.51,0,0,1,1.24,3.19c-1.12,2.84.45,7.27,2.62,9.05,0,0,.08-1.23,1.12-.93s.68,6.73-1.38,9.77c0,0,3.1-2.74,4.9-9.47,1.67-6.22,1.92-11.42.66-13.84Z" style="fill: rgb(255, 255, 255); opacity: 0.2; isolation: isolate; transform-origin: 236.527596px 141.290009px;" class="animable" id="eliidhzxx8s1d"></path></g><path d="M241.24,131.76s.83-4.44-6.16-7.91-14.65.49-19.32-2.5-4.84,9.3,5.14,10.68A79.24,79.24,0,0,0,241.24,131.76Z" style="fill: rgb(38, 50, 56); transform-origin: 226.972565px 126.720131px;" id="elvd6xgzffd7p" class="animable"></path><g id="elfef7ny4plfm"><path d="M241.24,131.76s.83-4.44-6.16-7.91-14.65.49-19.32-2.5-4.84,9.3,5.14,10.68A79.24,79.24,0,0,0,241.24,131.76Z" style="fill: rgb(255, 255, 255); opacity: 0.3; isolation: isolate; transform-origin: 226.972565px 126.720131px;" class="animable" id="eltdgoug4y1cb"></path></g><path d="M241.58,144.59a7.3,7.3,0,0,1-4,3.85c-2.4.9-3.82-1.19-3.36-3.57.44-2.12,2.2-5.21,4.71-5.07S242.52,142.4,241.58,144.59Z" style="fill: rgb(228, 137, 123); transform-origin: 238.024879px 144.224426px;" id="eld9e7sgd4elf" class="animable"></path><path d="M229.71,169.34l-1.06-5.64s2.2-2.08,1.94-4-10-5.1-11.76-5.23-1.07,6.91-.54,8.2,6.4,2.83,6.4,2.83l.73,5.95Z" style="fill: rgb(228, 137, 123); transform-origin: 224.155861px 162.959106px;" id="el6yqnd2llby2" class="animable"></path><g id="elfdpfg1e7w35"><path d="M247.27,189.84c.51-.25,1-.51,1.44-.77,1.45-8.87,2.85-16.15,3.51-19.49a1.68,1.68,0,0,0,0-.55c-6.32,6.44-16.16,17.21-15,20.81Z" style="opacity: 0.2; isolation: isolate; transform-origin: 244.684334px 179.43499px;" class="animable" id="el0pt1sn58a2d"></path></g><path d="M243.84,189.84c7.27-6.52,13.59-15.51,9.12-21.58-3.92-5.34-14,14-17.07,15.33s-5.73-16.41-5.73-16.41l-6,1.78s1.1,12.78,4.18,20.88Z" style="fill: #009CD5; transform-origin: 239.305847px 178.509995px;" id="elc4a9urdfs34" class="animable"></path><g id="elbzqb78rfi1f"><path d="M243.84,189.84c7.27-6.52,13.59-15.51,9.12-21.58-3.92-5.34-14,14-17.07,15.33s-5.73-16.41-5.73-16.41l-6,1.78s1.1,12.78,4.18,20.88Z" style="fill: rgb(255, 255, 255); opacity: 0.6; isolation: isolate; transform-origin: 239.305847px 178.509995px;" class="animable" id="elieyxm7sisdm"></path></g></g><path d="M289.16,189.84c2.11-2.13,3.48-3.63,3.48-3.63l-1.16-17.73c-3.34,1.78-13.35,15.14-18.61,21.36Z" style="fill: #009CD5; transform-origin: 282.755005px 179.159996px;" id="el7mnh1s7qtip" class="animable"></path><g id="elk0prue4u4tf"><path d="M289.16,189.84c2.11-2.13,3.48-3.63,3.48-3.63l-1.16-17.73c-3.34,1.78-13.35,15.14-18.61,21.36Z" style="fill: rgb(255, 255, 255); opacity: 0.5; isolation: isolate; transform-origin: 282.755005px 179.159996px;" class="animable" id="el65r5dboowin"></path></g><g id="el6qhcn6qqqr4"><path d="M289.15,189.84c2.12-2.13,3.49-3.63,3.49-3.63l-.27-4.21L291,177.92a16.8,16.8,0,0,0-4.7,11.92Z" style="opacity: 0.2; isolation: isolate; transform-origin: 289.468979px 183.879997px;" class="animable" id="elej5bt9bp2hd"></path></g><path d="M324.21,189.84c.49-1.76,1-3.63,1.68-5.67s1.29-4.09,2.05-6.38q.85-2.59,1.87-5.5a88.65,88.65,0,0,0-12.41-3A94.4,94.4,0,0,0,304,167.88c-5.81,0-12.5.6-12.5.6s-1,.23-1.55,6.4c-.29,3.11-.58,7.91-.6,15Z" style="fill: #009CD5; transform-origin: 309.579987px 178.880013px;" id="eldy5xfpdmdf" class="animable"></path><g id="el7p32zvjnoe9"><path d="M324.21,189.84c.49-1.76,1-3.63,1.68-5.67s1.29-4.09,2.05-6.38q.85-2.59,1.87-5.5a88.65,88.65,0,0,0-12.41-3A94.4,94.4,0,0,0,304,167.88c-5.81,0-12.5.6-12.5.6s-1,.23-1.55,6.4c-.29,3.11-.58,7.91-.6,15Z" style="fill: rgb(255, 255, 255); opacity: 0.5; isolation: isolate; transform-origin: 309.579987px 178.880013px;" class="animable" id="el40ukw1dxarg"></path></g><polygon points="305.63 189.84 313.83 175.16 304.35 180.47 298.85 173.57 300.86 189.84 305.63 189.84" style="fill: rgb(38, 50, 56); transform-origin: 306.339996px 181.705002px;" id="elqsoze6zl7de" class="animable"></polygon><path d="M314.15,167.43c5.42,1.28,7.06,5.62,6.46,9.57l-3.95-1.32A47,47,0,0,0,304,182.62s-3-5.5-5.86-7.3l-4.06.48S300.41,164.21,314.15,167.43Z" style="fill: rgb(38, 50, 56); transform-origin: 307.403549px 174.742409px;" id="elmz7irq91bsg" class="animable"></path><g id="el1e7vlqigdgf"><path d="M314.15,167.43c5.42,1.28,7.06,5.62,6.46,9.57l-3.95-1.32A47,47,0,0,0,304,182.62s-3-5.5-5.86-7.3l-4.06.48S300.41,164.21,314.15,167.43Z" style="fill: rgb(255, 255, 255); opacity: 0.1; transform-origin: 307.403549px 174.742409px;" class="animable" id="el0h7c69hx3vcm"></path></g><path d="M304.32,169.16a5.93,5.93,0,0,1,.91-.39c.69-.54,1.53-1.86,1.49-5a27.64,27.64,0,0,0-.35-3.74l8.87-1.65s-3,6-.5,10.39c.86.39,1.38.94,1.29,1.66-.67,5.12-11.68,10.08-11.68,10.08S299,172.1,304.32,169.16Z" style="fill: rgb(238, 193, 187); transform-origin: 309.001694px 169.445007px;" id="elthb5pwy6ugi" class="animable"></path><g id="elsl7eqvlcbmc"><path d="M306.37,160a27.64,27.64,0,0,1,.35,3.74c6,0,8.52-5.39,8.52-5.39Z" style="opacity: 0.2; isolation: isolate; transform-origin: 310.804993px 161.044998px;" class="animable" id="el3prliat6hyp"></path></g><path d="M310.33,130.74s-10.4-1.32-12.32,7a12.89,12.89,0,0,0,4.55,13Z" style="fill: rgb(38, 50, 56); transform-origin: 304.00444px 140.701706px;" id="elejhuw74hx8w" class="animable"></path><path d="M311.27,135.2c-7.71-.42-10.41,3.57-11.41,11.48-1.25,9.89.56,17.06,10.32,15.47C323.42,160,324.07,135.9,311.27,135.2Z" style="fill: rgb(238, 193, 187); transform-origin: 310.00592px 148.770561px;" id="el87hutscdr5w" class="animable"></path><path d="M304.86,146.52a16.29,16.29,0,0,1-2.41,3.07,2.12,2.12,0,0,0,2,1Z" style="fill: rgb(212, 130, 125); transform-origin: 303.654984px 148.559494px;" id="elzrejmenmiuk" class="animable"></path><path d="M309.62,146.15c-.05.63.25,1.17.67,1.2s.8-.45.85-1.08-.25-1.17-.67-1.21S309.67,145.52,309.62,146.15Z" style="fill: rgb(38, 50, 56); transform-origin: 310.38002px 146.204536px;" id="elc67ofe1e6q5" class="animable"></path><path d="M310.64,145.11l-1.33-.65S309.9,145.67,310.64,145.11Z" style="fill: rgb(38, 50, 56); transform-origin: 309.975021px 144.858978px;" id="ela638sy1mgw7" class="animable"></path><path d="M301.76,145.4c0,.63.26,1.17.68,1.21s.8-.46.85-1.09-.25-1.17-.67-1.2S301.81,144.77,301.76,145.4Z" style="fill: rgb(38, 50, 56); transform-origin: 302.52774px 145.465469px;" id="elhzjy400qiw" class="animable"></path><path d="M302.79,144.36l-1.33-.65S302.05,144.93,302.79,144.36Z" style="fill: rgb(38, 50, 56); transform-origin: 302.125015px 144.110847px;" id="eltdni61659di" class="animable"></path><path d="M313.26,142.52a.33.33,0,0,1-.27-.14,3.71,3.71,0,0,0-3-1.21.36.36,0,0,1-.37-.31.35.35,0,0,1,.32-.37,4.32,4.32,0,0,1,3.58,1.49.35.35,0,0,1-.07.48A.42.42,0,0,1,313.26,142.52Z" style="fill: rgb(38, 50, 56); transform-origin: 311.602341px 141.499557px;" id="ela01xxm83qhm" class="animable"></path><path d="M301.29,141a.34.34,0,0,1-.29-.17.34.34,0,0,1,.12-.47,4,4,0,0,1,3.42-.49.34.34,0,0,1,.17.45.32.32,0,0,1-.44.18,3.3,3.3,0,0,0-2.8.45A.41.41,0,0,1,301.29,141Z" style="fill: rgb(38, 50, 56); transform-origin: 302.845581px 140.343124px;" id="eliqafv7re4i" class="animable"></path><path d="M319,148.65s-3.25-6.53-2.44-11.39c0,0-14.93-7.08-16.54,8.39,0,0-.73-13.85,12.53-13.43s12.15,19.8,5,25.2C317.52,157.42,321,152.73,319,148.65Z" style="fill: rgb(38, 50, 56); transform-origin: 311.393509px 144.815315px;" id="elglg52sem398" class="animable"></path><path d="M309,130.14s-6.33-1.56-8.13.12,11,13.51,17.7,14.7c0,0,2.27,7.41.47,10.88,0,0,7.54-2.63,7.89-14.11S315.23,126,309,130.14Z" style="fill: rgb(38, 50, 56); transform-origin: 313.817902px 142.214981px;" id="el72hbi25shcc" class="animable"></path><path d="M317.64,150.21a3.38,3.38,0,0,1,3.81-2.89c2.37.39,3.24,5.36-2.77,6.21C317.82,153.65,317.39,152.79,317.64,150.21Z" style="fill: rgb(238, 193, 187); transform-origin: 320.409195px 150.414413px;" id="elroyqv385hlg" class="animable"></path><path d="M321,134.68s2.63-6.69,9.68-6.22,8.13,11.48,4.42,19.61-1.19,10.76-1.19,10.76-3.95-.48-3.95-7.77a26.68,26.68,0,0,0-.24,4.66s-2.63-3.71-.12-10.76-5.5-3.82-5.5-3.82Z" style="fill: rgb(38, 50, 56); transform-origin: 329.095551px 143.633156px;" id="el9k3u1geyacq" class="animable"></path><path d="M313.79,145.18a.23.23,0,0,1-.11,0c-9-3.24-12.49-14.09-12.53-14.2a.35.35,0,0,1,.23-.43.34.34,0,0,1,.43.22c0,.11,3.4,10.64,12.1,13.77a.35.35,0,0,1,.21.44A.34.34,0,0,1,313.79,145.18Z" style="fill: rgb(38, 50, 56); transform-origin: 307.637421px 137.859863px;" id="elxjs4345f1yg" class="animable"></path><path d="M306.26,155.47H306a.33.33,0,0,1-.33-.35.35.35,0,0,1,.36-.33,6,6,0,0,0,4.16-1.69.34.34,0,0,1,.48,0,.34.34,0,0,1,0,.48A6.57,6.57,0,0,1,306.26,155.47Z" style="fill: rgb(38, 50, 56); transform-origin: 308.219284px 154.235413px;" id="elxz8j0o8489" class="animable"></path><path d="M307.37,149.33a2.11,2.11,0,1,1,1.95-2.1A2,2,0,0,1,307.37,149.33Zm0-3.7a1.61,1.61,0,1,0,1.45,1.6A1.53,1.53,0,0,0,307.37,145.63Z" style="fill: rgb(38, 50, 56); transform-origin: 307.211227px 147.226051px;" id="el1mlvyr3ad69" class="animable"></path><path d="M301.33,149a2.11,2.11,0,1,1,2-2.11A2,2,0,0,1,301.33,149Zm0-3.71a1.61,1.61,0,1,0,1.46,1.6A1.53,1.53,0,0,0,301.33,145.33Z" style="fill: rgb(38, 50, 56); transform-origin: 301.221512px 146.892845px;" id="elr10t9tcfq78" class="animable"></path><path d="M305.67,147.48a.24.24,0,0,1-.23-.14,1.5,1.5,0,0,0-.91-.79,1.6,1.6,0,0,0-1.32.57.26.26,0,0,1-.36,0,.25.25,0,0,1,0-.35,2.07,2.07,0,0,1,1.76-.69,2,2,0,0,1,1.27,1.07.24.24,0,0,1-.12.33Z" style="fill: rgb(38, 50, 56); transform-origin: 304.342377px 146.774895px;" id="elcd8hgtia1t6" class="animable"></path><path d="M309.07,147.48a.25.25,0,0,1-.25-.24.26.26,0,0,1,.24-.26c.4,0,9.59-.29,10.72-.24a.26.26,0,0,1,.24.27.25.25,0,0,1-.26.23c-1.12-.05-10.58.24-10.68.24Z" style="fill: rgb(38, 50, 56); transform-origin: 314.42009px 147.107109px;" id="el751pzhuzl8e" class="animable"></path><path d="M337.18,189.84c-3.64-9.56-7.37-17.55-7.37-17.55s-6.09,8.86-6.64,17.55Z" style="fill: #009CD5; transform-origin: 330.174988px 181.064995px;" id="elme2wl41u1kk" class="animable"></path><g id="elo1tttaor7h"><path d="M337.18,189.84c-3.64-9.56-7.37-17.55-7.37-17.55s-6.09,8.86-6.64,17.55Z" style="fill: rgb(255, 255, 255); opacity: 0.5; isolation: isolate; transform-origin: 330.174988px 181.064995px;" class="animable" id="elyynnwcwlczp"></path></g><g id="freepik--group--inject-61" style="transform-origin: 305.029984px 230.461769px;" class="animable"><path d="M339.46,264.44c-2-5.48-4-10.12-4-10.12l-8.36,7.32,1.46,2.8Z" style="fill: rgb(228, 137, 123); transform-origin: 333.279999px 259.380005px;" id="elpm1q4xoyhy" class="animable"></path><path d="M280.43,264.44c2-2.42,3.41-4.2,3.41-4.2l-8.17-6.78s-4,6.17-7.26,11Z" style="fill: rgb(228, 137, 123); transform-origin: 276.124985px 258.959991px;" id="elzz0oa2u0nhg" class="animable"></path><path d="M282.43,264.44l4.85-3.4-1.88-22.58c-6.18,1-15.16,19-15.16,19l7,7Z" style="fill: #009CD5; transform-origin: 278.759995px 251.460014px;" id="eluxmq30sr64c" class="animable"></path><g id="elhf752i42sqp"><path d="M277.25,264.44h5.18l3.48-2.44,1.37-1-1.88-22.59c-6.18,1.06-15.16,19-15.16,19l6.18,6.13Z" style="fill: rgb(255, 255, 255); opacity: 0.2; isolation: isolate; transform-origin: 278.759995px 251.425003px;" class="animable" id="elfz48v1id33"></path></g><polygon points="278.77 264.44 270.24 255.49 268.77 257.95 275.6 264.44 278.77 264.44" style="fill: #009CD5; transform-origin: 273.769989px 259.965004px;" id="ely2mfw1uuie" class="animable"></polygon><g id="elplccw2le2i"><path d="M282.43,264.44l3.48-2.44-1.65-9.79s-6.46,4.08-7.84,11.4l.83.83Z" style="opacity: 0.2; isolation: isolate; transform-origin: 281.165009px 258.325005px;" class="animable" id="el4lfy8g9mnna"></path></g><path d="M327.64,264.44c2.06-12.72,4.07-22.4,4.07-22.4-19.79-4.78-46.36-3.58-46.36-3.58-2.08,7.42-3.31,16.67-4,26Z" style="fill: #009CD5; transform-origin: 306.530029px 251.392975px;" id="el9bg26gvs8rp" class="animable"></path><g id="eld6swpu2u4l"><path d="M327.64,264.44c.14-.89.28-1.77.42-2.63,1.91-11.4,3.65-19.77,3.65-19.77-19.79-4.78-46.36-3.58-46.36-3.58-2.08,7.42-3.3,16.67-4,26Z" style="fill: rgb(255, 255, 255); opacity: 0.2; isolation: isolate; transform-origin: 306.530029px 251.392952px;" class="animable" id="elp856aqgbn5"></path></g><g id="eljuvhq4u5o9s"><path d="M327.64,264.44c.14-.89.28-1.77.42-2.63l-2.92-2.74a18.94,18.94,0,0,0-1.34,5.37Z" style="opacity: 0.2; isolation: isolate; transform-origin: 325.930054px 261.755005px;" class="animable" id="elj9tg20eg61s"></path></g><path d="M296.62,264.44h3.14a104.59,104.59,0,0,1,2.43-17l5.55-4.54-4.37-1.41-4,.22,1.07,5.25S298.54,255,296.62,264.44Z" style="fill: rgb(38, 50, 56); transform-origin: 302.179993px 252.965004px;" id="elkuwscyjbnw" class="animable"></path><path d="M316,239.36c-3.66,3.33-12.64,2.1-12.64,2.1s-5.6-1.54-4.42-3.29c3.3-.54,4.9-2.08,5.55-4a9.56,9.56,0,0,0,.34-3.77,18.57,18.57,0,0,0-.28-2.1l11.1-8.22C314.2,225.45,312.42,235.43,316,239.36Z" style="fill: rgb(228, 137, 123); transform-origin: 307.388321px 230.88102px;" id="el17c6syhol9g" class="animable"></path><g id="el8shfwx8mrmm"><path d="M313.09,225.25c-.44,6.66-5.91,8.49-8.59,8.87a9.56,9.56,0,0,0,.34-3.77Z" style="opacity: 0.2; isolation: isolate; transform-origin: 308.794998px 229.684998px;" class="animable" id="el7fpur1dnk62"></path></g><path d="M314.37,235.13l-10.6,4.79-.62-3.84-3.9,1.37a3.2,3.2,0,0,0-2.12,3.36l.44,4.21,5.38-3,2.68,3.79,12.73-6.13Z" style="fill: #009CD5; transform-origin: 307.735825px 240.470001px;" id="eldre3vbw6coa" class="animable"></path><g id="eln7eth6k2q0c"><path d="M314.37,235.13l-10.6,4.79-.62-3.84-3.9,1.37a3.2,3.2,0,0,0-2.12,3.36l.44,4.21,5.38-3,2.68,3.79,12.73-6.13Z" style="fill: rgb(255, 255, 255); opacity: 0.3; isolation: isolate; transform-origin: 307.735825px 240.470001px;" class="animable" id="elihn6mmwtbwk"></path></g><path d="M292.91,204.62s-1.65,10.68,4,14.81,5.72-15.76,5.72-15.76Z" style="fill: rgb(38, 50, 56); transform-origin: 297.657867px 211.832199px;" id="elg6hc92g5te" class="animable"></path><path d="M313.36,228a9.71,9.71,0,0,1-11.15,3.73,10.82,10.82,0,0,1-6.15-5,11,11,0,0,1-.51-1c-2.77-6.54-3.63-18,3.29-22.22a10.53,10.53,0,0,1,16,8C315.7,219,316.55,223.46,313.36,228Z" style="fill: rgb(228, 137, 123); transform-origin: 304.565384px 217.098595px;" id="el2xpizxejycm" class="animable"></path><path d="M303.73,215.42c.15.61-.13,1.17-.54,1.24s-.81-.38-.92-1,.14-1.17.54-1.23S303.62,214.8,303.73,215.42Z" style="fill: rgb(38, 50, 56); transform-origin: 303.007492px 215.545792px;" id="elgbtw75tt0sp" class="animable"></path><path d="M296.76,216.59c.15.61-.14,1.17-.54,1.24s-.82-.39-.92-1,.14-1.17.54-1.24S296.66,216,296.76,216.59Z" style="fill: rgb(38, 50, 56); transform-origin: 296.038742px 216.710121px;" id="eldu1mac34uuf" class="animable"></path><path d="M299,216.52a22.33,22.33,0,0,1-2.06,5.77,3.62,3.62,0,0,0,3,.06Z" style="fill: rgb(222, 87, 83); transform-origin: 298.439987px 219.583099px;" id="elohy5a00m4oq" class="animable"></path><path d="M293.68,214.05a.41.41,0,0,0,.37-.07,3,3,0,0,1,2.55-.74.36.36,0,0,0,.45-.26.37.37,0,0,0-.25-.45h0a3.67,3.67,0,0,0-3.23.89.37.37,0,0,0,0,.52h0A.42.42,0,0,0,293.68,214.05Z" style="fill: rgb(38, 50, 56); transform-origin: 295.262985px 213.260078px;" id="elmnhzmnnun8" class="animable"></path><path d="M304.65,212.4a.39.39,0,0,0,.19-.1.38.38,0,0,0-.12-.51h0a3.63,3.63,0,0,0-3.34-.28.37.37,0,0,0-.17.49h0a.37.37,0,0,0,.49.16h0a3,3,0,0,1,2.64.27A.36.36,0,0,0,304.65,212.4Z" style="fill: rgb(38, 50, 56); transform-origin: 303.033157px 211.840347px;" id="ele9pgz2em0vm" class="animable"></path><path d="M307.73,202.86v3.41a2.52,2.52,0,0,1,1.64,3c-.75,2.95,1.38,7.15,3.75,8.64,0,0-.07-1.24,1-1.07s1.55,6.58-.11,9.87c0,0,2.72-3.12,3.65-10,.85-6.39.44-11.57-1.12-13.81Z" style="fill: rgb(38, 50, 56); transform-origin: 312.912216px 214.784996px;" id="els6c3jgp2a" class="animable"></path><path d="M319.23,217a7.32,7.32,0,0,1-3.52,4.34c-2.26,1.21-3.95-.69-3.79-3.11.17-2.15,1.52-5.44,4-5.63S319.88,214.75,319.23,217Z" style="fill: rgb(228, 137, 123); transform-origin: 315.646301px 217.152031px;" id="elog3rjpiwinl" class="animable"></path><path d="M300.82,224.22a20,20,0,0,1,1.42,2.55l.5-.14c2.24-.65,3.06-1.7,3.29-2.65a3.23,3.23,0,0,0,0-1.43,2.93,2.93,0,0,0-.3-.76,11,11,0,0,1-4.12,2.2C301.12,224.15,300.82,224.22,300.82,224.22Z" style="fill: rgb(38, 50, 56); transform-origin: 303.465088px 224.280014px;" id="elzfbgg35zbao" class="animable"></path><path d="M301.58,224l.44.74c2.11-.62,3.5-1.34,4-2.18a2.93,2.93,0,0,0-.3-.76A11,11,0,0,1,301.58,224Z" style="fill: rgb(255, 255, 255); transform-origin: 303.799988px 223.270012px;" id="elwmutofkcpjd" class="animable"></path><path d="M302.74,226.63c2.24-.65,3.06-1.7,3.29-2.65a7.3,7.3,0,0,0-2.34,1.22A2.81,2.81,0,0,0,302.74,226.63Z" style="fill: rgb(222, 87, 83); transform-origin: 304.384995px 225.305008px;" id="ell7yvpho79rc" class="animable"></path><path d="M312.29,215.31l-1-.59s.63,4.09-.67,5.24c0,0-4.5.48-6.07.9a4.82,4.82,0,0,0-2.51,2.23s-3.53-.75-5.06,1.9a11.55,11.55,0,0,1-2.94-4.1s.12,7.48,4.31,11.46,11,2,14.2-1.11S312.29,215.31,312.29,215.31Zm-3,11.79a2.77,2.77,0,0,1-4.77-.3l-1.4.77s1.54,1.3.37,2.5-4.79.77-5.16-2.68,4-3.84,4-3.84a5.77,5.77,0,0,1,4.17-1.71A3.47,3.47,0,0,1,309.33,227.1Z" style="fill: rgb(38, 50, 56); transform-origin: 303.973877px 224.647171px;" id="ela737hoj8h9" class="animable"></path><path d="M307.72,206.27s-17,5.8-15-5.66c0,0,9.17-5.4,17.16-3.89s7.37,9.8,7.37,9.8Z" style="fill: rgb(38, 50, 56); transform-origin: 304.908798px 202.095604px;" id="elgy7fvqxxwql" class="animable"></path><path d="M341.65,264.44c-1-3.26-6.61-20.66-9.94-22.4a20.48,20.48,0,0,0-4.65,6.55c-2.27,4.62-2.76,13.88-2.76,13.88l1.47,2Z" style="fill: #009CD5; transform-origin: 332.974991px 253.255005px;" id="eldxn2nz3uqcj" class="animable"></path><g id="elj8ij9b751c"><path d="M341.65,264.44c-1-3.26-6.61-20.66-9.94-22.4a20.48,20.48,0,0,0-4.65,6.55c-2.27,4.62-2.76,13.88-2.76,13.88l1.47,2Z" style="fill: rgb(255, 255, 255); opacity: 0.2; isolation: isolate; transform-origin: 332.974991px 253.255005px;" class="animable" id="el5f93icu4ukj"></path></g></g><g id="el5v3rhwqovpy"><rect x="348.59" y="191.45" width="83.29" height="72.98" style="fill: rgb(255, 255, 255); opacity: 0.6; isolation: isolate; transform-origin: 390.235px 227.94px;" class="animable" id="elldyx405n6rp"></rect></g><path d="M369.49,264.44c3.15-3.06,5.35-5.48,5.35-5.48l-1.16-17.72c-3.72,2-15.75,18.38-20.22,23.2Z" style="fill: rgb(38, 50, 56); transform-origin: 364.149994px 252.839996px;" id="elp0kf5gd38n" class="animable"></path><g id="el7yx6ift2c6h"><path d="M369.49,264.44c3.15-3.06,5.35-5.48,5.35-5.48l-1.16-17.72c-3.72,2-15.75,18.38-20.22,23.2Z" style="fill: rgb(255, 255, 255); opacity: 0.3; isolation: isolate; transform-origin: 364.149994px 252.839996px;" class="animable" id="eldd709qbsx3b"></path></g><g id="el3223iu6a01y"><path d="M369.49,264.44c3.15-3.05,5.35-5.48,5.35-5.48l-.27-4.2-1.33-4.09a16.85,16.85,0,0,0-4.57,13.77Z" style="opacity: 0.2; isolation: isolate; transform-origin: 371.68959px 257.555px;" class="animable" id="elwq1loxqrs7k"></path></g><path d="M407.2,218.22c-.86,3.3,3.86,12.42,1.95,29s-20.11,15.58-28.29,10-6.76-35.54-3.95-41.46S407.2,218.22,407.2,218.22Z" style="fill: rgb(38, 50, 56); transform-origin: 392.158371px 237.265755px;" id="elke30bsjlbgr" class="animable"></path><path d="M405.91,264.44c.6-2.27,1.32-4.76,2.18-7.52q.92-3,2.05-6.37Q411,248,412,245a90.07,90.07,0,0,0-12.41-3,97.4,97.4,0,0,0-13.42-1.41c-5.81,0-12.5.61-12.5.61s-.95.22-1.54,6.39c-.32,3.38-.64,8.74-.6,16.81Z" style="fill: rgb(38, 50, 56); transform-origin: 391.763275px 252.514984px;" id="el8o7nbgyt8zl" class="animable"></path><g id="elblgdrmjf2fl"><path d="M405.91,264.44c.6-2.27,1.32-4.76,2.18-7.52q.92-3,2.05-6.37Q411,248,412,245a90.07,90.07,0,0,0-12.41-3,97.4,97.4,0,0,0-13.42-1.41c-5.81,0-12.5.61-12.5.61s-.95.22-1.54,6.39c-.32,3.38-.64,8.74-.6,16.81Z" style="fill: rgb(255, 255, 255); opacity: 0.3; isolation: isolate; transform-origin: 391.763275px 252.514984px;" class="animable" id="elcarll33um5o"></path></g><path d="M391.55,239.77c3.59.22,9.33.18,13,5.92h-6.8l3.7,4.52s-11.91,2.84-15.63,10.65c0,0-5.34-9.26-8.24-11.41a25,25,0,0,1,6-4.41,27.22,27.22,0,0,0-6-1.78S386.7,239.48,391.55,239.77Z" style="fill: rgb(255, 255, 255); transform-origin: 391.065002px 250.307076px;" id="eltjkklxcnst" class="animable"></path><path d="M398.23,243.14s-9.22,10.4-12.07,15.42a33,33,0,0,1,.39-16.65Z" style="fill: #009CD5; transform-origin: 391.754166px 250.235001px;" id="elaz3cf7ywf4v" class="animable"></path><g id="el783nk2jyran"><path d="M398.23,243.14s-9.22,10.4-12.07,15.42a33,33,0,0,1,.39-16.65Z" style="fill: rgb(255, 255, 255); opacity: 0.6; isolation: isolate; transform-origin: 391.754166px 250.235001px;" class="animable" id="eluwqnq0sv20h"></path></g><path d="M388.65,247.23c7.37-.94,9.58-4.09,9.58-4.09-4.68-4.41-.79-12-.79-12l-8.87,1.66a27.37,27.37,0,0,1,.35,3.73c.06,5.38-2.37,5.43-2.37,5.43C385,244.83,388.65,247.23,388.65,247.23Z" style="fill: rgb(238, 193, 187); transform-origin: 392.198257px 239.184998px;" id="elv6do1p7wo4" class="animable"></path><g id="elxhnng17u8c9"><path d="M388.57,232.75a27.37,27.37,0,0,1,.35,3.73c6,0,8.52-5.39,8.52-5.39Z" style="opacity: 0.2; isolation: isolate; transform-origin: 393.005005px 233.784988px;" class="animable" id="elo1udnswprhh"></path></g><path d="M393.47,208c-7.71-.42-10.41,3.57-11.41,11.48-1.25,9.89.56,17.06,10.32,15.47C405.62,232.74,406.27,208.65,393.47,208Z" style="fill: rgb(238, 193, 187); transform-origin: 392.205887px 221.570564px;" id="elu9lu4rov7da" class="animable"></path><path d="M387.06,219.27a16.09,16.09,0,0,1-2.41,3.08,2.12,2.12,0,0,0,2,1Z" style="fill: rgb(212, 130, 125); transform-origin: 385.854996px 221.314491px;" id="elefxeaf21f7" class="animable"></path><path d="M391.82,218.9c-.05.64.25,1.17.67,1.21s.8-.46.85-1.09-.25-1.17-.67-1.2S391.87,218.27,391.82,218.9Z" style="fill: rgb(38, 50, 56); transform-origin: 392.580017px 218.965485px;" id="elp5wbbjk9x4" class="animable"></path><path d="M392.84,217.86l-1.33-.64S392.1,218.43,392.84,217.86Z" style="fill: rgb(38, 50, 56); transform-origin: 392.175003px 217.616325px;" id="el323meptiv7s" class="animable"></path><path d="M384,218.16c-.05.63.25,1.17.67,1.2s.8-.45.85-1.08-.25-1.18-.67-1.21S384,217.52,384,218.16Z" style="fill: rgb(38, 50, 56); transform-origin: 384.760025px 218.215004px;" id="elqvc9u8u6hl" class="animable"></path><path d="M385,217.12l-1.33-.65S384.25,217.68,385,217.12Z" style="fill: rgb(38, 50, 56); transform-origin: 384.335007px 216.868973px;" id="elo736um6gml8" class="animable"></path><path d="M395.47,215.28a.32.32,0,0,1-.28-.15,3.67,3.67,0,0,0-3-1.2.36.36,0,0,1-.37-.32.35.35,0,0,1,.32-.37,4.33,4.33,0,0,1,3.58,1.49.35.35,0,0,1-.07.48A.37.37,0,0,1,395.47,215.28Z" style="fill: rgb(38, 50, 56); transform-origin: 393.802353px 214.254784px;" id="el6avohirrufd" class="animable"></path><path d="M383.49,213.76a.34.34,0,0,1-.29-.17.34.34,0,0,1,.12-.47,3.9,3.9,0,0,1,3.42-.48.35.35,0,0,1,.18.45.35.35,0,0,1-.45.18,3.24,3.24,0,0,0-2.8.44A.41.41,0,0,1,383.49,213.76Z" style="fill: rgb(38, 50, 56); transform-origin: 385.048233px 213.101456px;" id="elvmy5vgqoow9" class="animable"></path><path d="M387.59,226.43a19.94,19.94,0,0,1,.75,2.72,4.18,4.18,0,0,0,.5,0c2.26-.1,3.27-.89,3.71-1.74a3.05,3.05,0,0,0,.29-1.35,3,3,0,0,0-.1-.78,10.61,10.61,0,0,1-4.38,1.12Z" style="fill: rgb(38, 50, 56); transform-origin: 390.21521px 227.218742px;" id="ellw77hmgquf" class="animable"></path><path d="M388.36,226.38l.24.8c2.12-.11,3.61-.46,4.24-1.14a3,3,0,0,0-.1-.78A10.61,10.61,0,0,1,388.36,226.38Z" style="fill: rgb(255, 255, 255); transform-origin: 390.59996px 226.220009px;" id="elmeihhjuww9f" class="animable"></path><path d="M388.84,229.13c2.26-.1,3.27-.89,3.71-1.74a7.26,7.26,0,0,0-2.49.61A2.71,2.71,0,0,0,388.84,229.13Z" style="fill: rgb(222, 87, 83); transform-origin: 390.694992px 228.260002px;" id="elaho858w68kl" class="animable"></path><path d="M401.19,221.4s-3.26-6.53-2.45-11.39c0,0-14.93-7.07-16.53,8.39,0,0-.74-13.85,12.52-13.43s12.15,19.8,5,25.2C399.72,230.17,403.2,225.49,401.19,221.4Z" style="fill: rgb(38, 50, 56); transform-origin: 393.578354px 217.565315px;" id="elgvylz1n16nh" class="animable"></path><path d="M399.84,223a3.38,3.38,0,0,1,3.81-2.89c2.37.39,3.24,5.36-2.77,6.21C400,226.41,399.59,225.55,399.84,223Z" style="fill: rgb(238, 193, 187); transform-origin: 402.608292px 223.202141px;" id="elljqrixtnqsi" class="animable"></path><path d="M396.69,209.25a29.31,29.31,0,0,0,4.49,18.14c4.34,6.55-.64,12.28-.64,12.28s10.29-3.55,5.8-18.15c0,0,4.84-13.05-4.68-16.56,0,0-.05-4-8.66-3.22s-15.53,8.13-16.85,17.53,3.59,19.89,3.59,19.89S374.53,205.84,396.69,209.25Z" style="fill: rgb(38, 50, 56); transform-origin: 391.747406px 220.654572px;" id="eloqy23vogd4" class="animable"></path><path d="M397.17,209.4a22.2,22.2,0,0,0-.64,6.84,34.37,34.37,0,0,0,1.11,6.89,29.36,29.36,0,0,0,2.59,6.52,18.78,18.78,0,0,0,4.36,5.47,19,19,0,0,1-4.58-5.35,29.91,29.91,0,0,1-2.85-6.5,34.38,34.38,0,0,1-1.38-7,23.07,23.07,0,0,1,.43-7.2Z" style="fill: rgb(38, 50, 56); transform-origin: 400.130386px 222.095009px;" id="el36w5m0e1143" class="animable"></path><g id="elc4yr8ifslnp"><path d="M405.91,264.44c.13-.48.26-1,.4-1.46-.93-3.26-1.89-.71-1.89-.71a19.09,19.09,0,0,0-.34,2.17Z" style="opacity: 0.2; isolation: isolate; transform-origin: 405.194992px 262.880524px;" class="animable" id="elwar4izq68w"></path></g><path d="M418.92,264.44C415.44,255.16,412,245,412,245c-7.14,2.82-7.53,17.43-7.53,17.43l1.12,2Z" style="fill: rgb(38, 50, 56); transform-origin: 411.695007px 254.720001px;" id="elyhxa4mtz24j" class="animable"></path><g id="el8effn21yw0m"><path d="M418.92,264.44C415.44,255.16,412,245,412,245c-7.14,2.82-7.53,17.43-7.53,17.43l1.12,2Z" style="fill: rgb(255, 255, 255); opacity: 0.3; isolation: isolate; transform-origin: 411.695007px 254.720001px;" class="animable" id="el2eh0tn4tftm"></path></g><g id="el5nwuou1spbj"><rect x="178.18" y="191.45" width="83.29" height="72.98" style="fill: rgb(255, 255, 255); opacity: 0.5; isolation: isolate; transform-origin: 219.825px 227.94px;" class="animable" id="elmq7lv3fkk6t"></rect></g><polygon points="220.97 203.32 212.61 211.69 210.88 211.69 210.88 203.32 220.97 203.32" style="fill: rgb(255, 255, 255); transform-origin: 215.925003px 207.505005px;" id="el3h0jtjvsrmu" class="animable"></polygon><polygon points="222.72 205.82 222.72 211.69 216.85 211.69 222.72 205.82" style="fill: rgb(255, 255, 255); transform-origin: 219.785004px 208.755005px;" id="el83b4r3s6qb5" class="animable"></polygon><polygon points="226.94 210.88 223.77 209.88 223.77 205.26 226.94 204.26 226.94 210.88" style="fill: rgb(255, 255, 255); transform-origin: 225.355003px 207.57px;" id="elql1e5o9h4y" class="animable"></polygon><path d="M218.91,219.36a11.86,11.86,0,1,1,8.38-3.47A11.78,11.78,0,0,1,218.91,219.36Zm0-22.71a10.86,10.86,0,1,0,7.68,18.53h0a10.86,10.86,0,0,0-7.68-18.53Z" style="fill: rgb(255, 255, 255); transform-origin: 218.906952px 207.499413px;" id="eldg13wxqdil" class="animable"></path><g id="elxcjef8gf599"><rect x="207.55" y="207.01" width="22.71" height="1" style="fill: rgb(255, 255, 255); transform-origin: 218.905px 207.51px; transform: rotate(-45deg);" class="animable" id="elaf1eofrkse"></rect></g></g><g id="freepik--Character--inject-61" style="transform-origin: 133.024818px 312.456291px;" class="animable"><path d="M83.75,397.8l24.78-2.43V360.54h9.82v34.82l24.89,2.44a4.83,4.83,0,0,1,4.35,4.81v3.72H79.39v-3.72A4.84,4.84,0,0,1,83.75,397.8Z" style="fill: rgb(38, 50, 56); transform-origin: 113.489998px 383.435013px;" id="el2zng175cob1" class="animable"></path><g id="elef4kgfw3jdo"><path d="M83.75,397.8l24.78-2.43V360.54h9.82v34.82l24.89,2.44a4.83,4.83,0,0,1,4.35,4.81v3.72H79.39v-3.72A4.84,4.84,0,0,1,83.75,397.8Z" style="fill: rgb(255, 255, 255); opacity: 0.3; isolation: isolate; transform-origin: 113.489998px 383.435013px;" class="animable" id="elh975tj24vi"></path></g><path d="M138.55,410.94a6.42,6.42,0,1,0,6.42-6.42A6.42,6.42,0,0,0,138.55,410.94Z" style="fill: #009CD5; transform-origin: 144.970001px 410.940018px;" id="elp31xq2tm1k" class="animable"></path><path d="M88.44,410.94A6.43,6.43,0,1,1,82,404.52,6.43,6.43,0,0,1,88.44,410.94Z" style="fill: #009CD5; transform-origin: 82.01001px 410.949951px;" id="elu2b0tsgqhgi" class="animable"></path><g id="elh0gue3k0x1u"><path d="M111,337h4.94a4.13,4.13,0,0,1,4.13,4.13V368a0,0,0,0,1,0,0H106.84a0,0,0,0,1,0,0V341.13A4.13,4.13,0,0,1,111,337Z" style="fill: rgb(38, 50, 56); transform-origin: 113.454998px 352.499939px; transform: rotate(180deg);" class="animable" id="els4ssd2p14l"></path></g><g id="elkhb2qzqdzn"><path d="M111,337h4.94a4.13,4.13,0,0,1,4.13,4.13V368a0,0,0,0,1,0,0H106.84a0,0,0,0,1,0,0V341.13A4.13,4.13,0,0,1,111,337Z" style="fill: rgb(255, 255, 255); opacity: 0.5; isolation: isolate; transform-origin: 113.454998px 352.499939px; transform: rotate(180deg);" class="animable" id="elbn95fw2g5nc"></path></g><path d="M90,282.55S88.09,329,101,337H86.26s-11.44-15.82-8.21-54.45Z" style="fill: rgb(38, 50, 56); transform-origin: 89.237679px 309.774994px;" id="elykaiyveykz" class="animable"></path><g id="elhg2k7wknrnd"><path d="M90,282.55S88.09,329,101,337H86.26s-11.44-15.82-8.21-54.45Z" style="fill: rgb(255, 255, 255); opacity: 0.5; isolation: isolate; transform-origin: 89.237679px 309.774994px;" class="animable" id="el5xzrv74wx9a"></path></g><path d="M86.23,330.5h56.17a5,5,0,0,1,5,5v5.06a0,0,0,0,1,0,0H81.23a0,0,0,0,1,0,0V335.5A5,5,0,0,1,86.23,330.5Z" style="fill: #009CD5; transform-origin: 114.314999px 335.529999px;" id="elaeqkqpc0mod" class="animable"></path><rect x="78.47" y="335.53" width="71.68" height="5.03" rx="2.01" style="fill: #009CD5; transform-origin: 114.31px 338.045px;" id="el6x2n8im9tr5" class="animable"></rect><g id="els147wt483bh"><rect x="78.47" y="335.53" width="71.68" height="5.03" rx="2.01" style="fill: rgb(255, 255, 255); opacity: 0.6; isolation: isolate; transform-origin: 114.31px 338.045px;" class="animable" id="el2zprq5pzs7v"></rect></g><g id="eldjy6pakaqkv"><rect x="61.89" y="257.65" width="48.74" height="34.34" rx="14.58" style="fill: #009CD5; transform-origin: 86.26px 274.82px; transform: rotate(180deg);" class="animable" id="elvhcj5blgbul"></rect></g><path d="M138.64,250.52c2.65,1.09,17.68,20.26,18.07,24.3.49,4.9-4.48,5.83-9.89,4.56s-1.31-6.58-1.31-6.58l-8.33-11.66Z" style="fill: rgb(38, 50, 56); transform-origin: 146.961723px 265.206673px;" id="elth9vjlhfqb" class="animable"></path><path d="M136.24,298.26h-19s3.66-25.1,4.26-25.46,13.88-1.25,13.88-1.25v14Z" style="fill: rgb(38, 50, 56); transform-origin: 126.740005px 284.905014px;" id="elmmcq6owil4h" class="animable"></path><path d="M114.58,243.71c.69-.14,7.94-3.14,11.88-.11s8.38,13.12,1.32,16.78-16.07,1.75-17.15-3.76S114.58,243.71,114.58,243.71Z" style="fill: rgb(38, 50, 56); transform-origin: 120.991699px 252.255608px;" id="elwb9i5gstlqn" class="animable"></path><path d="M108.93,221.08s-4.76,11-1.43,15.08,25.05,7.32,28.82,3.49-1.17-19-1.17-19Z" style="fill: rgb(38, 50, 56); transform-origin: 122.027725px 231.004761px;" id="elenzi0hpq3b" class="animable"></path><polygon points="194.31 382.38 188.65 383.74 185.79 375.93 183.19 368.83 189.63 366.08 192.11 374.7 194.31 382.38" style="fill: rgb(228, 137, 123); transform-origin: 188.75px 374.909988px;" id="elec02z4eeago" class="animable"></polygon><g id="elr6r89czci28"><polygon points="192.11 374.7 185.79 375.93 183.19 368.83 189.63 366.08 192.11 374.7" style="opacity: 0.2; isolation: isolate; transform-origin: 187.650002px 371.00499px;" class="animable" id="el5xnyk291gdh"></polygon></g><path d="M191.54,370.58l-7.84,2.91s-20.93-52.32-25.23-52.5-48.1,19.94-59.07,8.78,4.89-38.06,4.89-38.06,26.4-3.76,28.39,2.2a41.06,41.06,0,0,1,1.12,5.35c.3,1.82.5,3.35.5,3.35h0c.82-.2,27.32-7,37.76,0C182.69,309.79,191.54,370.58,191.54,370.58Z" style="fill: rgb(38, 50, 56); transform-origin: 143.53688px 332.014908px;" id="elq7eekekri8a" class="animable"></path><g id="el3tfk31vk0no"><path d="M191.54,370.58l-7.84,2.91s-20.93-52.32-25.23-52.5-48.1,19.94-59.07,8.78,4.89-38.06,4.89-38.06,26.4-3.76,28.39,2.2a41.06,41.06,0,0,1,1.12,5.35c.3,1.82.5,3.35.5,3.35h0c.82-.2,27.32-7,37.76,0C182.69,309.79,191.54,370.58,191.54,370.58Z" style="fill: rgb(255, 255, 255); opacity: 0.2; isolation: isolate; transform-origin: 143.53688px 332.014908px;" class="animable" id="el20sf0vv79y3"></path></g><polygon points="146.42 404.7 140.78 403.25 141.87 395.17 142.87 387.75 149.84 388.38 148.03 397.02 146.42 404.7" style="fill: rgb(228, 137, 123); transform-origin: 145.309998px 396.225006px;" id="elarnhujc34pd" class="animable"></polygon><g id="el2oqcq5gldzx"><polygon points="147.99 397.19 141.83 395.32 142.85 387.83 149.83 388.42 147.99 397.19" style="opacity: 0.2; isolation: isolate; transform-origin: 145.830002px 392.509995px;" class="animable" id="el7iijtfnig1g"></polygon></g><polygon points="180.46 370.59 191.88 366.71 192.37 371.39 183.71 374.45 180.46 370.59" style="fill: rgb(38, 50, 56); transform-origin: 186.415001px 370.580002px;" id="el6sn158g57sw" class="animable"></polygon><path d="M118.36,332.45s1.78.05,29.47-1.24c0,0-4.13,34.61-6.39,60.53l8.28,1.41s19.78-55.49,19.57-64.31S159,317.44,159,317.44,139.24,328.84,118.36,332.45Z" style="fill: rgb(38, 50, 56); transform-origin: 143.825836px 355.295013px;" id="el7ae110m25k9" class="animable"></path><g id="el90usaawbjvq"><path d="M118.36,332.45s1.78.05,29.47-1.24c0,0-4.13,34.61-6.39,60.53l8.28,1.41s19.78-55.49,19.57-64.31S159,317.44,159,317.44,139.24,328.84,118.36,332.45Z" style="fill: rgb(255, 255, 255); opacity: 0.1; isolation: isolate; transform-origin: 143.825836px 355.295013px;" class="animable" id="elvlyjsclnanh"></path></g><polygon points="140.23 389.23 151.61 390.52 149.41 394.98 140.2 393.8 140.23 389.23" style="fill: rgb(38, 50, 56); transform-origin: 145.904999px 392.105011px;" id="elzadgy3oefgq" class="animable"></polygon><g id="elxj7xchc0g1g"><path d="M134.3,302.61l-15.44,3.22s8.54-4.71,14.94-6.57C134.1,301.08,134.3,302.61,134.3,302.61Z" style="opacity: 0.3; isolation: isolate; transform-origin: 126.580002px 302.544983px;" class="animable" id="ely53i89xttf9"></path></g><polygon points="104.93 287.61 104.29 291.72 132.68 293.91 133.43 289.05 104.93 287.61" style="fill: rgb(38, 50, 56); transform-origin: 118.859997px 290.759995px;" id="elcgxj0046wiu" class="animable"></polygon><g id="eltmnwmgg7tja"><polygon points="104.93 287.61 104.29 291.72 132.68 293.91 133.43 289.05 104.93 287.61" style="opacity: 0.2; isolation: isolate; transform-origin: 118.859997px 290.759995px;" class="animable" id="el2d3hwsn64da"></polygon></g><g id="elt5xk6gbgti"><rect x="112.84" y="287.25" width="1.41" height="7.18" style="fill: rgb(38, 50, 56); transform-origin: 113.545px 290.84px; transform: rotate(5.87deg);" class="animable" id="elr2fshp9ako"></rect></g><g id="el1noy89a2k7hj"><rect x="120.41" y="288.84" width="6.23" height="4.73" style="fill: rgb(255, 255, 255); transform-origin: 123.525px 291.205px; transform: rotate(3.68deg);" class="animable" id="elkrkylpu378"></rect></g><g id="elduktsu23sfa"><rect x="130.27" y="288.02" width="1.41" height="7.18" style="fill: rgb(38, 50, 56); transform-origin: 130.975px 291.61px; transform: rotate(5.87deg);" class="animable" id="el16md9yhfjv7"></rect></g><g id="el7bjkd2vk3ns"><rect x="112.84" y="287.25" width="1.41" height="7.18" style="fill: rgb(255, 255, 255); opacity: 0.2; isolation: isolate; transform-origin: 113.545px 290.84px; transform: rotate(5.87deg);" class="animable" id="el70gzq7bfei4"></rect></g><g id="eljjzgswxlisn"><rect x="130.27" y="288.02" width="1.41" height="7.18" style="fill: rgb(255, 255, 255); opacity: 0.2; isolation: isolate; transform-origin: 130.975px 291.61px; transform: rotate(5.87deg);" class="animable" id="ela4z68w0gy56"></rect></g><path d="M136.78,249.9A33.17,33.17,0,0,0,121,244.78c-9.11-.47-17.3,4.55-17.3,4.55l1.21,38.28,28.5,1.44S142.42,263.51,136.78,249.9Z" style="fill: #009CD5; transform-origin: 121.168213px 266.89946px;" id="elnuw0alim1hq" class="animable"></path><path d="M135.39,224.32s4.11-18.49-13-16.66c-21.47,2.3-13.32,29-2.67,27.33S135.39,224.32,135.39,224.32Z" style="fill: rgb(38, 50, 56); transform-origin: 122.373589px 221.298866px;" id="elpxi7lgdkzxh" class="animable"></path><g id="elq7cakbk19vn"><path d="M131.86,249.09l.51,8.06-6.18-5.54s-.42,4-1.85,10.65a34.14,34.14,0,0,0-2.9-10l-5.84,5.94-3.82-9.11S123.48,240.61,131.86,249.09Z" style="opacity: 0.2; isolation: isolate; transform-origin: 122.074993px 253.790558px;" class="animable" id="el9x1m5gqjc6t"></path></g><path d="M124.07,255.63,121,248.05l-5.67-2.54c5-3.46,2.49-11.2,2.49-11.2l8.09,2.85a24.46,24.46,0,0,0-.87,3.45c-.84,5,1.43,5.44,1.43,5.44l-1.56,2.26Z" style="fill: rgb(228, 137, 123); transform-origin: 120.900002px 244.970009px;" id="elbpgs9l0n4v8" class="animable"></path><g id="el4a1q9zq4ukh"><path d="M125.9,237.16a24.46,24.46,0,0,0-.87,3.45c-3.87-1.55-7.22-6.3-7.22-6.3Z" style="opacity: 0.2; isolation: isolate; transform-origin: 121.855px 237.459999px;" class="animable" id="el8wqphp0v5nk"></path></g><path d="M126.18,213c7.31.63,9.32,4.74,9.21,12.31-.14,9.47-2.8,16-11.76,13.18C111.46,234.7,114.05,212,126.18,213Z" style="fill: rgb(228, 137, 123); transform-origin: 125.542778px 226.059853px;" id="eltbzetvs3t3g" class="animable"></path><path d="M130.7,224.5a15.55,15.55,0,0,0,1.87,3.21,2,2,0,0,1-2,.66Z" style="fill: rgb(222, 87, 83); transform-origin: 131.57px 226.4627px;" id="el5gasf0m0cnc" class="animable"></path><path d="M126.28,223.52c0,.6-.39,1.07-.79,1s-.7-.53-.66-1.13.39-1.07.79-1.05S126.32,222.92,126.28,223.52Z" style="fill: rgb(38, 50, 56); transform-origin: 125.554993px 223.433159px;" id="elv6p7qzxz8u" class="animable"></path><path d="M125.46,222.4l1.34-.43S126.08,223,125.46,222.4Z" style="fill: rgb(38, 50, 56); transform-origin: 126.129997px 222.278877px;" id="eldtrwqy7jn7m" class="animable"></path><path d="M133.77,223.86c0,.6-.4,1.07-.8,1s-.69-.53-.66-1.13.4-1.07.8-1.05S133.8,223.26,133.77,223.86Z" style="fill: rgb(38, 50, 56); transform-origin: 133.039993px 223.773155px;" id="elmi5zpgp629m" class="animable"></path><path d="M132.94,222.74l1.34-.43S133.56,223.37,132.94,222.74Z" style="fill: rgb(38, 50, 56); transform-origin: 133.610001px 222.624985px;" id="elg5x36b9qfnq" class="animable"></path><path d="M123.38,219.66a.35.35,0,0,1-.25-.1.35.35,0,0,1,0-.51,4.14,4.14,0,0,1,3.6-.94.37.37,0,0,1,.28.43.36.36,0,0,1-.43.28,3.5,3.5,0,0,0-2.93.73A.38.38,0,0,1,123.38,219.66Z" style="fill: rgb(38, 50, 56); transform-origin: 125.018192px 218.839249px;" id="el5b9nf8kmjen" class="animable"></path><path d="M134.84,219.83a.4.4,0,0,1-.23-.08,3.08,3.08,0,0,0-2.54-.79.36.36,0,0,1-.44-.25.37.37,0,0,1,.25-.45,3.79,3.79,0,0,1,3.18.92.36.36,0,0,1,.06.51A.35.35,0,0,1,134.84,219.83Z" style="fill: rgb(38, 50, 56); transform-origin: 133.408333px 219.017555px;" id="elsd5wf2vsqvp" class="animable"></path><path d="M117.14,224.62s3.93-5.7,3.81-10.38c0,0,15-4.67,14.44,10.08,0,0,2.53-12.92-10-14.29s-14.06,17-8,23C117.35,233.07,114.7,228.2,117.14,224.62Z" style="fill: rgb(38, 50, 56); transform-origin: 124.776329px 221.493774px;" id="elk2xhyrap9r" class="animable"></path><path d="M118.2,226.27A3.22,3.22,0,0,0,115,223c-2.28.06-3.76,4.61,1.77,6.21C117.57,229.48,118.09,228.73,118.2,226.27Z" style="fill: rgb(228, 137, 123); transform-origin: 115.577812px 226.131042px;" id="elzyzv0waviee" class="animable"></path><path d="M131,231.35a19.44,19.44,0,0,0-1.15,2.43l-.46-.1c-2.1-.47-2.91-1.37-3.18-2.24a2.69,2.69,0,0,1-.06-1.31,2.64,2.64,0,0,1,.22-.71,10.09,10.09,0,0,0,3.92,1.76C130.7,231.3,131,231.35,131,231.35Z" style="fill: rgb(38, 50, 56); transform-origin: 128.548061px 231.599991px;" id="eljxe53rwhol" class="animable"></path><path d="M130.27,231.18l-.36.71c-2-.44-3.3-1-3.78-1.76a2.64,2.64,0,0,1,.22-.71A10.09,10.09,0,0,0,130.27,231.18Z" style="fill: rgb(255, 255, 255); transform-origin: 128.200005px 230.654999px;" id="el7kkig95q84o" class="animable"></path><path d="M129.37,233.68c-2.1-.47-2.91-1.37-3.18-2.24a7,7,0,0,1,2.22,1A2.64,2.64,0,0,1,129.37,233.68Z" style="fill: rgb(222, 87, 83); transform-origin: 127.780003px 232.55999px;" id="el7b89ev4qm3e" class="animable"></path><path d="M126,213.54s-4,11.76-11.53,11,5.43-15,5.43-15,12.76-3.6,18.29,3.48-2.78,11.36-2.78,11.36S136.65,215.05,126,213.54Z" style="fill: rgb(38, 50, 56); transform-origin: 126.103363px 216.60006px;" id="eldrms5snds6h" class="animable"></path><path d="M119.93,223.58a.25.25,0,0,1-.23-.16.26.26,0,0,1,.15-.33c6-2.27,5.88-10.33,5.88-10.41a.25.25,0,0,1,.25-.25.24.24,0,0,1,.25.24c0,.08.12,8.49-6.21,10.89Z" style="fill: rgb(38, 50, 56); transform-origin: 122.957405px 218.004875px;" id="el7njxtdl8rv" class="animable"></path><polygon points="117.51 242.55 120.99 248.05 116.63 255.63 113.47 245.9 117.51 242.55" style="fill: #009CD5; transform-origin: 117.23px 249.090004px;" id="elgk38my78fe" class="animable"></polygon><polygon points="124.9 243.6 124.9 248.31 130.05 254 128.37 245.83 124.9 243.6" style="fill: #009CD5; transform-origin: 127.475002px 248.800003px;" id="el3f2sjv1kqxh" class="animable"></polygon><path d="M203.67,393.36a7.74,7.74,0,0,0-2.72-.69h0s-3.27-1.92-6.51-9.39l-3.64,0a3,3,0,0,0-2.8,2,1.71,1.71,0,0,0-.1.5,21.13,21.13,0,0,0,.28,2.63,73,73,0,0,0,2.13,8.56l.61-.15-1.12-5.44c-.37-1.84,1.57-.06,2.47,1.8s2.28,3.74,6.3,2.82C203.26,394.88,205.14,394.21,203.67,393.36Z" style="fill: rgb(38, 50, 56); transform-origin: 196.029816px 390.124969px;" id="el9t90kiprn7m" class="animable"></path><path d="M193.78,381.32s4.55,9.51,7.17,11.35c0,0-3.51,2.09-7.17-2.57-4.73-6-5.88-4.34-5.88-4.34a17,17,0,0,1,.57-3.07C189.18,380.75,193.78,381.32,193.78,381.32Z" style="fill: rgb(228, 137, 123); transform-origin: 194.424995px 387.18959px;" id="eldnluptb6sjh" class="animable"></path><path d="M153.59,416a7.8,7.8,0,0,0-2.48-1.32h0s-2.72-2.64-4.1-10.67l-3.53-.88a3,3,0,0,0-3.19,1.28,1.56,1.56,0,0,0-.22.47,20.72,20.72,0,0,0-.35,2.61,71.91,71.91,0,0,0,0,8.83h.63l.2-5.54c.08-1.88,1.54.31,2,2.33s1.33,4.17,5.45,4.23C152.83,417.41,154.82,417.2,153.59,416Z" style="fill: rgb(38, 50, 56); transform-origin: 146.764709px 410.201904px;" id="elay2iastjr7t" class="animable"></path><path d="M146.84,402s2.16,10.33,4.27,12.73c0,0-3.91,1.2-6.36-4.19-3.16-7-4.68-5.61-4.68-5.61a16.7,16.7,0,0,1,1.28-2.85C142.5,400.34,146.84,402,146.84,402Z" style="fill: rgb(228, 137, 123); transform-origin: 145.590004px 408.064636px;" id="els6j2a8yj65" class="animable"></path><path d="M112.55,245.45s8.87,26.35-3.63,56.27l-12.14-1.58,7.51-17-1.64-34.24Z" style="fill: rgb(38, 50, 56); transform-origin: 106.191299px 273.584999px;" id="el5c48s9t4syl" class="animable"></path><path d="M129.37,246.39s4.06,6.54,3.57,26.41l2.45,28.13,2.36-1.67-1.93-13.72s5.13-24.15,2.82-35Z" style="fill: rgb(38, 50, 56); transform-origin: 134.303886px 273.659996px;" id="elglno38f5s1s" class="animable"></path><path d="M126.46,243.6s6.89,3.62,10.41,8.57l-2.57,2.37,3.45,5-4.81,13.21S130.33,248,126.46,243.6Z" style="fill: rgb(38, 50, 56); transform-origin: 132.104992px 258.175003px;" id="elipw1m8i5okc" class="animable"></path><g id="elnr3tnkij5d9"><path d="M126.46,243.6s6.89,3.62,10.41,8.57l-2.57,2.37,3.45,5-4.81,13.21S130.33,248,126.46,243.6Z" style="fill: rgb(255, 255, 255); opacity: 0.2; isolation: isolate; transform-origin: 132.104992px 258.175003px;" class="animable" id="elp0j9ixfrgm8"></path></g><path d="M114.58,243.71s3.16,18,.74,30.51l-7.56-17.13,4.33-4.16-5.77-4.12A20.67,20.67,0,0,1,114.58,243.71Z" style="fill: rgb(38, 50, 56); transform-origin: 111.276173px 258.965004px;" id="el08yetqv0a3" class="animable"></path><g id="elxf4oz6i7pg"><path d="M114.58,243.71s3.16,18,.74,30.51l-7.56-17.13,4.33-4.16-5.77-4.12A20.67,20.67,0,0,1,114.58,243.71Z" style="fill: rgb(255, 255, 255); opacity: 0.2; isolation: isolate; transform-origin: 111.276173px 258.965004px;" class="animable" id="eli7n3znvag9t"></path></g><path d="M123.53,275.43l10.23.72a10.33,10.33,0,0,1,2.68-1.26c1.25-.3,8.52-1.09,9.84-.58s2.5,4.82,2.38,5.71-11.11,1.19-11.46,1.22-1.6-1.13-1.6-1.13L123.53,280Z" style="fill: rgb(228, 137, 123); transform-origin: 136.099205px 277.691574px;" id="elpnwgobf5kl" class="animable"></path><path d="M102.65,248.86c-6.66,4-10.29,25.55-5.87,28.92s34.79,3.46,34.79,3.46l1-6.42s-26.09-2.61-27.42-5.14-.86-12.53-.86-12.53Z" style="fill: rgb(38, 50, 56); transform-origin: 113.704884px 265.049995px;" id="elx6wje312j5" class="animable"></path></g><g id="freepik--Table--inject-61" style="transform-origin: 205.910011px 316.755005px;" class="animable"><polygon points="220.44 417.37 225.71 417.37 235.18 285.54 228.19 285.54 220.44 417.37" style="fill: rgb(38, 50, 56); transform-origin: 227.809998px 351.455002px;" id="elivhg20px14c" class="animable"></polygon><g id="elr3umkh3it2c"><polygon points="220.44 417.37 225.71 417.37 234.72 292.09 235.18 285.76 228.19 285.76 227.81 292.09 220.44 417.37" style="fill: rgb(255, 255, 255); opacity: 0.7; isolation: isolate; transform-origin: 227.809998px 351.565002px;" class="animable" id="elvmohomk7ce"></polygon></g><g id="el1x5bwve81mt"><polygon points="227.81 291.78 234.72 291.78 235.18 285.76 228.19 285.76 227.81 291.78" style="opacity: 0.2; isolation: isolate; transform-origin: 231.494995px 288.770004px;" class="animable" id="elijy6volrro"></polygon></g><polygon points="181.77 417.37 187.04 417.37 187.9 285.54 180.91 285.54 181.77 417.37" style="fill: rgb(38, 50, 56); transform-origin: 184.404999px 351.455002px;" id="el01m6qegamfnb" class="animable"></polygon><g id="el598oy0tx1ve"><polygon points="180.9 285.76 181.04 307.02 181.76 417.37 187.04 417.37 187.76 307.02 187.9 285.76 180.9 285.76" style="fill: rgb(255, 255, 255); opacity: 0.7; isolation: isolate; transform-origin: 184.399994px 351.565002px;" class="animable" id="el67xnzwfukn"></polygon></g><g id="elsci9tblntzc"><polygon points="180.9 285.76 181.04 307.26 187.76 307.26 187.9 285.76 180.9 285.76" style="opacity: 0.2; isolation: isolate; transform-origin: 184.399994px 296.51001px;" class="animable" id="elh0dyssehw5"></polygon></g><polygon points="125.82 417.37 131.09 417.37 140.56 285.54 133.57 285.54 125.82 417.37" style="fill: rgb(38, 50, 56); transform-origin: 133.189999px 351.455002px;" id="el9vke3b7gelb" class="animable"></polygon><g id="elzsx70i1hgzq"><polygon points="125.82 417.37 131.09 417.37 140.1 292.09 140.56 285.76 133.57 285.76 133.19 292.09 125.82 417.37" style="fill: rgb(255, 255, 255); opacity: 0.7; isolation: isolate; transform-origin: 133.189999px 351.565002px;" class="animable" id="elzv8i47ixzo"></polygon></g><g id="elhbhfbt6y3w"><polygon points="133.19 291.78 140.1 291.78 140.56 285.76 133.57 285.76 133.19 291.78" style="opacity: 0.2; isolation: isolate; transform-origin: 136.875px 288.770004px;" class="animable" id="el8w4w1ukhz93"></polygon></g><polygon points="280.73 417.37 286 417.37 278.25 285.54 271.26 285.54 280.73 417.37" style="fill: rgb(38, 50, 56); transform-origin: 278.630005px 351.455002px;" id="elbinkhi6xxdl" class="animable"></polygon><g id="el0ppbeyhni4i"><polygon points="271.26 285.76 271.72 292.09 280.73 417.37 285.99 417.37 278.63 292.09 278.25 285.76 271.26 285.76" style="fill: rgb(255, 255, 255); opacity: 0.7; isolation: isolate; transform-origin: 278.625px 351.565002px;" class="animable" id="elch04ljs6vm"></polygon></g><g id="eljaiy18slsa"><polygon points="278.25 285.76 271.26 285.76 271.72 291.78 278.63 291.78 278.25 285.76" style="opacity: 0.2; isolation: isolate; transform-origin: 274.945007px 288.770004px;" class="animable" id="ellg68bvxmv4"></polygon></g><g id="elob21wtw2v5"><path d="M130.19,282.24H281.63a2.16,2.16,0,0,1,2.16,2.16v4.44a0,0,0,0,1,0,0H128a0,0,0,0,1,0,0V284.4A2.16,2.16,0,0,1,130.19,282.24Z" style="fill: #009CD5; transform-origin: 205.895004px 285.539886px; transform: rotate(180deg);" class="animable" id="eld3bzk4xj0cp"></path></g><g id="el8wgy90s6jdh"><path d="M130.19,282.24H281.63a2.16,2.16,0,0,1,2.16,2.16v4.44a0,0,0,0,1,0,0H128a0,0,0,0,1,0,0V284.4A2.16,2.16,0,0,1,130.19,282.24Z" style="fill: rgb(255, 255, 255); opacity: 0.6; isolation: isolate; transform-origin: 205.895004px 285.539886px; transform: rotate(180deg);" class="animable" id="elx1ik54addt"></path></g><g id="elhvrbn0v5fk"><rect x="128.02" y="282.24" width="155.77" height="3.3" style="opacity: 0.2; isolation: isolate; transform-origin: 205.905px 283.89px; transform: rotate(180deg);" class="animable" id="eliy39mu9ni5g"></rect></g><path d="M124.76,283.1h162.3a1.86,1.86,0,0,0,1.86-1.86h0a1.87,1.87,0,0,0-1.86-1.86H124.76a1.86,1.86,0,0,0-1.86,1.86h0A1.86,1.86,0,0,0,124.76,283.1Z" style="fill: #009CD5; transform-origin: 205.910011px 281.240036px;" id="elazbhecwafp" class="animable"></path><g id="el48vyu49at3k"><path d="M124.76,283.1h162.3a1.86,1.86,0,0,0,1.86-1.86h0a1.87,1.87,0,0,0-1.86-1.86H124.76a1.86,1.86,0,0,0-1.86,1.86h0A1.86,1.86,0,0,0,124.76,283.1Z" style="fill: rgb(255, 255, 255); opacity: 0.6; isolation: isolate; transform-origin: 205.910011px 281.240036px;" class="animable" id="ell2g72l7sgsl"></path></g><polygon points="220.5 279.38 219.65 276.18 184.77 276.18 168.71 277.78 168.09 279.38 220.5 279.38" style="fill: rgb(38, 50, 56); transform-origin: 194.294998px 277.779999px;" id="el2afd5423478" class="animable"></polygon><g id="elq2inrzrbiam"><polygon points="184.77 276.18 184.77 279.38 220.5 279.38 219.65 276.18 184.77 276.18" style="opacity: 0.4; isolation: isolate; transform-origin: 202.635002px 277.779999px;" class="animable" id="elctof78x7muk"></polygon></g><path d="M191.78,260.82a2.74,2.74,0,0,0,2.77,3.07H248a3.44,3.44,0,0,0,3.35-3.07l3.17-34.21a2.76,2.76,0,0,0-2.77-3.07H198.3a3.42,3.42,0,0,0-3.35,3.07Z" style="fill: rgb(38, 50, 56); transform-origin: 223.148727px 243.715164px;" id="elvs78syqy9p" class="animable"></path><g id="elk4oyukmswj"><path d="M194.73,263.89H248a3.44,3.44,0,0,0,3.35-3.07l3.17-34.21a2.74,2.74,0,0,0-.07-1H201.19a3.44,3.44,0,0,0-3.35,3.07l-3.17,34.21A3,3,0,0,0,194.73,263.89Z" style="opacity: 0.4; isolation: isolate; transform-origin: 224.595192px 244.750015px;" class="animable" id="elrnpp320rnu"></path></g><polygon points="231.45 242.91 220.39 242.91 223.34 274.56 205.86 277.18 205.86 279.38 242.67 279.38 242.67 277.18 235.13 274.56 231.45 242.91" style="fill: rgb(38, 50, 56); transform-origin: 224.264999px 261.145004px;" id="el641zcpo5hnf" class="animable"></polygon><g id="el55lem9h8x34"><polygon points="220.39 242.91 228.58 278.88 235.13 278.69 231.45 242.91 220.39 242.91" style="fill: rgb(255, 255, 255); opacity: 0.1; isolation: isolate; transform-origin: 227.760002px 260.895004px;" class="animable" id="el2dx1o1fequ7"></polygon></g><rect x="224.16" y="221.21" width="2.13" height="3.71" style="fill: rgb(38, 50, 56); transform-origin: 225.225px 223.065px;" id="els8q62pxdgmk" class="animable"></rect><path d="M224.16,221.07h-2.57a3.53,3.53,0,0,1-.37-1.69,3.28,3.28,0,0,1,.37-1.68h2.57Z" style="fill: rgb(38, 50, 56); transform-origin: 222.688065px 219.38501px;" id="elz6567ivkwph" class="animable"></path><path d="M228.55,219.24a3.1,3.1,0,1,1-3.1-3.1A3.09,3.09,0,0,1,228.55,219.24Z" style="fill: rgb(38, 50, 56); transform-origin: 225.450012px 219.240013px;" id="eloe4g71f08u8" class="animable"></path><g id="eldxmeccp0l84"><path d="M228.55,219.24a3.1,3.1,0,1,1-3.1-3.1A3.09,3.09,0,0,1,228.55,219.24Z" style="fill: rgb(255, 255, 255); opacity: 0.1; isolation: isolate; transform-origin: 225.450012px 219.240013px;" class="animable" id="elh4xkoxs9mr8"></path></g><path d="M263.23,255.49v23.89H251.32a95.23,95.23,0,0,1,3.47-24.55,2.43,2.43,0,0,1,2.34-1.77h3.67A2.43,2.43,0,0,1,263.23,255.49Z" style="fill: rgb(38, 50, 56); transform-origin: 257.275009px 266.220001px;" id="el01gpixsqz3ri" class="animable"></path><g id="elcrs1o894dca"><path d="M263.23,255.49v23.89h-6v-23a3.31,3.31,0,0,1,3.31-3.31h.22A2.43,2.43,0,0,1,263.23,255.49Z" style="opacity: 0.4; isolation: isolate; transform-origin: 260.230026px 266.224846px;" class="animable" id="el25mxdbntntg"></path></g><path d="M187.23,255.49v23.89H175.32a95.23,95.23,0,0,1,3.47-24.55,2.43,2.43,0,0,1,2.34-1.77h3.67A2.43,2.43,0,0,1,187.23,255.49Z" style="fill: rgb(38, 50, 56); transform-origin: 181.275002px 266.220001px;" id="elbaqnz8sygmv" class="animable"></path><g id="elecf0l576s65"><path d="M187.23,255.49v23.89h-6v-23a3.31,3.31,0,0,1,3.31-3.31h.22A2.43,2.43,0,0,1,187.23,255.49Z" style="opacity: 0.4; isolation: isolate; transform-origin: 184.230003px 266.224846px;" class="animable" id="el1z7kjirgrkjh"></path></g></g><defs>     <filter id="active" height="200%">         <feMorphology in="SourceAlpha" result="DILATED" operator="dilate" radius="2"></feMorphology>                <feFlood flood-color="#32DFEC" flood-opacity="1" result="PINK"></feFlood>        <feComposite in="PINK" in2="DILATED" operator="in" result="OUTLINE"></feComposite>        <feMerge>            <feMergeNode in="OUTLINE"></feMergeNode>            <feMergeNode in="SourceGraphic"></feMergeNode>        </feMerge>    </filter>    <filter id="hover" height="200%">        <feMorphology in="SourceAlpha" result="DILATED" operator="dilate" radius="2"></feMorphology>                <feFlood flood-color="#ff0000" flood-opacity="0.5" result="PINK"></feFlood>        <feComposite in="PINK" in2="DILATED" operator="in" result="OUTLINE"></feComposite>        <feMerge>            <feMergeNode in="OUTLINE"></feMergeNode>            <feMergeNode in="SourceGraphic"></feMergeNode>        </feMerge>            <feColorMatrix type="matrix" values="0   0   0   0   0                0   1   0   0   0                0   0   0   0   0                0   0   0   1   0 "></feColorMatrix>    </filter></defs></svg>