<svg width="686" height="667" viewBox="0 0 686 667" fill="none" xmlns="http://www.w3.org/2000/svg">
<path d="M217.056 81.4424L208.067 86.6327C208.11 86.2307 208.142 85.8328 208.142 85.4431V82.8391C208.142 78.2045 204.889 76.3262 200.875 78.6435C199.249 79.582 197.753 81.0692 196.543 82.8089C195.886 76.982 191.314 74.8115 185.761 78.0165C179.757 81.4835 174.889 89.9145 174.889 96.8472V100.744C174.889 102.54 175.221 104.052 175.809 105.258L168.343 109.568C166.116 110.854 164.312 113.979 164.312 116.55C164.312 119.122 166.116 120.163 168.343 118.877L217.056 90.7542C219.283 89.4686 221.087 86.3432 221.087 83.772C221.087 81.1995 219.283 80.1568 217.056 81.4424Z" fill="#EBEBEB"/>
<path d="M157.635 57.5651L152.676 59.4722V48.5483C152.676 39.8882 145.77 37.8124 138.27 42.1424C130.771 46.4725 124.691 57.0026 124.691 65.6612V67.2473C122.99 66.5681 120.792 66.8316 118.39 68.2187C112.992 71.3345 108.619 78.912 108.619 85.1437V85.8639L101.705 89.8565C98.1515 91.9076 95.2703 96.8976 95.2703 101.001C95.2703 105.105 98.1515 106.768 101.705 104.717L157.636 72.4252C161.189 70.3727 164.071 65.3827 164.071 61.2791C164.069 57.1768 161.188 55.5126 157.635 57.5651Z" fill="#EBEBEB"/>
<path d="M83.6015 457.636L92.9393 452.24C92.9393 452.24 98.4973 429.146 96.2829 408.366C93.1684 379.149 73.9371 368.157 66.6243 370.676C59.3116 373.195 57.1932 381.697 69.2942 399.098C76.4328 409.365 85.2026 430.749 83.6015 457.636Z" fill="#27DEBF"/>
<g opacity="0.15">
<path d="M83.6015 457.636L92.9393 452.24C92.9393 452.24 98.4973 429.146 96.2829 408.366C93.1684 379.149 73.9371 368.157 66.6243 370.676C59.3116 373.195 57.1932 381.697 69.2942 399.098C76.4328 409.365 85.2026 430.749 83.6015 457.636Z" fill="black"/>
</g>
<path d="M87.4705 446.291C87.4403 446.29 87.4115 446.286 87.3813 446.28C87.0301 446.213 86.7982 445.874 86.8655 445.523C91.9844 418.575 82.5711 388.294 70.9132 375.694C70.6704 375.431 70.6855 375.021 70.9489 374.778C71.2123 374.538 71.6212 374.552 71.864 374.814C83.7332 387.644 93.3317 418.42 88.1373 445.764C88.0783 446.085 87.7874 446.306 87.4705 446.291Z" fill="white"/>
<path d="M57.7996 475.855C56.3247 476.605 52.4008 473.248 51.3073 472.431C49.4359 471.033 47.9583 469.114 47.0198 466.979C45.9277 464.494 45.7535 461.882 46.2693 459.22C46.5369 457.84 46.9938 456.505 47.4506 455.174C47.8979 453.868 48.3465 452.564 48.7938 451.257C49.2356 449.969 49.6829 448.635 49.5786 447.277C49.3673 444.541 47.0514 442.515 44.9399 440.762C42.6061 438.823 40.201 436.298 40.3793 433.026C40.5179 430.502 41.9434 428.223 43.6077 426.32C45.2719 424.417 47.2174 422.76 48.7376 420.739C49.831 419.284 50.7146 417.556 50.6405 415.736C50.5939 414.606 50.1809 413.523 49.6939 412.504C48.6456 410.314 47.2188 408.286 46.5382 405.957C45.8564 403.627 46.1129 400.786 47.983 399.238C49.5169 397.968 51.7066 397.889 53.685 398.121C55.5152 398.335 57.2673 399.254 58.83 400.229C63.8803 403.38 66.5352 409.683 71.9353 412.184C74.018 413.149 76.3395 413.455 78.5264 414.152C80.7134 414.85 82.9168 416.096 83.8402 418.198C85.6608 422.342 81.6532 427.135 82.8592 431.496C83.9266 435.357 87.5432 436.997 89.4434 440.523C90.2735 442.065 90.3956 443.806 90.1624 445.543C89.7659 448.482 89.2253 450.626 87.6434 453.838C86.3359 456.492 82.6548 461.508 82.6548 461.508C82.6548 461.508 58.026 475.739 57.7996 475.855Z" fill="#27DEBF"/>
<path d="M72.0931 468.405C72.0849 468.405 72.0753 468.404 72.0753 468.404C71.709 468.369 71.4483 468.054 71.4799 467.698C73.8438 442.067 63.1724 413.101 54.7867 404.419C54.5384 404.162 54.5453 403.752 54.8032 403.503C55.0611 403.254 55.47 403.262 55.7197 403.519C64.2727 412.375 75.1678 441.825 72.7709 467.818C72.7394 468.165 72.4389 468.421 72.0931 468.405Z" fill="white"/>
<path d="M69.5481 436.801C69.4849 436.798 69.4205 436.786 69.3587 436.763C61.2351 433.795 50.9725 432.826 50.871 432.818C50.5143 432.785 50.2522 432.47 50.2852 432.113C50.3181 431.758 50.6035 431.489 50.9904 431.527C51.0947 431.538 61.5205 432.52 69.8046 435.547C70.1408 435.669 70.3136 436.041 70.1901 436.377C70.0886 436.65 69.8238 436.816 69.5481 436.801Z" fill="white"/>
<path d="M63.9558 490.86L228.162 585.648C233.491 588.725 239.771 588.79 245.294 585.969L575.885 395.091C581.093 392.083 585.316 385.358 585.317 380.069C585.319 374.78 581.097 368.054 575.889 365.048L412.29 270.594C407.104 267.599 398.617 267.599 393.429 270.594L63.9558 460.819C58.7477 463.826 54.526 470.551 54.526 475.84C54.526 481.129 58.7477 487.854 63.9558 490.86Z" fill="#37474F"/>
<path d="M228.162 585.647L63.9558 490.86C58.7477 487.853 54.526 481.129 54.526 475.839C54.526 470.55 58.7477 463.825 63.9558 460.819L237.098 360.854V588C234.023 588.028 230.961 587.264 228.162 585.647Z" fill="#263238"/>
<path d="M232.068 568.758C236.641 571.398 244.125 571.398 248.698 568.758L575.929 379.834C582.964 375.773 582.964 369.126 575.929 365.063L412.304 270.594C407.118 267.599 398.63 267.599 393.443 270.594L63.9709 460.819C58.7847 463.814 58.7847 468.714 63.9709 471.709L232.068 568.758Z" fill="#455A64"/>
<path d="M247.96 549.736C252.909 552.594 260.934 552.594 265.883 549.736L547.454 387.169C552.403 384.311 552.403 379.679 547.454 376.821L393.529 287.962C388.601 285.117 380.535 285.117 375.607 287.962L94.0342 450.531C89.1059 453.376 89.1059 458.033 94.0342 460.878L247.96 549.736Z" fill="#37474F"/>
<path d="M385.114 285.858C388.177 285.934 391.204 286.62 393.529 287.963L547.454 376.822C552.403 379.68 552.403 384.313 547.454 387.17L516.944 404.786L385.114 320.603V285.858Z" fill="#263238"/>
<path d="M375.5 294.691C380.428 291.845 388.494 291.845 393.422 294.691L547.348 383.55C548.327 384.114 549.098 384.752 549.688 385.427C549.111 386.054 548.369 386.642 547.454 387.169L265.883 549.736C260.934 552.594 252.909 552.594 247.96 549.736L94.0341 460.878C93.0682 460.32 92.2972 459.692 91.71 459.022C92.2835 458.388 93.0079 457.79 93.9285 457.259L375.5 294.691Z" fill="#FAFAFA"/>
<path d="M491.19 335.26L463.91 319.51C462.283 318.57 462.201 317.094 463.728 316.213C465.255 315.331 467.812 315.379 469.439 316.318L496.719 332.069C498.346 333.009 498.428 334.485 496.901 335.366C495.374 336.247 492.818 336.2 491.19 335.26Z" fill="#263238"/>
<path d="M444.346 308.256C442.818 307.373 442.818 305.945 444.346 305.063C445.873 304.182 448.348 304.182 449.875 305.063C451.402 305.945 451.402 307.373 449.875 308.256C448.348 309.136 445.873 309.136 444.346 308.256Z" fill="#263238"/>
<path d="M433.287 301.862C431.76 300.981 431.76 299.552 433.287 298.669C434.814 297.789 437.289 297.789 438.816 298.669C440.343 299.552 440.343 300.98 438.816 301.862C437.289 302.743 434.814 302.743 433.287 301.862Z" fill="#263238"/>
<path d="M521.757 352.941C520.229 352.06 520.229 350.631 521.757 349.749C523.284 348.866 525.759 348.866 527.286 349.749C528.813 350.631 528.813 352.059 527.286 352.941C525.759 353.822 523.284 353.822 521.757 352.941Z" fill="#263238"/>
<path d="M510.698 346.548C509.171 345.665 509.171 344.237 510.698 343.355C512.225 342.473 514.7 342.473 516.227 343.355C517.754 344.237 517.754 345.665 516.227 346.548C514.7 347.43 512.225 347.43 510.698 346.548Z" fill="#263238"/>
<path d="M241.082 504.33V504.925C241.082 505.878 241.751 507.036 242.575 507.512L274.606 526.005C275.43 526.481 276.768 526.481 277.591 526.005L330.631 495.382C331.456 494.906 332.124 493.748 332.124 492.796V492.2C332.124 491.248 331.456 490.09 330.631 489.614L298.601 471.121C297.776 470.645 296.438 470.645 295.615 471.121L242.575 501.744C241.751 502.22 241.082 503.378 241.082 504.33Z" fill="#27DEBF"/>
<path d="M241.082 504.33V504.925C241.082 505.878 241.751 507.036 242.575 507.512L274.606 526.005C275.43 526.481 276.768 526.481 277.591 526.005L330.631 495.382C331.456 494.906 332.124 493.748 332.124 492.796V492.2C332.124 491.248 331.456 490.09 330.631 489.614L298.601 471.121C297.776 470.645 296.438 470.645 295.615 471.121L242.575 501.744C241.751 502.22 241.082 503.378 241.082 504.33Z" fill="#27DEBF"/>
<path opacity="0.3" d="M330.633 489.614L298.602 471.121C297.778 470.645 296.44 470.645 295.615 471.121L276.099 482.389V526.362H276.097C276.638 526.362 277.178 526.242 277.591 526.005L330.631 495.382C331.456 494.906 332.124 493.748 332.124 492.796V492.2C332.126 491.248 331.457 490.09 330.633 489.614Z" fill="white"/>
<path opacity="0.15" d="M330.633 489.614L298.602 471.121C297.778 470.645 296.44 470.645 295.615 471.121L276.099 482.389V526.362H276.097C276.638 526.362 277.178 526.242 277.591 526.005L330.631 495.382C331.456 494.906 332.124 493.748 332.124 492.796V492.2C332.126 491.248 331.457 490.09 330.633 489.614Z" fill="black"/>
<path opacity="0.3" d="M276.1 482.389L242.576 501.743C241.752 502.22 241.084 503.378 241.084 504.33V504.925C241.084 505.877 241.752 507.035 242.576 507.511L274.607 526.005C275.019 526.242 275.559 526.361 276.1 526.361H276.101V482.389H276.1Z" fill="white"/>
<path opacity="0.2" d="M276.1 482.389L242.576 501.743C241.752 502.22 241.084 503.378 241.084 504.33V504.925C241.084 505.877 241.752 507.035 242.576 507.511L274.607 526.005C275.019 526.242 275.559 526.361 276.1 526.361H276.101V482.389H276.1Z" fill="black"/>
<path d="M269.477 519L242.575 503.467C241.751 502.991 241.751 502.219 242.575 501.743L295.615 471.12C296.44 470.644 297.778 470.644 298.601 471.12L330.631 489.613C331.456 490.089 331.456 490.861 330.631 491.338L321.833 496.418L318.753 498.196L277.591 521.961C276.767 522.437 275.429 522.437 274.604 521.961L271.995 520.454L269.477 519Z" fill="#27DEBF"/>
<path opacity="0.3" d="M269.477 519L242.575 503.467C241.751 502.991 241.751 502.219 242.575 501.743L295.615 471.12C296.44 470.644 297.778 470.644 298.601 471.12L330.631 489.613C331.456 490.089 331.456 490.861 330.631 491.338L321.833 496.418L318.753 498.196L277.591 521.961C276.767 522.437 275.429 522.437 274.604 521.961L271.995 520.454L269.477 519Z" fill="white"/>
<path opacity="0.15" d="M293.899 493.198L330.633 489.615L294.223 491.677L298.602 471.123C298.155 470.865 297.561 470.759 296.975 470.781L290.105 498.564L241.969 502.535C241.934 502.871 242.131 503.214 242.575 503.47L281.449 501.213L276.099 522.32L282.941 501.127L289.58 500.741C290.415 500.693 291.178 500.356 291.771 499.826H291.775L291.776 499.821C292.329 499.324 292.734 498.66 292.897 497.895L293.899 493.198Z" fill="black"/>
<path opacity="0.3" d="M253.455 501.586L290.107 498.564L291.418 493.312L292.143 490.388L296.982 470.779C296.486 470.797 295.997 470.903 295.617 471.122L269.096 486.434L242.575 501.745C242.195 501.965 241.999 502.247 241.969 502.534L249.32 501.928L253.455 501.586Z" fill="white"/>
<path d="M291.044 466.736C294.394 464.803 299.825 464.803 303.175 466.736C306.524 468.671 306.524 471.806 303.175 473.74C299.826 475.675 294.394 475.675 291.044 473.74C287.695 471.806 287.695 468.669 291.044 466.736Z" fill="#F28F8F"/>
<path d="M292.873 471.39C292.766 471.382 292.682 471.353 292.62 471.304C292.561 471.254 292.538 471.197 292.552 471.135L293.054 468.93C293.067 468.877 293.085 468.811 293.11 468.735C293.133 468.66 293.194 468.594 293.294 468.535L294.522 467.826C294.596 467.785 294.686 467.763 294.793 467.763C294.902 467.763 294.991 467.785 295.065 467.826L301.56 471.577C301.633 471.618 301.67 471.672 301.671 471.733C301.67 471.795 301.634 471.847 301.56 471.89L300.243 472.65C300.169 472.694 300.078 472.714 299.971 472.714C299.863 472.714 299.772 472.692 299.7 472.65L295.305 470.113L295.014 471.326C295.001 471.389 294.951 471.437 294.869 471.474C294.785 471.511 294.689 471.526 294.582 471.518L292.873 471.39Z" fill="#FAFAFA"/>
<path d="M352.649 480.96L316.611 460.151C315.79 459.678 315.79 458.91 316.611 458.436L447.39 382.928C448.21 382.455 449.54 382.455 450.36 382.928L486.404 403.737C487.225 404.211 487.225 404.979 486.404 405.452L355.62 480.96C354.799 481.434 353.47 481.434 352.649 480.96Z" fill="#27DEBF"/>
<path d="M345.722 457.449C345.6 457.52 345.474 457.554 345.345 457.554C345.217 457.554 345.12 457.553 345.055 457.549L337.563 456.704L341.997 459.264C342.075 459.309 342.115 459.366 342.115 459.431C342.114 459.499 342.075 459.555 341.997 459.599L341.124 460.102C341.045 460.148 340.947 460.171 340.834 460.172C340.718 460.171 340.622 460.149 340.543 460.102L333.588 456.086C333.508 456.041 333.47 455.986 333.469 455.919C333.47 455.853 333.508 455.797 333.588 455.752L334.341 455.317C334.463 455.247 334.59 455.211 334.717 455.211C334.848 455.211 334.944 455.212 335.008 455.218L342.503 456.063L338.066 453.502C337.988 453.456 337.95 453.401 337.948 453.334C337.95 453.268 337.988 453.212 338.066 453.167L338.94 452.663C339.018 452.618 339.116 452.595 339.23 452.595C339.346 452.595 339.441 452.618 339.522 452.663L346.475 456.679C346.556 456.724 346.595 456.781 346.595 456.847C346.593 456.914 346.556 456.969 346.475 457.014L345.722 457.449Z" fill="#FAFAFA"/>
<path d="M345.269 454.479C344.867 454.246 344.55 453.993 344.317 453.717C344.084 453.442 343.949 453.162 343.919 452.878C343.888 452.594 343.958 452.314 344.135 452.039C344.31 451.764 344.598 451.51 345 451.277C345.402 451.045 345.84 450.877 346.313 450.773C346.788 450.67 347.263 450.623 347.742 450.633C348.218 450.644 348.687 450.71 349.144 450.829C349.605 450.95 350.018 451.116 350.383 451.327L350.868 451.606C350.948 451.651 350.986 451.707 350.988 451.775C350.986 451.84 350.948 451.897 350.868 451.942L347.272 454.018C347.437 454.112 347.617 454.178 347.812 454.211C348.005 454.246 348.203 454.252 348.406 454.237C348.605 454.219 348.802 454.181 348.997 454.119C349.19 454.056 349.366 453.979 349.524 453.889C349.754 453.756 349.918 453.635 350.014 453.525C350.11 453.415 350.17 453.313 350.191 453.217C350.213 453.137 350.239 453.077 350.267 453.037C350.296 452.994 350.354 452.949 350.44 452.898L351.302 452.402C351.382 452.356 351.479 452.332 351.597 452.33C351.716 452.329 351.811 452.352 351.882 452.402C351.976 452.463 352.051 452.57 352.103 452.721C352.157 452.872 352.155 453.052 352.099 453.26C352.04 453.466 351.914 453.69 351.716 453.927C351.519 454.165 351.22 454.402 350.818 454.634C350.416 454.866 349.981 455.036 349.516 455.143C349.048 455.25 348.57 455.296 348.083 455.28C347.593 455.264 347.112 455.189 346.634 455.054C346.153 454.919 345.7 454.728 345.269 454.479ZM346.293 452.023C346.086 452.144 345.936 452.264 345.851 452.384C345.765 452.504 345.719 452.621 345.717 452.735C345.712 452.849 345.744 452.956 345.808 453.055C345.872 453.155 345.951 453.24 346.043 453.308L348.476 451.905C348.355 451.851 348.215 451.802 348.057 451.757C347.899 451.711 347.727 451.685 347.54 451.681C347.352 451.677 347.156 451.7 346.947 451.75C346.74 451.799 346.523 451.89 346.293 452.023Z" fill="#FAFAFA"/>
<path d="M357.573 447.996L355.466 445.659C355.429 445.613 355.403 445.563 355.384 445.507C355.364 445.451 355.407 445.393 355.507 445.336L356.325 444.864C356.404 444.818 356.502 444.795 356.617 444.795C356.732 444.795 356.828 444.818 356.908 444.864C356.937 444.88 356.959 444.895 356.971 444.913L360.311 448.716C360.354 448.765 360.383 448.819 360.398 448.878C360.411 448.936 360.368 448.993 360.268 449.052L359.449 449.524C359.349 449.583 359.249 449.607 359.153 449.597C359.057 449.586 358.962 449.569 358.867 449.55L354.95 448.492L356.779 450.755C356.816 450.808 356.842 450.863 356.861 450.92C356.879 450.974 356.837 451.032 356.736 451.09L355.919 451.563C355.817 451.621 355.717 451.647 355.617 451.638C355.517 451.629 355.423 451.614 355.337 451.588L348.746 449.661C348.718 449.653 348.69 449.641 348.662 449.626C348.583 449.58 348.543 449.524 348.544 449.457C348.543 449.391 348.581 449.335 348.661 449.29L349.48 448.816C349.58 448.759 349.679 448.734 349.776 448.745C349.874 448.756 349.962 448.77 350.041 448.792L354.087 450.01L352.043 447.636C351.999 447.595 351.977 447.543 351.973 447.477C351.969 447.414 352.004 447.359 352.084 447.313L352.903 446.841C352.983 446.795 353.079 446.773 353.19 446.775C353.301 446.777 353.39 446.791 353.464 446.816L357.573 447.996Z" fill="#FAFAFA"/>
<path d="M362.44 444.565C362.041 444.333 361.722 444.079 361.489 443.803C361.256 443.528 361.121 443.248 361.091 442.964C361.06 442.681 361.13 442.401 361.307 442.125C361.481 441.85 361.77 441.596 362.172 441.362C362.574 441.131 363.012 440.963 363.485 440.859C363.96 440.756 364.435 440.709 364.914 440.719C365.39 440.73 365.859 440.796 366.317 440.914C366.777 441.035 367.19 441.201 367.555 441.412L368.04 441.692C368.12 441.737 368.158 441.792 368.16 441.859C368.158 441.925 368.12 441.981 368.04 442.027L364.444 444.102C364.609 444.198 364.79 444.263 364.984 444.296C365.177 444.329 365.375 444.337 365.576 444.321C365.778 444.304 365.974 444.264 366.169 444.203C366.362 444.139 366.539 444.063 366.696 443.972C366.926 443.839 367.09 443.718 367.186 443.608C367.282 443.499 367.342 443.396 367.363 443.3C367.385 443.22 367.409 443.16 367.439 443.12C367.47 443.077 367.526 443.032 367.611 442.983L368.474 442.485C368.552 442.44 368.651 442.416 368.769 442.413C368.887 442.412 368.983 442.437 369.056 442.485C369.148 442.548 369.222 442.655 369.275 442.806C369.329 442.955 369.326 443.135 369.27 443.344C369.212 443.549 369.084 443.773 368.888 444.012C368.689 444.249 368.392 444.485 367.99 444.717C367.588 444.949 367.154 445.119 366.688 445.226C366.22 445.334 365.742 445.38 365.255 445.363C364.765 445.347 364.284 445.273 363.806 445.137C363.326 445.004 362.875 444.813 362.44 444.565ZM363.465 442.11C363.258 442.23 363.108 442.35 363.024 442.471C362.938 442.59 362.891 442.707 362.889 442.822C362.884 442.936 362.916 443.042 362.98 443.141C363.044 443.241 363.123 443.326 363.215 443.397L365.648 441.992C365.528 441.939 365.387 441.889 365.229 441.844C365.07 441.799 364.898 441.773 364.713 441.769C364.524 441.764 364.328 441.788 364.119 441.837C363.913 441.885 363.695 441.976 363.465 442.11Z" fill="#FAFAFA"/>
<path d="M368.04 438.721C368.005 438.501 368.054 438.288 368.186 438.083C368.319 437.877 368.516 437.698 368.783 437.545C369.235 437.284 369.688 437.118 370.145 437.051C370.601 436.982 371.048 436.979 371.484 437.041C371.435 436.904 371.42 436.764 371.442 436.619C371.464 436.472 371.513 436.333 371.587 436.197C371.662 436.063 371.763 435.938 371.887 435.819C372.014 435.701 372.155 435.596 372.314 435.506C372.723 435.27 373.132 435.112 373.542 435.034C373.952 434.954 374.354 434.934 374.754 434.968C375.153 435.002 375.538 435.089 375.912 435.226C376.283 435.363 376.64 435.528 376.976 435.721L379.872 437.394C379.952 437.44 379.992 437.495 379.992 437.563C379.99 437.628 379.952 437.685 379.872 437.73L379.053 438.203C378.974 438.249 378.876 438.272 378.764 438.272C378.649 438.272 378.553 438.249 378.472 438.203L375.632 436.562C375.142 436.28 374.708 436.138 374.327 436.133C373.947 436.129 373.587 436.223 373.251 436.418C372.963 436.584 372.812 436.781 372.794 437.007C372.777 437.232 372.993 437.484 373.445 437.761L376.341 439.434C376.421 439.481 376.46 439.535 376.46 439.603C376.459 439.669 376.421 439.725 376.341 439.77L375.522 440.243C375.444 440.289 375.346 440.311 375.232 440.312C375.117 440.311 375.021 440.289 374.942 440.242L372.1 438.603C371.612 438.32 371.177 438.177 370.797 438.172C370.415 438.168 370.057 438.264 369.72 438.458C369.426 438.629 369.274 438.832 369.263 439.064C369.252 439.298 369.485 439.553 369.968 439.832L372.811 441.473C372.889 441.518 372.929 441.574 372.929 441.641C372.929 441.707 372.889 441.764 372.811 441.809L371.992 442.281C371.912 442.326 371.815 442.349 371.701 442.349C371.586 442.349 371.49 442.328 371.41 442.281L366.394 439.386C366.314 439.341 366.275 439.284 366.275 439.217C366.275 439.151 366.313 439.095 366.393 439.05L367.21 438.576C367.291 438.531 367.387 438.508 367.503 438.508C367.618 438.508 367.714 438.531 367.795 438.576L368.04 438.721Z" fill="#FAFAFA"/>
<path d="M377.375 434.301C377.253 434.198 377.159 434.066 377.09 433.907C377.021 433.748 377.006 433.568 377.048 433.372C377.087 433.174 377.196 432.968 377.374 432.753C377.554 432.538 377.827 432.324 378.195 432.112C378.561 431.901 378.938 431.738 379.328 431.625C379.72 431.511 380.115 431.447 380.513 431.432C380.911 431.417 381.309 431.458 381.71 431.557C382.106 431.654 382.489 431.809 382.854 432.019L386.022 433.846C386.1 433.893 386.14 433.948 386.14 434.015C386.138 434.081 386.1 434.137 386.022 434.183L385.203 434.656C385.123 434.701 385.026 434.725 384.912 434.725C384.797 434.725 384.701 434.701 384.621 434.655L384.266 434.45C384.323 434.657 384.283 434.885 384.148 435.135C384.009 435.383 383.724 435.634 383.286 435.887C382.976 436.065 382.658 436.201 382.332 436.294C382.006 436.387 381.684 436.437 381.369 436.446C381.055 436.455 380.749 436.426 380.454 436.359C380.159 436.291 379.89 436.188 379.646 436.047C379.151 435.76 378.94 435.437 379.011 435.07C379.084 434.705 379.363 434.325 379.851 433.927L381.305 432.741C381.01 432.57 380.704 432.506 380.39 432.547C380.074 432.588 379.772 432.691 379.486 432.859C379.306 432.961 379.191 433.058 379.141 433.145C379.09 433.232 379.062 433.328 379.053 433.431C379.048 433.502 379.026 433.558 378.994 433.601C378.963 433.645 378.913 433.685 378.85 433.723L377.849 434.301C377.777 434.342 377.695 434.365 377.602 434.369C377.507 434.373 377.433 434.351 377.375 434.301ZM382.209 435.017C382.453 434.875 382.637 434.73 382.758 434.582C382.88 434.434 382.949 434.288 382.961 434.147C382.977 434.007 382.943 433.877 382.866 433.756C382.785 433.635 382.671 433.532 382.52 433.444L382.413 433.381L381.207 434.377C380.962 434.576 380.825 434.742 380.792 434.871C380.76 435.002 380.826 435.116 380.992 435.21C381.142 435.297 381.331 435.316 381.557 435.269C381.784 435.22 382 435.136 382.209 435.017Z" fill="#FAFAFA"/>
<path d="M381.262 428.105C381.342 428.059 381.438 428.036 381.553 428.036C381.667 428.036 381.764 428.059 381.844 428.105L382.682 428.589C382.762 428.634 382.8 428.691 382.802 428.758C382.802 428.824 382.763 428.88 382.684 428.925L381.758 429.46C381.678 429.506 381.581 429.529 381.465 429.529C381.35 429.529 381.254 429.506 381.175 429.46L380.336 428.975C380.257 428.929 380.217 428.874 380.217 428.807C380.217 428.741 380.257 428.685 380.336 428.64L381.262 428.105ZM388.852 432.213C388.932 432.259 388.97 432.314 388.972 432.381C388.969 432.447 388.932 432.503 388.852 432.549L388.033 433.021C387.954 433.066 387.856 433.089 387.744 433.091C387.628 433.089 387.531 433.067 387.451 433.021L382.435 430.126C382.356 430.08 382.317 430.024 382.317 429.957C382.316 429.891 382.354 429.835 382.434 429.79L383.253 429.316C383.333 429.271 383.43 429.248 383.545 429.248C383.659 429.248 383.757 429.272 383.836 429.318L388.852 432.213Z" fill="#FAFAFA"/>
<path d="M391.738 430.547C391.817 430.592 391.857 430.648 391.857 430.715C391.856 430.781 391.817 430.837 391.738 430.883L390.92 431.355C390.839 431.4 390.743 431.423 390.629 431.423C390.514 431.423 390.416 431.401 390.338 431.355L383.275 427.277C383.197 427.232 383.157 427.176 383.157 427.108C383.157 427.043 383.197 426.986 383.275 426.941L384.094 426.469C384.174 426.424 384.27 426.4 384.385 426.4C384.5 426.4 384.596 426.424 384.676 426.469L391.738 430.547Z" fill="#FAFAFA"/>
<path d="M349.029 463.248L455.732 401.644C457.045 400.886 458.966 400.767 460.023 401.377C461.081 401.988 460.874 403.098 459.562 403.855L352.847 465.468C351.534 466.225 349.616 466.343 348.561 465.73C347.507 465.116 347.716 464.005 349.029 463.248Z" fill="#FAFAFA"/>
<path d="M356.52 467.574L463.223 405.97C464.536 405.212 466.457 405.093 467.514 405.704C468.572 406.314 468.365 407.424 467.054 408.181L360.338 469.794C359.025 470.551 357.107 470.669 356.052 470.056C354.998 469.442 355.207 468.331 356.52 467.574Z" fill="#FAFAFA"/>
<path d="M198.087 507.559L142.356 475.383L392.008 331.245L448.877 362.765L198.087 507.559Z" fill="#E0E0E0"/>
<path d="M183.012 306.956L420.447 169.873L429.948 175.358C432.404 176.777 434.414 180.258 434.414 183.095V358.246C434.414 361.082 432.404 364.564 429.948 365.981L201.447 497.907C198.991 499.326 194.969 499.326 192.514 497.907L187.48 495.001C185.024 493.583 183.014 490.102 183.014 487.265L183.012 306.956Z" fill="#27DEBF"/>
<path opacity="0.2" d="M183.012 306.956L420.447 169.873L429.948 175.358C432.404 176.777 434.414 180.258 434.414 183.095V358.246C434.414 361.082 432.404 364.564 429.948 365.981L201.447 497.907C198.991 499.326 194.969 499.326 192.514 497.907L187.48 495.001C185.024 493.583 183.014 490.102 183.014 487.265L183.012 306.956Z" fill="black"/>
<path d="M419.138 154.475L420.109 153.947L416.42 151.804V151.807C416.103 151.621 415.776 151.462 415.44 151.339L310.945 112.618C308.179 111.593 304.587 112.736 302.92 115.169L186.029 285.87C184.364 288.304 183.012 292.667 183.012 295.615C183.012 300.494 183.012 306.952 183.012 306.952L186.636 309.057L420.448 169.872V158.533C420.448 157.153 419.943 155.721 419.138 154.475Z" fill="#27DEBF"/>
<path opacity="0.1" d="M307.76 115.995C307.298 116.351 306.888 116.797 306.55 117.277L189.65 287.973C188.795 289.237 188.012 291.017 187.478 292.85L183.847 290.75C184.114 289.859 184.434 288.987 184.791 288.169C184.808 288.133 184.808 288.116 184.826 288.098C184.987 287.742 185.147 287.404 185.324 287.065C185.36 287.011 185.378 286.958 185.413 286.904C185.61 286.53 185.822 286.174 186.036 285.871L302.918 115.175C303.097 114.907 303.292 114.695 303.506 114.463C303.702 114.267 303.914 114.072 304.129 113.894L307.76 115.995Z" fill="black"/>
<path opacity="0.35" d="M420.068 153.93C419.747 153.734 419.409 153.575 419.071 153.45L314.56 114.714C312.352 113.895 309.611 114.465 307.76 115.996L304.128 113.895C305.997 112.382 308.722 111.795 310.946 112.614L415.439 151.332C415.778 151.457 416.097 151.617 416.418 151.812L420.068 153.93Z" fill="white"/>
<path d="M185.405 286.898C185.607 286.529 185.814 286.183 186.028 285.87C185.815 286.183 185.607 286.529 185.405 286.898Z" fill="#27DEBF"/>
<path d="M303.507 114.465C303.703 114.265 303.913 114.075 304.133 113.896C303.913 114.074 303.7 114.259 303.507 114.465Z" fill="#27DEBF"/>
<path d="M183.84 290.754C184.107 289.86 184.43 288.98 184.789 288.164C184.428 288.98 184.107 289.858 183.84 290.754Z" fill="#27DEBF"/>
<path d="M184.819 288.091C184.979 287.733 185.149 287.396 185.32 287.069C185.149 287.396 184.98 287.733 184.819 288.091Z" fill="#27DEBF"/>
<path opacity="0.2" d="M302.92 115.169C303.093 114.916 303.297 114.688 303.507 114.465C303.293 114.683 303.093 114.916 302.92 115.169Z" fill="black"/>
<path d="M306.543 117.272L189.652 287.975C187.986 290.409 186.635 294.772 186.635 297.72C186.635 302.599 186.635 309.057 186.635 309.057L424.071 171.966L424.069 160.638C424.069 157.689 421.827 154.467 419.061 153.442L314.565 114.722C311.802 113.697 308.209 114.84 306.543 117.272Z" fill="#27DEBF"/>
<path opacity="0.05" d="M424.07 160.638C424.07 159.282 423.582 157.877 422.801 156.646L187.477 292.849C187.477 292.849 187.465 292.87 187.454 292.886C186.95 294.576 186.635 296.309 186.635 297.72C186.635 302.598 186.635 309.056 186.635 309.056L424.071 171.965L424.07 160.638Z" fill="black"/>
<path d="M413.93 112.523C413.93 111.303 413.504 110.443 412.815 110.037C412.117 109.625 406.267 106.256 405.569 105.854C404.872 105.452 403.908 105.509 402.844 106.124L208.091 218.559C205.963 219.789 204.237 222.777 204.237 225.234L204.239 458.47C204.239 459.698 204.669 460.561 205.366 460.964C206.063 461.368 211.901 464.737 212.599 465.139C213.296 465.541 214.261 465.484 215.324 464.869L410.077 352.432C412.206 351.203 413.931 348.215 413.931 345.758L413.93 112.523Z" fill="#27DEBF"/>
<path opacity="0.95" d="M413.93 112.523C413.93 111.303 413.504 110.443 412.815 110.037C412.117 109.625 406.267 106.256 405.569 105.854C404.872 105.452 403.908 105.509 402.844 106.124L208.091 218.559C205.963 219.789 204.237 222.777 204.237 225.234L204.239 458.47C204.239 459.698 204.669 460.561 205.366 460.964C206.063 461.368 211.901 464.737 212.599 465.139C213.296 465.541 214.261 465.484 215.324 464.869L410.077 352.432C412.206 351.203 413.931 348.215 413.931 345.758L413.93 112.523Z" fill="white"/>
<path d="M215.323 464.871L410.076 352.434C412.205 351.205 413.93 348.216 413.93 345.759L413.928 112.523C413.928 110.066 412.202 109.069 410.074 110.298L215.322 222.733C213.194 223.963 211.468 226.951 211.468 229.408L211.469 462.644C211.469 465.104 213.195 466.1 215.323 464.871Z" fill="#27DEBF"/>
<path opacity="0.8" d="M215.323 464.871L410.076 352.434C412.205 351.205 413.93 348.216 413.93 345.759L413.928 112.523C413.928 110.066 412.202 109.069 410.074 110.298L215.322 222.733C213.194 223.963 211.468 226.951 211.468 229.408L211.469 462.644C211.469 465.104 213.195 466.1 215.323 464.871Z" fill="white"/>
<path d="M211.462 462.643C211.462 463.73 211.801 464.53 212.371 464.994C211.071 464.264 206.015 461.326 205.375 460.971C204.663 460.562 204.236 459.707 204.236 458.479V225.23C204.236 224.002 204.663 222.649 205.375 221.438L212.602 225.603C211.89 226.813 211.464 228.184 211.464 229.413V462.643H211.462Z" fill="#27DEBF"/>
<path opacity="0.7" d="M211.462 462.643C211.462 463.73 211.801 464.53 212.371 464.994C211.071 464.264 206.015 461.326 205.375 460.971C204.663 460.562 204.236 459.707 204.236 458.479V225.23C204.236 224.002 204.663 222.649 205.375 221.438L212.602 225.603C211.89 226.813 211.464 228.184 211.464 229.413V462.643H211.462Z" fill="white"/>
<path opacity="0.05" d="M211.462 462.643C211.462 463.73 211.801 464.53 212.371 464.994C211.071 464.264 206.015 461.326 205.375 460.971C204.663 460.562 204.236 459.707 204.236 458.479V225.23C204.236 224.002 204.663 222.649 205.375 221.438L212.602 225.603C211.89 226.813 211.464 228.184 211.464 229.413V462.643H211.462Z" fill="black"/>
<path d="M282.54 286.369C281.683 308.066 283.142 354.563 283.142 354.563C283.142 354.563 306.141 361.515 321.778 358.922C337.415 356.33 370.852 332.645 370.852 332.645L365.279 282.324L282.54 286.369Z" fill="#37474F"/>
<path d="M335.937 353.773L339.673 318.332C354.331 309.592 359.102 297.492 359.102 297.492C345.76 314.96 331.843 312.133 331.843 312.133V355.649C333.175 355.074 334.544 354.447 335.937 353.773Z" fill="#263238"/>
<path d="M374.463 220.995C378.188 202.111 379.877 177.015 363.447 172.41C359.168 171.21 348.273 172.043 348.273 172.043L330.559 172.923C320.695 174.181 306.859 176.141 303.235 177.033C293.719 179.374 290.894 194.917 286.629 229.363C283.957 250.93 281.685 267.768 281.685 288.759C299.088 304.362 353.479 298.218 365.858 288.069C366.369 264.277 367.666 255.451 374.463 220.995Z" fill="#455A64"/>
<path d="M327.555 166.489C327.385 169.939 331.354 175.759 337.427 179.844C343.499 183.93 348.732 185.585 349.398 187.29C346.515 187.831 343.911 189.259 341.767 194.207C339.718 198.932 339.737 199.084 332.728 194.207C325.718 189.329 319.448 178.138 319.463 174.41C319.478 170.682 324.973 163.47 327.671 164.082L327.555 166.489Z" fill="#37474F"/>
<path d="M349.398 187.29C351.45 185.049 353.396 179.41 353.645 176.973C353.895 174.536 354.543 168.132 354.543 168.132C354.543 168.132 356.211 168.563 356.968 169.707C357.726 170.851 361.455 178.56 361.334 182.866C361.213 187.171 360.204 192.992 358.749 195.448C357.293 197.903 356.318 193.571 355.369 191.894C354.132 189.713 352.438 187.349 349.398 187.29Z" fill="#37474F"/>
<path d="M346.623 192.229C346.623 192.229 346.961 207.781 345.531 216.049C345.531 216.049 350.211 216.906 354.781 215.8C354.781 215.8 352.409 218.723 343.715 217.38C343.712 217.38 346.386 201.147 346.623 192.229Z" fill="#37474F"/>
<path d="M383.437 120.426C383.235 106.797 372.025 95.9134 358.397 96.1151C345.648 96.303 335.304 106.129 334.188 118.553L322.981 110.58C322.981 110.58 318.894 109.942 315.764 113.238C312.697 116.47 314.583 126.414 318.607 136.123C318.607 136.123 322.655 153.847 324.216 156.746C325.777 159.646 328.925 160.429 328.925 160.429L328.538 149.644L373.366 146.425L368.931 143.269C377.606 139.34 383.586 130.556 383.437 120.426Z" fill="#263238"/>
<path d="M327.886 136.81C326.469 137.686 325.176 134.688 322.598 133.15C320.407 131.842 315.483 129.55 312.234 134.988C308.736 140.847 315.085 148.947 319.532 150.615C326.116 153.088 328.475 147.925 328.475 147.925L327.115 175.368C336.081 191.7 362.692 190.647 353.644 176.971L354.731 166.389C354.731 166.389 361.821 167.358 365.265 166.773C370.994 165.801 374.54 161.217 376.19 154.975C378.841 144.95 379.783 136.875 377.119 117.274C374.199 95.7929 349.166 95.9383 335.775 104.645C322.383 113.355 327.886 136.81 327.886 136.81Z" fill="#FFA8A7"/>
<path d="M382.586 97.2198C380.767 96.2279 378.568 96.151 376.529 96.5242C376.987 93.4345 374.894 90.4051 372.143 89.1566C368.811 87.6432 365.801 88.1783 362.868 90.3955C363.474 88.214 361.49 85.9914 359.277 85.5084C357.064 85.0255 354.787 85.7856 352.673 86.595C349.525 87.7983 346.426 89.136 343.229 90.2048C337.596 92.0872 331.6 93.1614 326.504 96.2141C325.301 96.9344 324.141 97.781 323.32 98.9183C322.173 100.508 321.79 102.55 321.879 104.509C321.91 105.162 322.018 105.8 322.151 106.431C321.772 106.02 321.333 105.656 320.815 105.387C318.408 104.142 315.494 105.154 314.305 107.648L322.792 112.044C322.581 113.754 322.369 115.463 322.196 117.177C321.74 121.703 320.861 126.977 321.884 131.479C321.999 131.988 322.084 132.58 322.436 132.989C322.436 132.989 324.632 134.581 326.852 137.284C327.509 138.083 328.302 139.375 329.365 139.689C330.424 140.002 331.924 139.407 332.298 138.351C332.523 137.717 332.46 137.022 332.394 136.352C332.12 133.563 331.846 130.775 331.571 127.986C331.499 127.241 331.429 126.463 331.707 125.768C332.08 124.834 332.989 124.25 333.753 123.597C335.702 121.931 336.933 119.453 337.084 116.894C337.132 116.09 337.078 115.267 337.309 114.495C337.485 113.905 337.95 112.984 338.623 112.983C339.932 112.977 347.038 114.525 348.823 114.769C358.121 116.044 368.109 116.291 376.311 111.729C379.505 109.952 384.887 106.268 385.446 102.318C385.735 100.263 384.406 98.2118 382.586 97.2198Z" fill="#263238"/>
<path d="M354.732 166.389C354.732 166.389 341.876 163.996 337.36 161.68C334.337 160.13 331.825 157.404 331.075 155.644C331.075 155.644 331.971 159.434 334.701 162.82C338.04 166.961 354.382 169.8 354.382 169.8L354.732 166.389Z" fill="#F28F8F"/>
<path d="M354.183 134.503C354.204 135.884 353.142 137.018 351.812 137.033C350.483 137.049 349.388 135.942 349.369 134.56C349.348 133.179 350.409 132.047 351.738 132.03C353.068 132.015 354.163 133.123 354.183 134.503Z" fill="#263238"/>
<path d="M349.501 125.526L343.855 128.27C343.128 126.651 343.803 124.725 345.361 123.968C346.92 123.209 348.773 123.907 349.501 125.526Z" fill="#263238"/>
<path d="M349.566 149.543L359.769 153.201C358.808 156.123 355.744 157.675 352.926 156.665C350.108 155.655 348.605 152.467 349.566 149.543Z" fill="#B16668"/>
<path d="M356.009 156.795C355.605 153.905 352.951 151.875 350.052 152.253C349.826 152.284 349.613 152.351 349.398 152.407C349.753 154.314 351.032 155.987 352.926 156.666C353.96 157.035 355.026 157.054 356.009 156.795Z" fill="#F28F8F"/>
<path d="M376.263 127.39L370.812 124.545C371.551 123.049 373.371 122.475 374.876 123.259C376.381 124.045 377.002 125.895 376.263 127.39Z" fill="#263238"/>
<path d="M373.49 134.096C373.511 135.477 372.449 136.609 371.119 136.626C369.79 136.642 368.695 135.535 368.676 134.153C368.655 132.772 369.717 131.64 371.045 131.623C372.375 131.607 373.469 132.714 373.49 134.096Z" fill="#263238"/>
<path d="M361.208 132.599L361.688 148.172L370.872 146.036L361.208 132.599Z" fill="#F28F8F"/>
<path d="M428.391 360.577C428.319 360.702 428.249 360.809 428.142 360.933L329.199 329.559C321.428 326.108 312.33 328.918 307.818 336.141L202.042 493.354L198.131 495.614L198.095 495.631C196.909 496.29 195.848 496.379 195.068 495.969L303.853 333.917C308.367 326.694 317.482 323.883 325.252 327.317L428.391 360.577Z" fill="#27DEBF"/>
<path opacity="0.4" d="M298.075 351.573L298.325 351.359L202.038 493.361L198.122 495.622L198.087 495.64C196.912 496.298 195.843 496.37 195.06 495.979L294.267 349.294L298.075 351.573Z" fill="white"/>
<path opacity="0.4" d="M428.399 360.583C428.327 360.708 428.256 360.815 428.149 360.938L329.192 329.554C321.431 326.1 312.334 328.913 307.812 336.141L303.897 333.862C308.419 326.67 317.497 323.893 325.259 327.31L428.399 360.583Z" fill="white"/>
<path d="M434.333 181.973H434.315C434.101 180.692 433.424 180.337 432.553 180.94C432.214 181.172 431.823 181.563 431.414 182.116L430.916 182.81L333.277 331.252L318.698 351.564C317.06 353.878 313.464 355.213 310.669 354.572L298.083 351.581L202.011 316.213C201.316 316.052 200.658 316.034 200.053 316.141C199.803 316.195 199.555 316.266 199.323 316.373L202.943 314.279L295.053 348.036L307.18 352.365C309.957 353.023 313.553 351.688 315.209 349.356L329.788 329.063L427.908 179.926C428.229 179.482 428.62 179.161 429.012 178.911L420.521 174.016L424.081 171.969L429.956 175.351C432.089 176.598 433.887 179.393 434.333 181.973Z" fill="#27DEBF"/>
<path opacity="0.4" d="M333.268 331.245L318.69 351.556C317.051 353.87 313.455 355.205 310.661 354.564L298.075 351.574L298.325 351.36L298.93 350.398L307.172 352.356C309.949 353.014 313.545 351.679 315.201 349.347L329.637 329.268L333.268 331.245Z" fill="white"/>
<path opacity="0.1" d="M429.946 175.344L424.071 171.962L420.511 174.009L429.002 178.904C429.009 178.91 429.016 178.915 429.023 178.921L429.008 178.912C428.581 179.181 428.205 179.511 427.903 179.928L329.777 329.056L329.634 329.252V329.27L333.266 331.246L430.905 182.803L431.403 182.109C431.812 181.558 432.205 181.165 432.542 180.935C433.415 180.33 434.091 180.685 434.304 181.967H434.322C433.881 179.384 432.083 176.59 429.946 175.344Z" fill="black"/>
<path d="M203.96 319.054L183.012 306.956L183.014 487.264C183.014 490.102 185.024 493.582 187.48 495.001L192.514 497.907C194.971 499.326 198.991 499.326 201.447 497.907L203.96 496.455V319.054Z" fill="#27DEBF"/>
<path opacity="0.15" d="M203.96 319.054L183.012 306.956L183.014 487.264C183.014 490.102 185.024 493.582 187.48 495.001L192.514 497.907C194.971 499.326 198.991 499.326 201.447 497.907L203.96 496.455V319.054Z" fill="black"/>
<path d="M434.422 183.095V358.242C434.422 359.72 433.888 361.339 433.033 362.763C432.321 363.937 431.431 364.988 430.417 365.7L430.239 365.789C430.132 365.861 430.06 365.932 429.953 365.986L201.458 497.892L201.422 497.91C200.23 498.587 199.161 498.676 198.377 498.267C197.683 497.91 197.203 497.182 197.043 496.131C197.007 495.881 196.989 495.615 196.989 495.33V320.166C196.989 317.336 199.214 315.556 202.009 316.215L298.082 351.584L310.667 354.575C313.462 355.215 317.058 353.88 318.696 351.566L333.275 331.255L430.915 182.813L431.413 182.118C433.068 179.819 434.422 180.247 434.422 183.095Z" fill="#27DEBF"/>
<path d="M429.951 365.986C430.053 365.934 430.14 365.865 430.244 365.796L430.416 365.693C431.43 364.988 432.324 363.94 433.029 362.771C433.874 361.368 434.399 359.766 434.415 358.324L333.282 331.255L401.007 382.697L429.951 365.986Z" fill="#27DEBF"/>
<path opacity="0.2" d="M429.951 365.986C430.053 365.934 430.14 365.865 430.244 365.796L430.416 365.693C431.43 364.988 432.324 363.94 433.029 362.771C433.874 361.368 434.399 359.766 434.415 358.324L333.282 331.255L401.007 382.697L429.951 365.986Z" fill="black"/>
<path d="M196.985 495.321C196.985 496.8 197.519 497.814 198.377 498.261C199.168 498.674 200.235 498.587 201.421 497.916L201.455 497.9L280.124 452.483L298.09 351.576L196.989 492.411L196.985 495.321Z" fill="#27DEBF"/>
<path opacity="0.15" d="M307.777 336.121L198.371 498.256C197.516 497.812 196.982 496.796 196.982 495.319L196.989 492.409L303.861 333.914C303.861 333.896 303.879 333.878 303.897 333.86L307.777 336.121Z" fill="black"/>
<path d="M433.028 362.771C432.324 363.94 431.43 364.988 430.414 365.694L430.243 365.796L201.454 497.898L201.419 497.915C200.232 498.585 199.166 498.671 198.376 498.259L307.793 336.094C312.328 328.854 321.491 326.043 329.306 329.493L433.028 362.771Z" fill="#27DEBF"/>
<path opacity="0.15" d="M183.845 290.75L187.477 292.851C186.961 294.559 186.64 296.304 186.64 297.728C186.64 302.605 186.64 309.05 186.64 309.05L183.008 306.949C183.008 306.949 183.008 300.487 183.008 295.61C183.008 294.203 183.329 292.458 183.845 290.75Z" fill="black"/>
<path d="M202.942 314.28L199.321 316.373L195.654 314.255L186.629 309.056L190.136 306.974L202.942 314.28Z" fill="#27DEBF"/>
<path opacity="0.1" d="M203.103 314.348L190.136 306.975L186.629 309.057L195.654 314.254L199.321 316.373L199.36 316.351C199.579 316.255 199.811 316.183 200.046 316.134C200.651 316.027 201.309 316.045 202.004 316.205L209.304 318.899L293.169 349.773L294.481 347.827L203.103 314.348Z" fill="black"/>
<path d="M303.234 177.033C291.594 177.87 283.612 180.642 276.11 198.666C271.259 210.318 252.248 252.19 250.406 259.11C248.244 267.241 243.385 329.018 243.385 329.018L254.494 333.186C254.494 333.186 250.686 346.481 247.473 354.077C243.769 362.835 261.861 360.999 267.672 353.036C273.5 345.05 277.443 334.421 274.268 330.683C270.071 325.743 265.449 322.526 265.449 322.526L277.612 267.41L303.116 213.192C303.116 213.192 315.911 186.544 303.234 177.033Z" fill="#FFA8A7"/>
<path d="M265.449 322.526C259.504 319.171 254.178 319.308 254.178 319.308C254.178 319.308 260.02 317.436 265.979 319.307L265.449 322.526Z" fill="#F28F8F"/>
<path d="M305.876 176.498C299.339 176.444 287.142 176.151 279.242 190.421C271.342 204.692 260.168 231.809 260.168 231.809C260.168 231.809 264.814 243.234 289.672 245.62L308.715 205.102C308.715 205.102 313.351 186.509 305.876 176.498Z" fill="#37474F"/>
<path d="M390.221 185.856C400.041 193.597 415.992 205.775 423.744 210.649C429.603 203.557 440.383 189.215 443 186.073C446.327 182.079 456.829 175.555 456.829 175.555L460.796 191.465C460.796 191.465 440.881 228.199 433.666 234.998C426.062 242.163 420.561 239.192 405.702 232.382C391.665 225.947 376.425 217.97 376.425 217.97C379.444 191.27 377.397 176.808 364.641 172.305C373.217 173.371 381.981 179.361 390.221 185.856Z" fill="#FFA8A7"/>
<path d="M415.871 205.275C410.737 206.685 400.127 221.783 402.065 231.333L375.032 217.971C378.304 199.54 379.008 176.772 363.447 172.409C362.294 172.079 360.662 171.915 358.892 171.832C366.644 171.064 371.704 171.29 379.824 177.396C387.948 183.501 415.871 205.275 415.871 205.275Z" fill="#37474F"/>
<path d="M423.744 210.649C419.87 214.044 418.618 220.168 417.867 222.591C417.867 222.591 417.061 215.515 421.504 209.192L423.744 210.649Z" fill="#F28F8F"/>
<path d="M461.382 157.754L470.645 152.133C470.645 152.133 471.711 202.134 471.746 203.76C471.78 205.386 473.69 206.972 473.69 206.972L464.425 212.586C464.425 212.586 462.514 211 462.479 209.377C462.446 207.752 461.382 157.754 461.382 157.754Z" fill="#37474F"/>
<path d="M471.09 172.972C471.09 172.972 473.752 173.606 474.77 177.733C475.788 181.861 476.299 189.747 473.929 192.346C471.558 194.944 468.318 196.078 466.166 195.143C462.14 193.395 463.366 185.229 466.591 183.345C471.746 180.335 471.128 177.019 471.128 177.019L471.09 172.972Z" fill="#FFA8A7"/>
<path d="M449.976 157.905L454.037 162.857L454.767 198.119L450.642 205.012L464.425 212.585C463.22 211.542 462.597 210.471 462.479 209.376L461.519 164.244L449.976 157.905Z" fill="#455A64"/>
<path d="M450.643 205.013L450.688 207.179L464.471 214.753L464.426 212.588L450.643 205.013Z" fill="#27DEBF"/>
<path d="M464.471 214.752L473.737 209.138L473.69 206.973L464.426 212.587L464.471 214.752Z" fill="#27DEBF"/>
<path opacity="0.1" d="M464.471 214.752L473.737 209.138L473.69 206.973L464.426 212.587L464.471 214.752Z" fill="black"/>
<path d="M452.672 133.436C450.869 132.99 448.783 133.748 446.848 135.819L446.778 135.894C442.954 139.987 441.18 147.65 442.813 153.007L442.843 153.106C443.69 155.882 445.285 157.49 447.157 157.831L455.169 159.76L460.078 135.223L452.672 133.436Z" fill="#27DEBF"/>
<path opacity="0.7" d="M452.672 133.436C450.869 132.99 448.783 133.748 446.848 135.819L446.778 135.894C442.954 139.987 441.18 147.65 442.813 153.007L442.843 153.106C443.69 155.882 445.285 157.49 447.157 157.831L455.169 159.76L460.078 135.223L452.672 133.436Z" fill="white"/>
<path opacity="0.05" d="M447.157 157.829L455.169 159.758L456.796 151.625L442.218 148.247C442.186 149.924 442.37 151.551 442.813 153.005L442.843 153.104C443.69 155.88 445.285 157.489 447.157 157.829Z" fill="black"/>
<path d="M468.914 134.122L468.911 134.128C466.886 133.663 464.578 134.41 462.386 136.455C462.155 136.664 461.926 136.894 461.696 137.138C461.427 137.427 461.169 137.724 460.918 138.041C460.501 138.559 460.108 139.108 459.741 139.694C459.064 140.754 458.47 141.911 457.964 143.133C456.608 146.415 455.89 150.14 455.969 153.618C456.012 155.373 456.256 157.061 456.726 158.603C457.725 161.876 459.557 163.863 461.727 164.438L454.1 162.678L454.105 162.661C451.399 161.912 449.056 159.816 448.073 156.594C447.625 155.122 447.38 153.511 447.326 151.843C447.206 148.3 447.926 144.484 449.314 141.129C449.82 139.908 450.413 138.746 451.09 137.689C451.458 137.104 451.849 136.551 452.267 136.036C452.519 135.718 452.779 135.417 453.045 135.133C453.27 134.89 453.506 134.664 453.745 134.451C455.938 132.518 458.643 131.872 461.131 132.334L461.133 132.329L461.345 132.376C461.434 132.398 461.526 132.417 461.616 132.443L468.914 134.122Z" fill="#27DEBF"/>
<path opacity="0.1" d="M454.1 162.678L454.105 162.662C451.399 161.913 449.056 159.816 448.073 156.595C447.625 155.123 447.38 153.512 447.326 151.844L455.97 153.618C456.013 155.373 456.257 157.06 456.728 158.602C457.727 161.876 459.558 163.862 461.729 164.437L454.1 162.678Z" fill="black"/>
<path d="M474.089 140.01C476.137 146.731 473.913 156.338 469.118 161.471C466.709 164.054 464.104 165.013 461.851 164.468C461.81 164.462 461.769 164.451 461.726 164.438C459.556 163.863 457.724 161.877 456.725 158.603C454.677 151.882 456.901 142.275 461.694 137.138C464.087 134.578 466.671 133.612 468.91 134.127C471.157 134.64 473.063 136.643 474.089 140.01Z" fill="#27DEBF"/>
<path opacity="0.2" d="M474.089 140.01C476.137 146.731 473.913 156.338 469.118 161.471C466.709 164.054 464.104 165.013 461.851 164.468C461.81 164.462 461.769 164.451 461.726 164.438C459.556 163.863 457.724 161.877 456.725 158.603C454.677 151.882 456.901 142.275 461.694 137.138C464.087 134.578 466.671 133.612 468.91 134.127C471.157 134.64 473.063 136.643 474.089 140.01Z" fill="black"/>
<path d="M505.865 128.423C505.865 128.423 496.899 137.119 492.614 155.61C491.773 159.242 491.26 162.619 490.98 165.692C489.83 178.266 492.558 185.855 492.558 185.855C487.023 179.062 480.636 172.228 472.189 168.081C466.96 165.514 462.05 163.788 462.05 163.788L462.053 163.778C460.006 163.299 458.322 161.415 457.401 158.394C456.795 156.405 456.577 154.153 456.706 151.84C456.779 150.378 456.991 148.89 457.329 147.432C458.2 143.67 459.9 140.1 462.214 137.619C464.371 135.312 466.711 134.361 468.759 134.83L468.762 134.822C468.762 134.822 473.931 135.431 479.755 135.426C489.165 135.416 497.907 132.089 505.865 128.423Z" fill="#27DEBF"/>
<path opacity="0.7" d="M505.865 128.423C505.865 128.423 496.899 137.119 492.614 155.61C491.773 159.242 491.26 162.619 490.98 165.692C489.83 178.266 492.558 185.855 492.558 185.855C487.023 179.062 480.636 172.228 472.189 168.081C466.96 165.514 462.05 163.788 462.05 163.788L462.053 163.778C460.006 163.299 458.322 161.415 457.401 158.394C456.795 156.405 456.577 154.153 456.706 151.84C456.779 150.378 456.991 148.89 457.329 147.432C458.2 143.67 459.9 140.1 462.214 137.619C464.371 135.312 466.711 134.361 468.759 134.83L468.762 134.822C468.762 134.822 473.931 135.431 479.755 135.426C489.165 135.416 497.907 132.089 505.865 128.423Z" fill="white"/>
<path opacity="0.05" d="M490.98 165.693C489.83 178.267 492.558 185.855 492.558 185.855C487.023 179.063 480.636 172.229 472.189 168.081C466.96 165.514 462.05 163.788 462.05 163.788L462.053 163.779C460.006 163.3 458.322 161.416 457.401 158.395C456.795 156.405 456.577 154.154 456.706 151.841C465.989 153.42 481.289 156.884 490.98 165.693Z" fill="black"/>
<path d="M530.514 137.485C532.65 144.494 532.833 152.822 531.399 161L531.4 161.004C529.562 171.479 525.085 181.697 518.676 188.557C507.265 200.772 494.065 197.711 489.192 181.724C488.077 178.065 487.495 174.051 487.393 169.885C487.153 159.624 489.842 148.455 494.735 139.506C495.422 138.244 496.154 137.031 496.929 135.868C497.25 135.383 497.582 134.906 497.918 134.441L497.922 134.44C498.401 133.777 498.891 133.135 499.398 132.516C499.927 131.873 500.466 131.248 501.023 130.654C512.436 118.439 525.639 121.493 530.514 137.485Z" fill="#27DEBF"/>
<path opacity="0.1" d="M531.4 161.004C529.562 171.479 525.085 181.696 518.676 188.556C507.265 200.771 494.065 197.71 489.192 181.724C488.077 178.065 487.495 174.05 487.393 169.885L487.398 169.883C488.964 171.666 493.231 173.591 494.108 171.063C494.215 174.788 494.739 178.347 495.719 181.559C497.12 186.154 499.275 189.55 501.95 191.385C504.233 192.95 506.825 193.309 509.647 192.443C512.393 191.61 515.274 189.627 517.988 186.728C523.439 180.892 527.427 172.177 529.37 163.089C529.37 163.089 530.455 163.557 531.4 161.004Z" fill="black"/>
<path d="M529.072 138.9C531.225 145.961 531.175 154.688 529.372 163.091C527.43 172.178 523.441 180.895 517.99 186.73C515.277 189.629 512.394 191.613 509.65 192.445C506.828 193.311 504.236 192.952 501.953 191.388C499.278 189.552 497.124 186.158 495.721 181.561C494.742 178.349 494.218 174.791 494.111 171.066C494.068 169.659 494.086 168.228 494.163 166.785C494.295 164.273 494.599 161.707 495.072 159.172C495.17 158.649 495.271 158.13 495.38 157.614C495.557 156.754 495.753 155.893 495.973 155.043C496.707 152.129 497.659 149.28 498.797 146.581C498.808 146.553 498.826 146.519 498.837 146.488C499.599 144.69 500.44 142.966 501.355 141.33C502.015 140.153 502.715 139.027 503.45 137.954C503.757 137.502 504.073 137.063 504.395 136.632C504.784 136.118 505.181 135.616 505.587 135.125C505.984 134.651 506.39 134.194 506.8 133.75C509.52 130.834 512.405 128.863 515.148 128.023C521.224 126.167 526.431 130.24 529.072 138.9Z" fill="#27DEBF"/>
<path opacity="0.3" d="M529.072 138.9C531.225 145.961 531.175 154.688 529.372 163.091C527.43 172.178 523.441 180.895 517.99 186.73C515.277 189.629 512.394 191.613 509.65 192.445C506.828 193.311 504.236 192.952 501.953 191.388C499.278 189.552 497.124 186.158 495.721 181.561C494.742 178.349 494.218 174.791 494.111 171.066C494.068 169.659 494.086 168.228 494.163 166.785C494.295 164.273 494.599 161.707 495.072 159.172C495.17 158.649 495.271 158.13 495.38 157.614C495.557 156.754 495.753 155.893 495.973 155.043C496.707 152.129 497.659 149.28 498.797 146.581C498.808 146.553 498.826 146.519 498.837 146.488C499.599 144.69 500.44 142.966 501.355 141.33C502.015 140.153 502.715 139.027 503.45 137.954C503.757 137.502 504.073 137.063 504.395 136.632C504.784 136.118 505.181 135.616 505.587 135.125C505.984 134.651 506.39 134.194 506.8 133.75C509.52 130.834 512.405 128.863 515.148 128.023C521.224 126.167 526.431 130.24 529.072 138.9Z" fill="black"/>
<path d="M508.96 149.327L505.169 168.433C502.415 168.259 497.779 168.049 494.107 168.218C494.116 167.742 494.135 167.267 494.163 166.786C494.295 164.274 494.599 161.708 495.072 159.172C495.17 158.65 495.271 158.131 495.38 157.615C495.557 156.755 495.753 155.893 495.973 155.044C496.707 152.13 497.659 149.28 498.797 146.582C498.808 146.554 498.826 146.52 498.837 146.488C499.007 146.093 499.176 145.699 499.353 145.312C503.682 147.696 508.96 149.327 508.96 149.327Z" fill="#27DEBF"/>
<g opacity="0.4">
<path d="M508.96 149.327L505.169 168.433C502.415 168.259 497.779 168.049 494.107 168.218C494.116 167.742 494.135 167.267 494.163 166.786C494.295 164.274 494.599 161.708 495.072 159.172C495.17 158.65 495.271 158.131 495.38 157.615C495.557 156.755 495.753 155.893 495.973 155.044C496.707 152.13 497.659 149.28 498.797 146.582C498.808 146.554 498.826 146.52 498.837 146.488C499.007 146.093 499.176 145.699 499.353 145.312C503.682 147.696 508.96 149.327 508.96 149.327Z" fill="white"/>
</g>
<path d="M505.892 168.168C503.904 168.774 502.227 167.53 501.407 164.839L501.382 164.757C500.093 160.529 501.499 154.459 504.517 151.228L504.576 151.165C505.38 150.303 506.25 149.713 507.088 149.457C509.076 148.85 510.753 150.094 511.574 152.786L511.598 152.869C512.888 157.097 511.482 163.167 508.463 166.398L508.404 166.461C507.599 167.321 506.73 167.911 505.892 168.168Z" fill="#27DEBF"/>
<g opacity="0.7">
<path d="M505.892 168.168C503.904 168.774 502.227 167.53 501.407 164.839L501.382 164.757C500.093 160.529 501.499 154.459 504.517 151.228L504.576 151.165C505.38 150.303 506.25 149.713 507.088 149.457C509.076 148.85 510.753 150.094 511.574 152.786L511.598 152.869C512.888 157.097 511.482 163.167 508.463 166.398L508.404 166.461C507.599 167.321 506.73 167.911 505.892 168.168Z" fill="white"/>
</g>
<path d="M501.275 119.013C500.182 119.347 499.027 118.73 498.693 117.638L492.861 98.5086C492.527 97.4151 493.142 96.2599 494.236 95.9265C495.329 95.5931 496.484 96.2091 496.818 97.3012L502.65 116.431C502.985 117.525 502.369 118.68 501.275 119.013Z" fill="#E0E0E0"/>
<path d="M485.291 128.985C484.607 129.193 483.834 129.041 483.275 128.518L468.66 114.867C467.825 114.086 467.781 112.779 468.56 111.943C469.335 111.11 470.647 111.064 471.484 111.843L486.098 125.494C486.934 126.275 486.978 127.582 486.198 128.418C485.942 128.692 485.628 128.882 485.291 128.985Z" fill="#E0E0E0"/>
<path d="M495.288 226.696C494.952 226.799 494.585 226.817 494.22 226.732C493.106 226.474 492.414 225.362 492.671 224.25L497.184 204.767C497.442 203.653 498.552 202.959 499.666 203.218C500.78 203.476 501.473 204.588 501.215 205.7L496.701 225.183C496.528 225.93 495.971 226.487 495.288 226.696Z" fill="#E0E0E0"/>
<path d="M531.584 218.43C530.491 218.764 529.335 218.148 529.002 217.054L523.17 197.925C522.836 196.832 523.451 195.676 524.544 195.342C525.638 195.009 526.793 195.625 527.127 196.719L532.959 215.848C533.292 216.942 532.678 218.098 531.584 218.43Z" fill="#E0E0E0"/>
<path d="M553.108 192.324C552.423 192.532 551.651 192.38 551.091 191.857L536.475 178.207C535.64 177.428 535.596 176.119 536.375 175.283C537.152 174.451 538.463 174.403 539.299 175.183L553.916 188.833C554.752 189.613 554.796 190.921 554.015 191.757C553.758 192.033 553.444 192.221 553.108 192.324Z" fill="#E0E0E0"/>
<path d="M566.829 166.56C566.493 166.663 566.127 166.68 565.761 166.597L546.28 162.081C545.166 161.824 544.473 160.712 544.731 159.6C544.989 158.485 546.1 157.794 547.213 158.051L566.694 162.564C567.808 162.822 568.501 163.934 568.243 165.046C568.07 165.794 567.513 166.351 566.829 166.56Z" fill="#E0E0E0"/>
<path d="M565.836 137.382L546.706 143.215C545.613 143.548 544.458 142.932 544.124 141.84C543.791 140.748 544.406 139.591 545.499 139.258L564.629 133.426C565.722 133.092 566.878 133.708 567.211 134.8C567.544 135.894 566.93 137.049 565.836 137.382Z" fill="#E0E0E0"/>
<path d="M536.737 127.228C536.053 127.437 535.28 127.285 534.721 126.762C533.885 125.983 533.841 124.674 534.62 123.838L548.27 109.224C549.044 108.39 550.357 108.344 551.194 109.124C552.028 109.903 552.074 111.212 551.293 112.047L537.643 126.662C537.388 126.938 537.074 127.126 536.737 127.228Z" fill="#E0E0E0"/>
<path d="M520.105 118.371C519.768 118.474 519.402 118.492 519.037 118.408C517.923 118.15 517.23 117.039 517.488 115.926L522.003 96.4437C522.261 95.3296 523.374 94.6368 524.485 94.8947C525.599 95.1526 526.292 96.264 526.034 97.3766L521.519 116.859C521.345 117.605 520.788 118.162 520.105 118.371Z" fill="#E0E0E0"/>
<path d="M443 186.074C446.945 181.07 447.096 177.938 450.171 175.486C453.246 173.033 456.342 172.875 460.918 174.188C464.369 175.179 468.416 174.683 469.814 175.965C470.209 176.229 469.59 178.449 467.97 179.244C466.02 180.2 462.872 179.967 460.549 179.979C455.26 180.008 459.597 185.196 454.505 190.458C452.342 194.233 443 186.074 443 186.074Z" fill="#FFA8A7"/>
<path d="M564.166 265.461L612.702 234.377L634.084 241.241L564.166 265.461Z" fill="#27DEBF"/>
<path d="M564.166 265.461L606.117 230.477L596.794 219.712L564.166 265.461Z" fill="#27DEBF"/>
<path d="M606.117 230.477V238.595L564.166 265.461L606.117 230.477Z" fill="#27DEBF"/>
<path opacity="0.25" d="M606.117 230.477V238.595L564.166 265.461L606.117 230.477Z" fill="black"/>
<path d="M616.071 225.779C615.686 225.779 615.304 225.618 615.033 225.304C614.538 224.731 614.6 223.863 615.173 223.368C616.018 222.637 616.848 221.884 617.662 221.107C618.21 220.584 619.077 220.604 619.602 221.152C620.125 221.7 620.104 222.568 619.557 223.092C618.712 223.899 617.85 224.684 616.969 225.445C616.709 225.669 616.389 225.779 616.071 225.779Z" fill="#E0E0E0"/>
<path d="M623.29 218.584C622.969 218.584 622.645 218.472 622.386 218.244C621.816 217.745 621.759 216.877 622.258 216.308C623.695 214.67 625.096 212.927 626.425 211.129C626.875 210.52 627.734 210.389 628.343 210.839C628.952 211.289 629.083 212.148 628.633 212.757C627.258 214.619 625.806 216.422 624.32 218.116C624.051 218.425 623.671 218.584 623.29 218.584ZM631.333 207.721C631.084 207.721 630.833 207.653 630.607 207.512C629.965 207.112 629.77 206.265 630.172 205.622C631.33 203.769 632.447 201.825 633.494 199.843C633.848 199.173 634.678 198.917 635.348 199.269C636.018 199.625 636.276 200.453 635.922 201.124C634.844 203.166 633.692 205.167 632.499 207.077C632.237 207.493 631.79 207.721 631.333 207.721ZM637.649 195.765C637.464 195.765 637.276 195.728 637.096 195.648C636.404 195.341 636.091 194.532 636.397 193.839C637.286 191.825 638.125 189.742 638.888 187.646C639.148 186.935 639.935 186.57 640.647 186.827C641.358 187.086 641.726 187.873 641.466 188.585C640.683 190.737 639.821 192.877 638.905 194.947C638.678 195.461 638.176 195.765 637.649 195.765ZM642.288 183.056C642.16 183.056 642.03 183.038 641.903 183.001C641.177 182.789 640.758 182.026 640.971 181.299C641.592 179.178 642.155 177.002 642.645 174.83C642.812 174.09 643.541 173.625 644.284 173.793C645.024 173.959 645.488 174.693 645.322 175.432C644.819 177.66 644.242 179.892 643.605 182.07C643.43 182.668 642.882 183.056 642.288 183.056ZM645.261 169.856C645.19 169.856 645.117 169.851 645.044 169.838C644.295 169.719 643.786 169.015 643.906 168.267C644.254 166.081 644.538 163.851 644.751 161.637C644.822 160.882 645.51 160.309 646.248 160.403C647.002 160.476 647.554 161.145 647.481 161.9C647.264 164.169 646.972 166.458 646.614 168.7C646.507 169.375 645.924 169.856 645.261 169.856ZM646.545 156.385C646.53 156.385 646.515 156.385 646.501 156.385C645.744 156.36 645.15 155.727 645.172 154.97C645.205 153.914 645.221 152.856 645.221 151.799C645.221 150.629 645.201 149.46 645.161 148.291C645.134 147.534 645.726 146.897 646.484 146.873C647.267 146.815 647.878 147.438 647.902 148.195C647.945 149.396 647.965 150.597 647.965 151.799C647.965 152.885 647.949 153.97 647.916 155.055C647.891 155.797 647.282 156.385 646.545 156.385ZM646.065 142.862C645.37 142.862 644.775 142.337 644.701 141.631C644.474 139.412 644.165 137.189 643.785 135.024C643.655 134.278 644.153 133.565 644.9 133.435C645.66 133.305 646.356 133.806 646.489 134.551C646.879 136.78 647.197 139.069 647.433 141.352C647.511 142.106 646.962 142.78 646.208 142.858C646.158 142.859 646.112 142.862 646.065 142.862ZM643.722 129.535C643.11 129.535 642.551 129.12 642.392 128.499C641.846 126.339 641.214 124.188 640.513 122.107C640.27 121.389 640.655 120.61 641.374 120.368C642.092 120.121 642.87 120.515 643.113 121.23C643.837 123.377 644.49 125.597 645.054 127.826C645.239 128.56 644.793 129.307 644.059 129.493C643.947 129.522 643.833 129.535 643.722 129.535ZM639.39 116.72C638.859 116.72 638.355 116.41 638.131 115.891C637.249 113.848 636.276 111.833 635.239 109.904C634.879 109.237 635.13 108.404 635.797 108.046C636.463 107.688 637.297 107.938 637.655 108.605C638.729 110.604 639.738 112.691 640.65 114.805C640.95 115.502 640.629 116.308 639.934 116.608C639.755 116.684 639.573 116.72 639.39 116.72ZM632.98 104.818C632.534 104.818 632.097 104.601 631.833 104.201C630.615 102.352 629.302 100.547 627.929 98.8333C627.454 98.242 627.55 97.379 628.141 96.9057C628.735 96.4323 629.597 96.5284 630.069 97.1183C631.496 98.8978 632.86 100.773 634.123 102.693C634.54 103.325 634.366 104.176 633.732 104.593C633.502 104.744 633.238 104.818 632.98 104.818ZM624.537 94.2591C624.175 94.2591 623.814 94.1164 623.544 93.8337C622.041 92.2587 620.433 90.6946 618.765 89.1854C618.204 88.6764 618.16 87.8093 618.668 87.2468C619.175 86.6856 620.045 86.6431 620.606 87.1494C622.325 88.7038 623.981 90.3159 625.53 91.939C626.053 92.4878 626.033 93.3563 625.485 93.879C625.218 94.1342 624.877 94.2591 624.537 94.2591ZM614.509 85.1751C614.211 85.1751 613.912 85.079 613.661 84.8801C611.945 83.5273 610.135 82.191 608.284 80.9081C607.662 80.476 607.506 79.6212 607.937 78.9983C608.367 78.3754 609.221 78.2204 609.847 78.6512C611.745 79.9656 613.598 81.3362 615.36 82.7247C615.955 83.1939 616.057 84.0569 615.588 84.651C615.317 84.9953 614.915 85.1751 614.509 85.1751ZM603.39 77.4617C603.146 77.4617 602.901 77.3972 602.676 77.26C600.803 76.1157 598.849 74.9948 596.869 73.9247C596.203 73.5652 595.953 72.7324 596.314 72.067C596.673 71.4015 597.509 71.1477 598.171 71.5113C600.195 72.6034 602.193 73.749 604.107 74.918C604.753 75.3131 604.957 76.1569 604.562 76.8045C604.303 77.2284 603.851 77.4617 603.39 77.4617ZM591.482 71.0284C591.285 71.0284 591.084 70.9858 590.893 70.8939C588.888 69.9404 586.829 69.0198 584.772 68.1609C584.073 67.8686 583.743 67.0647 584.036 66.3649C584.328 65.6638 585.135 65.3359 585.832 65.6282C587.928 66.5062 590.03 67.4433 592.073 68.4174C592.757 68.7426 593.048 69.5617 592.722 70.245C592.486 70.7402 591.995 71.0284 591.482 71.0284ZM452.944 67.6189C452.381 67.6189 451.852 67.2691 451.653 66.7093C451.396 65.9945 451.769 65.2097 452.481 64.9559C454.629 64.1876 456.799 63.4494 458.931 62.7634C459.661 62.5343 460.427 62.9281 460.659 63.6497C460.89 64.3714 460.494 65.1452 459.772 65.3771C457.668 66.0535 455.525 66.7807 453.405 67.5394C453.254 67.5942 453.097 67.6189 452.944 67.6189ZM579 65.7942C578.844 65.7942 578.685 65.7667 578.528 65.7105C576.466 64.9545 574.329 64.226 572.176 63.5427C571.454 63.3136 571.055 62.5425 571.284 61.8195C571.513 61.0992 572.286 60.6945 573.008 60.9277C575.197 61.6233 577.373 62.3656 579.472 63.1325C580.183 63.3932 580.549 64.1821 580.29 64.8928C580.086 65.4498 579.559 65.7942 579 65.7942ZM465.83 63.4741C465.233 63.4741 464.684 63.0831 464.511 62.4808C464.303 61.7523 464.722 60.9922 465.45 60.7836C467.606 60.1649 469.822 59.568 472.031 59.0124C472.766 58.8285 473.513 59.2731 473.697 60.0085C473.882 60.7438 473.436 61.4888 472.701 61.6741C470.519 62.2215 468.335 62.8101 466.208 63.4206C466.081 63.4563 465.955 63.4741 465.83 63.4741ZM566.098 61.7001C565.979 61.7001 565.858 61.685 565.737 61.6521C563.623 61.0786 561.431 60.5326 559.222 60.029C558.484 59.8617 558.021 59.1263 558.19 58.3868C558.357 57.65 559.08 57.1808 559.832 57.355C562.077 57.8668 564.305 58.4211 566.455 59.0055C567.186 59.2045 567.618 59.9563 567.419 60.689C567.255 61.2981 566.7 61.7001 566.098 61.7001ZM478.96 60.1731C478.327 60.1731 477.759 59.7341 477.619 59.0906C477.46 58.3511 477.931 57.6212 478.672 57.4607C480.89 56.9805 483.137 56.5346 485.349 56.1326C486.106 55.9967 486.809 56.4948 486.945 57.2384C487.079 57.9848 486.584 58.6982 485.839 58.834C483.655 59.2292 481.439 59.6696 479.249 60.1429C479.153 60.1635 479.056 60.1731 478.96 60.1731ZM552.9 58.6968C552.816 58.6968 552.732 58.69 552.647 58.6735C550.488 58.2715 548.258 57.9024 546.02 57.5745C545.27 57.4648 544.751 56.7678 544.861 56.0187C544.969 55.2682 545.662 54.7386 546.417 54.8593C548.689 55.1914 550.955 55.5673 553.148 55.9748C553.893 56.1134 554.384 56.8295 554.247 57.5745C554.123 58.2358 553.547 58.6968 552.9 58.6968ZM492.267 57.7611C491.597 57.7611 491.01 57.2699 490.911 56.5881C490.801 55.8376 491.32 55.142 492.071 55.0322C494.323 54.7029 496.595 54.4107 498.826 54.161C499.574 54.0855 500.257 54.6192 500.342 55.3738C500.426 56.1271 499.883 56.8048 499.129 56.8885C496.93 57.1341 494.69 57.4222 492.468 57.746C492.4 57.757 492.333 57.7611 492.267 57.7611ZM539.503 56.7458C539.455 56.7458 539.406 56.7431 539.357 56.7376C537.171 56.5044 534.919 56.3082 532.664 56.1504C531.908 56.0969 531.337 55.4411 531.389 54.6865C531.443 53.9305 532.106 53.3844 532.853 53.4119C535.143 53.571 537.429 53.7727 539.647 54.0087C540.401 54.0897 540.945 54.7647 540.866 55.5193C540.792 56.2231 540.196 56.7458 539.503 56.7458ZM505.711 56.267C504.999 56.267 504.399 55.7196 504.344 54.9979C504.287 54.2419 504.853 53.5848 505.609 53.5271C507.88 53.3556 510.167 53.2212 512.409 53.1306C513.171 53.0524 513.807 53.6877 513.836 54.445C513.867 55.2023 513.279 55.8417 512.522 55.8719C510.311 55.9611 508.056 56.0941 505.815 56.2629C505.781 56.2656 505.747 56.267 505.711 56.267ZM525.997 55.8129C525.982 55.8129 525.967 55.8129 525.953 55.8115C523.991 55.7498 522.019 55.7196 520.085 55.7196L519.238 55.721C519.235 55.721 519.233 55.721 519.231 55.721C518.476 55.721 517.863 55.1118 517.859 54.3558C517.855 53.5971 518.466 52.9811 519.224 52.977L520.085 52.9756C522.047 52.9756 524.05 53.0071 526.04 53.0703C526.797 53.0936 527.391 53.7274 527.369 54.4834C527.345 55.2257 526.734 55.8129 525.997 55.8129Z" fill="#E0E0E0"/>
<path d="M443.303 71.3306C442.764 71.3306 442.252 71.0109 442.034 70.4813C441.746 69.7802 442.079 68.9776 442.78 68.6895C443.848 68.2505 444.918 67.8183 445.982 67.3984C446.69 67.1254 447.485 67.4684 447.763 68.1709C448.04 68.8761 447.695 69.6732 446.991 69.9517C445.936 70.3675 444.881 70.7928 443.826 71.2277C443.654 71.2977 443.477 71.3306 443.303 71.3306Z" fill="#E0E0E0"/>
<path d="M137.809 196.415L200.901 165.49L155.4 208.756L137.809 196.415Z" fill="#27DEBF"/>
<path d="M200.901 165.49L131.335 188.375L113.746 176.033L200.901 165.49Z" fill="#27DEBF"/>
<path d="M131.335 188.375L134.084 206.041L137.809 196.415L200.901 165.49L131.335 188.375Z" fill="#27DEBF"/>
<path opacity="0.25" d="M131.335 188.375L134.084 206.041L137.809 196.415L200.901 165.49L131.335 188.375Z" fill="black"/>
<path d="M134.084 206.041L143.672 200.528L137.809 196.415L134.084 206.041Z" fill="#27DEBF"/>
<path opacity="0.25" d="M137.809 196.415L143.672 200.528L142.142 201.408L137.809 196.415Z" fill="black"/>
<path d="M142.549 381.594C142.396 381.594 142.238 381.567 142.086 381.513C139.86 380.713 137.688 379.894 135.629 379.079C134.924 378.8 134.579 378.003 134.859 377.298C135.138 376.593 135.936 376.251 136.64 376.528C138.672 377.333 140.817 378.142 143.015 378.93C143.728 379.187 144.098 379.973 143.843 380.685C143.64 381.245 143.112 381.594 142.549 381.594ZM129.808 376.535C129.624 376.535 129.436 376.498 129.258 376.418C127.121 375.479 125.013 374.502 122.989 373.51C122.308 373.176 122.027 372.354 122.359 371.674C122.692 370.995 123.514 370.711 124.195 371.044C126.187 372.02 128.261 372.983 130.362 373.908C131.056 374.212 131.37 375.023 131.066 375.714C130.839 376.229 130.335 376.535 129.808 376.535ZM117.505 370.493C117.283 370.493 117.056 370.439 116.848 370.324C114.808 369.207 112.792 368.035 110.862 366.846C110.216 366.448 110.017 365.603 110.413 364.958C110.81 364.313 111.655 364.11 112.301 364.509C114.193 365.677 116.166 366.823 118.166 367.917C118.83 368.282 119.075 369.115 118.71 369.779C118.46 370.236 117.989 370.493 117.505 370.493ZM105.848 363.291C105.578 363.291 105.305 363.21 105.065 363.044C103.148 361.706 101.276 360.312 99.5002 358.899C98.9061 358.427 98.8087 357.564 99.2807 356.973C99.7513 356.379 100.614 356.28 101.207 356.753C102.938 358.13 104.765 359.489 106.635 360.793C107.256 361.226 107.407 362.081 106.975 362.704C106.709 363.087 106.282 363.291 105.848 363.291ZM95.1372 354.756C94.8066 354.756 94.4746 354.636 94.2111 354.396C92.4893 352.823 90.8223 351.182 89.2555 349.52C88.7355 348.969 88.7616 348.1 89.3117 347.58C89.8619 347.059 90.7304 347.088 91.2517 347.637C92.7719 349.25 94.3909 350.841 96.0633 352.37C96.6217 352.882 96.6615 353.75 96.1498 354.309C95.8795 354.606 95.5091 354.756 95.1372 354.756ZM85.7514 344.791C85.3494 344.791 84.9529 344.617 84.6826 344.279C83.231 342.478 81.8371 340.594 80.5378 338.681C80.1125 338.054 80.2771 337.201 80.9041 336.776C81.5297 336.348 82.3831 336.514 82.8112 337.141C84.0666 338.993 85.4139 340.816 86.8188 342.559C87.2949 343.149 87.2016 344.013 86.6116 344.486C86.3578 344.692 86.0532 344.791 85.7514 344.791ZM78.0682 333.457C77.588 333.457 77.1243 333.206 76.8718 332.759C75.744 330.758 74.6766 328.671 73.7025 326.556C73.3856 325.868 73.686 325.053 74.3748 324.736C75.0608 324.418 75.8771 324.721 76.194 325.409C77.138 327.456 78.1683 329.475 79.2605 331.41C79.6323 332.068 79.4004 332.907 78.7391 333.279C78.5278 333.401 78.2959 333.457 78.0682 333.457ZM72.3277 321.024C71.7707 321.024 71.2452 320.681 71.0408 320.128C70.2505 317.992 69.522 315.769 68.8717 313.52C68.6618 312.793 69.0816 312.032 69.8101 311.822C70.5387 311.616 71.2987 312.032 71.5087 312.76C72.1398 314.946 72.8477 317.104 73.6133 319.178C73.8767 319.889 73.5145 320.678 72.8025 320.94C72.6474 320.996 72.4869 321.024 72.3277 321.024ZM68.5095 307.865C67.8783 307.865 67.3103 307.427 67.1704 306.785C66.6888 304.574 66.2608 302.278 65.8958 299.962C65.7792 299.213 66.2896 298.511 67.0387 298.393C67.7878 298.279 68.4889 298.786 68.6083 299.536C68.9636 301.798 69.3821 304.04 69.8527 306.199C70.0132 306.94 69.544 307.67 68.8031 307.832C68.7057 307.855 68.6055 307.865 68.5095 307.865ZM66.3678 294.321C65.6735 294.321 65.0781 293.796 65.0054 293.093C64.7721 290.878 64.5842 288.555 64.4456 286.193C64.4003 285.437 64.9779 284.788 65.7339 284.743C66.4871 284.723 67.1375 285.276 67.1841 286.031C67.3213 288.352 67.5052 290.633 67.7329 292.806C67.8125 293.561 67.2651 294.234 66.5118 294.314C66.4624 294.318 66.4144 294.321 66.3678 294.321ZM65.6543 280.627C65.6461 280.627 65.6379 280.627 65.6296 280.627C64.8709 280.613 64.2686 279.987 64.2823 279.23C64.3235 276.92 64.4621 274.579 64.6953 272.271C64.7721 271.518 65.4389 270.981 66.199 271.043C66.9536 271.12 67.5024 271.792 67.427 272.547C67.2006 274.779 67.0661 277.044 67.0277 279.278C67.0126 280.028 66.4007 280.627 65.6543 280.627ZM67.0236 266.989C66.9413 266.989 66.8589 266.982 66.7739 266.966C66.0289 266.828 65.5363 266.115 65.6722 265.369C66.0893 263.098 66.6038 260.811 67.2019 258.57C67.3981 257.838 68.1624 257.401 68.8813 257.599C69.6139 257.795 70.0488 258.546 69.8527 259.278C69.2723 261.449 68.7743 263.665 68.3709 265.865C68.2502 266.527 67.6739 266.989 67.0236 266.989ZM70.5592 253.744C70.4083 253.744 70.2533 253.719 70.1024 253.664C69.3875 253.412 69.013 252.628 69.2668 251.915C70.0351 249.737 70.9036 247.56 71.8489 245.442C72.1576 244.75 72.9643 244.436 73.66 244.747C74.3514 245.056 74.6629 245.866 74.3542 246.559C73.4404 248.61 72.5994 250.72 71.853 252.827C71.6541 253.394 71.1245 253.744 70.5592 253.744ZM76.1378 241.224C75.9169 241.224 75.6919 241.171 75.4833 241.058C74.8179 240.695 74.571 239.863 74.9332 239.198C76.0417 237.162 77.2422 235.148 78.5031 233.213C78.9161 232.578 79.764 232.399 80.402 232.812C81.0372 233.227 81.2169 234.076 80.8026 234.711C79.5801 236.585 78.4181 238.536 77.3451 240.509C77.0954 240.965 76.6235 241.224 76.1378 241.224ZM83.622 229.739C83.3298 229.739 83.0335 229.646 82.7851 229.452C82.1842 228.989 82.0744 228.127 82.5382 227.529C83.9554 225.696 85.4633 223.899 87.0191 222.19C87.5295 221.635 88.3966 221.59 88.9578 222.101C89.5175 222.612 89.5587 223.479 89.0469 224.04C87.5405 225.693 86.0807 227.433 84.7087 229.207C84.437 229.557 84.0323 229.739 83.622 229.739ZM92.8542 219.614C92.4865 219.614 92.1216 219.467 91.8513 219.178C91.3341 218.625 91.3656 217.756 91.9199 217.239C93.6157 215.657 95.3952 214.129 97.2076 212.698C97.8044 212.226 98.666 212.327 99.1339 212.923C99.6045 213.518 99.5043 214.381 98.9089 214.849C97.1555 216.235 95.4336 217.714 93.7913 219.245C93.5251 219.492 93.189 219.614 92.8542 219.614ZM103.607 211.118C103.163 211.118 102.726 210.904 102.462 210.506C102.043 209.875 102.214 209.023 102.845 208.604C104.767 207.325 106.77 206.109 108.8 204.986C109.461 204.619 110.298 204.857 110.664 205.522C111.032 206.185 110.792 207.02 110.128 207.387C108.163 208.473 106.224 209.652 104.364 210.889C104.132 211.044 103.867 211.118 103.607 211.118ZM115.594 204.481C115.071 204.481 114.572 204.18 114.342 203.674C114.03 202.984 114.337 202.17 115.027 201.859C117.126 200.909 119.297 200.027 121.477 199.24C122.188 198.982 122.976 199.349 123.233 200.064C123.491 200.778 123.122 201.564 122.408 201.82C120.296 202.585 118.192 203.439 116.156 204.36C115.975 204.442 115.783 204.481 115.594 204.481Z" fill="#E0E0E0"/>
<path d="M459.654 569.902C459.662 569.395 459.428 568.988 458.953 568.676C458.151 568.049 457.134 567.753 455.927 567.787C454.712 567.82 453.656 568.078 452.75 568.556L447.227 571.483C447.681 570.666 448.02 569.828 448.224 568.967C448.386 568.288 448.46 567.604 448.444 566.911C448.416 565.757 448.44 559.358 448.445 558.754C448.456 557.517 448.182 556.256 447.622 554.971C446.785 553.062 445.148 551.214 442.713 549.42C441.027 548.124 439.003 546.702 436.642 545.155C434.279 543.607 432.126 542.296 430.184 541.216C425.173 538.517 419.759 536.36 413.942 534.74C408.122 533.121 401.864 532.339 395.183 532.391C388.501 532.446 381.387 533.46 373.841 535.433C366.297 537.403 358.333 540.609 349.95 545.053C342.8 548.844 337.395 552.782 333.75 556.863C330.098 560.948 327.887 564.982 327.119 568.955C326.882 570.184 326.772 571.4 326.786 572.602C326.802 573.95 326.777 579.724 326.78 580.882C326.786 583.615 327.435 586.278 328.727 588.869C330.57 592.56 333.407 595.902 337.238 598.899C338.044 599.524 339.216 600.364 340.755 601.418C342.285 602.472 343.925 603.568 345.671 604.712C347.418 605.856 349.112 606.946 350.761 607.975C352.416 609.006 353.759 609.816 354.796 610.399C359.6 612.962 365.043 614.966 371.116 616.41C377.186 617.857 383.582 618.564 390.304 618.531C397.017 618.501 403.961 617.617 411.132 615.886C418.297 614.153 425.46 611.395 432.611 607.606C438.362 604.557 442.956 601.673 446.397 598.959C449.835 596.244 452.488 593.702 454.368 591.327C456.245 588.953 457.518 586.695 458.192 584.556C458.864 582.416 459.346 580.417 459.634 578.56C459.647 578.471 459.654 578.385 459.654 578.301C459.657 577.802 459.653 569.98 459.654 569.902ZM439.078 579.759C438.342 580.838 437.295 582.023 435.927 583.317C434.551 584.609 432.773 586.002 430.586 587.488C428.391 588.972 425.611 590.611 422.241 592.396C417.476 594.921 412.636 596.817 407.725 598.082C402.815 599.346 397.997 600.035 393.262 600.15C388.537 600.267 383.976 599.862 379.593 598.94C375.212 598.019 371.133 596.61 367.354 594.72C366.231 594.18 364.897 593.427 363.351 592.463C361.805 591.498 360.224 590.49 358.615 589.435C357.008 588.382 355.489 587.363 354.057 586.377C352.626 585.39 351.546 584.564 350.823 583.893C348.031 581.48 346.053 578.92 344.886 576.209C344.753 575.9 344.637 575.59 344.528 575.28C345.36 572.902 346.913 570.531 349.2 568.167C351.848 565.425 355.557 562.789 360.323 560.262C365.992 557.256 371.383 554.969 376.495 553.395C379.325 552.525 382.079 551.882 384.768 551.423L383.353 552.173C382.449 552.651 381.943 553.246 381.833 553.953C381.726 554.661 382.047 555.258 382.799 555.751L383.724 556.357C381.354 556.073 378.916 556.087 376.416 556.396C373.915 556.708 370.985 557.755 367.618 559.54C364.575 561.154 362.355 562.939 360.958 564.897C359.733 566.609 359.126 568.369 359.131 570.177C359.131 570.435 359.133 577.207 359.132 578.6C359.132 578.857 359.144 579.113 359.169 579.371C359.369 581.451 360.306 583.574 361.969 585.733C363.629 587.895 366.041 590.004 369.189 592.066C372.337 594.13 375.667 595.751 379.18 596.93C382.692 598.111 386.252 598.838 389.87 599.111C393.48 599.387 397.022 599.194 400.477 598.538C403.937 597.882 407.188 596.748 410.228 595.137C412.776 593.787 414.745 592.541 416.128 591.401C417.511 590.262 418.502 589.208 419.103 588.241C419.703 587.272 420.032 586.37 420.087 585.529C420.148 584.69 420.156 583.87 420.131 583.073C422.447 583.225 425.234 583.028 428.488 582.479C431.734 581.931 435.419 580.568 439.527 578.392C439.745 578.275 439.944 578.149 440.157 578.029C439.833 578.589 439.48 579.164 439.078 579.759ZM390.113 571.665C393.514 572.093 396.9 573.403 400.251 575.598C401.473 576.399 402.487 577.183 403.309 577.952C402.834 578.29 402.31 578.623 401.701 578.946C398.82 580.471 395.682 581.042 392.274 580.657C388.863 580.275 385.48 578.984 382.127 576.788C380.869 575.964 379.824 575.149 378.994 574.345C379.427 574.035 379.899 573.732 380.447 573.441C383.486 571.833 386.71 571.239 390.113 571.665ZM428.358 563.542C426.9 564.176 425.269 564.548 423.442 564.626C421.279 564.72 419.371 564.226 417.727 563.15L399.156 550.987C401.026 551.204 402.882 551.503 404.718 551.941C409.151 552.996 413.496 554.627 417.756 556.829C419.783 557.865 421.805 559.044 423.823 560.366C425.453 561.435 426.946 562.491 428.358 563.542Z" fill="#27DEBF"/>
<path opacity="0.2" d="M459.654 569.902C459.662 569.395 459.428 568.988 458.953 568.676C458.151 568.049 457.134 567.753 455.927 567.787C454.712 567.82 453.656 568.078 452.75 568.556L447.227 571.483C447.681 570.666 448.02 569.828 448.224 568.967C448.386 568.288 448.46 567.604 448.444 566.911C448.416 565.757 448.44 559.358 448.445 558.754C448.456 557.517 448.182 556.256 447.622 554.971C446.785 553.062 445.148 551.214 442.713 549.42C441.027 548.124 439.003 546.702 436.642 545.155C434.279 543.607 432.126 542.296 430.184 541.216C425.173 538.517 419.759 536.36 413.942 534.74C408.122 533.121 401.864 532.339 395.183 532.391C388.501 532.446 381.387 533.46 373.841 535.433C366.297 537.403 358.333 540.609 349.95 545.053C342.8 548.844 337.395 552.782 333.75 556.863C330.098 560.948 327.887 564.982 327.119 568.955C326.882 570.184 326.772 571.4 326.786 572.602C326.802 573.95 326.777 579.724 326.78 580.882C326.786 583.615 327.435 586.278 328.727 588.869C330.57 592.56 333.407 595.902 337.238 598.899C338.044 599.524 339.216 600.364 340.755 601.418C342.285 602.472 343.925 603.568 345.671 604.712C347.418 605.856 349.112 606.946 350.761 607.975C352.416 609.006 353.759 609.816 354.796 610.399C359.6 612.962 365.043 614.966 371.116 616.41C377.186 617.857 383.582 618.564 390.304 618.531C397.017 618.501 403.961 617.617 411.132 615.886C418.297 614.153 425.46 611.395 432.611 607.606C438.362 604.557 442.956 601.673 446.397 598.959C449.835 596.244 452.488 593.702 454.368 591.327C456.245 588.953 457.518 586.695 458.192 584.556C458.864 582.416 459.346 580.417 459.634 578.56C459.647 578.471 459.654 578.385 459.654 578.301C459.657 577.802 459.653 569.98 459.654 569.902ZM439.078 579.759C438.342 580.838 437.295 582.023 435.927 583.317C434.551 584.609 432.773 586.002 430.586 587.488C428.391 588.972 425.611 590.611 422.241 592.396C417.476 594.921 412.636 596.817 407.725 598.082C402.815 599.346 397.997 600.035 393.262 600.15C388.537 600.267 383.976 599.862 379.593 598.94C375.212 598.019 371.133 596.61 367.354 594.72C366.231 594.18 364.897 593.427 363.351 592.463C361.805 591.498 360.224 590.49 358.615 589.435C357.008 588.382 355.489 587.363 354.057 586.377C352.626 585.39 351.546 584.564 350.823 583.893C348.031 581.48 346.053 578.92 344.886 576.209C344.753 575.9 344.637 575.59 344.528 575.28C345.36 572.902 346.913 570.531 349.2 568.167C351.848 565.425 355.557 562.789 360.323 560.262C365.992 557.256 371.383 554.969 376.495 553.395C379.325 552.525 382.079 551.882 384.768 551.423L383.353 552.173C382.449 552.651 381.943 553.246 381.833 553.953C381.726 554.661 382.047 555.258 382.799 555.751L383.724 556.357C381.354 556.073 378.916 556.087 376.416 556.396C373.915 556.708 370.985 557.755 367.618 559.54C364.575 561.154 362.355 562.939 360.958 564.897C359.733 566.609 359.126 568.369 359.131 570.177C359.131 570.435 359.133 577.207 359.132 578.6C359.132 578.857 359.144 579.113 359.169 579.371C359.369 581.451 360.306 583.574 361.969 585.733C363.629 587.895 366.041 590.004 369.189 592.066C372.337 594.13 375.667 595.751 379.18 596.93C382.692 598.111 386.252 598.838 389.87 599.111C393.48 599.387 397.022 599.194 400.477 598.538C403.937 597.882 407.188 596.748 410.228 595.137C412.776 593.787 414.745 592.541 416.128 591.401C417.511 590.262 418.502 589.208 419.103 588.241C419.703 587.272 420.032 586.37 420.087 585.529C420.148 584.69 420.156 583.87 420.131 583.073C422.447 583.225 425.234 583.028 428.488 582.479C431.734 581.931 435.419 580.568 439.527 578.392C439.745 578.275 439.944 578.149 440.157 578.029C439.833 578.589 439.48 579.164 439.078 579.759ZM390.113 571.665C393.514 572.093 396.9 573.403 400.251 575.598C401.473 576.399 402.487 577.183 403.309 577.952C402.834 578.29 402.31 578.623 401.701 578.946C398.82 580.471 395.682 581.042 392.274 580.657C388.863 580.275 385.48 578.984 382.127 576.788C380.869 575.964 379.824 575.149 378.994 574.345C379.427 574.035 379.899 573.732 380.447 573.441C383.486 571.833 386.71 571.239 390.113 571.665ZM428.358 563.542C426.9 564.176 425.269 564.548 423.442 564.626C421.279 564.72 419.371 564.226 417.727 563.15L399.156 550.987C401.026 551.204 402.882 551.503 404.718 551.941C409.151 552.996 413.496 554.627 417.756 556.829C419.783 557.865 421.805 559.044 423.823 560.366C425.453 561.435 426.946 562.491 428.358 563.542Z" fill="black"/>
<path opacity="0.1" d="M344.526 575.28C345.358 572.902 346.91 570.531 349.196 568.167C351.844 565.425 355.554 562.789 360.319 560.262C365.988 557.256 371.377 554.969 376.491 553.395C379.321 552.525 382.075 551.882 384.764 551.423L389.761 548.775C390.661 548.298 391.718 548.061 392.927 548.072C394.126 548.084 395.106 548.335 395.858 548.828L399.156 550.987C401.026 551.204 402.882 551.503 404.718 551.941C409.152 552.996 413.496 554.627 417.756 556.829C419.783 557.865 421.805 559.043 423.823 560.366C425.454 561.434 426.946 562.49 428.358 563.541C428.625 563.424 428.898 563.316 429.153 563.181C430.796 562.309 431.752 561.255 432.022 560.018C432.287 558.781 431.406 557.403 429.383 555.88C427.698 554.582 425.844 553.273 423.823 551.95C421.805 550.628 419.783 549.45 417.756 548.413C413.496 546.21 409.152 544.58 404.718 543.525C400.278 542.468 395.738 542.055 391.109 542.282C386.472 542.508 381.594 543.41 376.491 544.979C371.378 546.554 365.988 548.84 360.319 551.846C355.554 554.372 351.844 557.009 349.196 559.751C346.544 562.494 344.874 565.245 344.177 568.005C343.488 570.767 343.72 573.5 344.884 576.209C344.751 575.899 344.634 575.59 344.526 575.28Z" fill="black"/>
<path opacity="0.1" d="M400.252 567.182C396.9 564.987 393.516 563.675 390.114 563.248C386.712 562.823 383.488 563.417 380.449 565.026C377.566 566.552 376.294 568.343 376.617 570.402C376.818 571.694 377.616 573.013 379.008 574.357C379.004 574.353 379 574.351 378.996 574.346C379.428 574.036 379.9 573.733 380.449 573.442C383.486 571.833 386.711 571.239 390.113 571.664C393.514 572.092 396.9 573.403 400.252 575.598C401.475 576.399 402.487 577.182 403.31 577.952C403.08 578.115 402.837 578.279 402.58 578.439C404.998 576.96 406.089 575.326 405.827 573.537C405.527 571.545 403.677 569.426 400.252 567.182Z" fill="black"/>
<path opacity="0.1" d="M389.868 590.694C386.25 590.421 382.689 589.694 379.177 588.513C375.665 587.334 372.335 585.711 369.186 583.649C366.039 581.587 363.627 579.478 361.967 577.316C360.305 575.156 359.367 573.034 359.166 570.954C359.126 570.545 359.142 570.14 359.164 569.735C359.155 569.882 359.126 570.028 359.126 570.176C359.128 570.434 359.129 577.206 359.128 578.598C359.128 578.855 359.14 579.112 359.165 579.37C359.367 581.449 360.304 583.572 361.965 585.731C363.625 587.894 366.037 590.003 369.185 592.065C372.333 594.128 375.663 595.75 379.176 596.928C382.688 598.11 386.248 598.837 389.866 599.11L389.868 590.694Z" fill="black"/>
<path opacity="0.1" d="M420.128 574.655C420.154 575.452 420.145 576.272 420.084 577.11L420.128 583.07C422.444 583.223 425.229 583.025 428.484 582.476V574.061C425.231 574.609 422.444 574.808 420.128 574.655Z" fill="black"/>
<path opacity="0.1" d="M371.116 607.992C365.043 606.549 359.6 604.545 354.796 601.982C353.758 601.399 352.415 600.589 350.761 599.557C349.111 598.528 347.416 597.439 345.671 596.295C343.925 595.15 342.285 594.054 340.755 593.001C339.216 591.948 338.044 591.107 337.238 590.482C333.407 587.485 330.57 584.143 328.727 580.452C327.426 577.844 326.791 575.162 326.795 572.408C326.795 572.473 326.787 572.537 326.787 572.602C326.804 573.95 326.779 579.724 326.782 580.882C326.787 583.615 327.436 586.278 328.728 588.869C330.571 592.56 333.408 595.902 337.239 598.899C338.046 599.524 339.217 600.364 340.757 601.418C342.287 602.471 343.926 603.568 345.673 604.712C347.419 605.856 349.114 606.946 350.763 607.975C352.417 609.006 353.761 609.816 354.798 610.399C359.601 612.962 365.044 614.966 371.118 616.41C377.187 617.857 383.584 618.564 390.305 618.531V610.115C383.582 610.146 377.186 609.44 371.116 607.992Z" fill="black"/>
<path d="M442.716 549.421C445.152 551.215 446.788 553.064 447.625 554.972C448.456 556.885 448.659 558.744 448.226 560.554C447.793 562.363 446.81 564.084 445.277 565.706C443.745 567.33 441.821 568.751 439.523 569.973C435.415 572.15 431.73 573.514 428.484 574.06C425.229 574.609 422.443 574.806 420.127 574.654C420.153 575.451 420.143 576.271 420.083 577.11C420.028 577.951 419.699 578.855 419.099 579.824C418.5 580.792 417.508 581.844 416.123 582.983C414.741 584.122 412.772 585.368 410.224 586.719C407.184 588.33 403.933 589.465 400.473 590.12C397.018 590.776 393.476 590.97 389.866 590.694C386.248 590.421 382.688 589.694 379.176 588.512C375.663 587.334 372.333 585.711 369.185 583.649C366.037 581.587 363.625 579.478 361.965 577.315C360.304 575.156 359.365 573.033 359.165 570.954C358.96 568.872 359.553 566.853 360.954 564.895C362.349 562.938 364.569 561.152 367.612 559.538C370.979 557.754 373.91 556.708 376.411 556.394C378.911 556.085 381.349 556.071 383.718 556.355L382.793 555.749C382.042 555.256 381.721 554.658 381.828 553.952C381.939 553.244 382.445 552.65 383.348 552.171L389.759 548.774C390.659 548.296 391.716 548.059 392.926 548.07C394.125 548.082 395.104 548.333 395.856 548.826L417.726 563.148C419.368 564.224 421.278 564.718 423.44 564.625C425.604 564.533 427.507 564.052 429.152 563.18C430.794 562.307 431.751 561.253 432.019 560.016C432.284 558.78 431.403 557.401 429.38 555.878C427.695 554.581 425.841 553.271 423.82 551.949C421.802 550.626 419.78 549.449 417.753 548.412C413.493 546.208 409.15 544.578 404.715 543.523C400.276 542.467 395.736 542.054 391.106 542.28C386.468 542.506 381.592 543.408 376.488 544.977C371.376 546.551 365.985 548.838 360.316 551.844C355.551 554.37 351.841 557.007 349.193 559.75C346.541 562.492 344.871 565.243 344.174 568.004C343.486 570.766 343.718 573.499 344.881 576.207C346.046 578.918 348.026 581.478 350.818 583.891C351.542 584.562 352.62 585.388 354.051 586.375C355.482 587.361 357.003 588.381 358.609 589.433C360.22 590.488 361.801 591.496 363.345 592.461C364.892 593.426 366.225 594.177 367.349 594.718C371.127 596.609 375.208 598.018 379.587 598.938C383.971 599.862 388.531 600.265 393.256 600.148C397.991 600.033 402.81 599.344 407.72 598.081C412.63 596.817 417.471 594.921 422.236 592.394C425.607 590.609 428.386 588.971 430.582 587.486C432.769 586 434.547 584.608 435.923 583.315C437.289 582.02 438.338 580.836 439.074 579.758C439.803 578.681 440.4 577.657 440.852 576.686C441.212 575.85 441.533 575.212 441.828 574.77C442.123 574.331 442.72 573.87 443.627 573.392L452.748 568.557C453.653 568.079 454.708 567.821 455.924 567.788C457.131 567.754 458.146 568.05 458.949 568.677C459.497 569.035 459.726 569.524 459.63 570.143C459.341 571.999 458.86 573.998 458.188 576.138C457.514 578.277 456.241 580.536 454.364 582.909C452.484 585.284 449.831 587.826 446.393 590.542C442.952 593.255 438.358 596.139 432.607 599.188C425.456 602.979 418.294 605.736 411.129 607.469C403.958 609.201 397.014 610.083 390.301 610.115C383.58 610.147 377.183 609.441 371.114 607.993C365.04 606.55 359.597 604.546 354.794 601.983C353.755 601.4 352.412 600.59 350.759 599.558C349.11 598.529 347.415 597.44 345.669 596.296C343.922 595.152 342.282 594.055 340.754 593.002C339.215 591.949 338.043 591.108 337.236 590.483C333.406 587.486 330.568 584.144 328.726 580.453C326.887 576.765 326.351 572.933 327.119 568.956C327.886 564.981 330.096 560.949 333.75 556.864C337.397 552.783 342.801 548.845 349.951 545.054C358.335 540.61 366.297 537.404 373.841 535.434C381.389 533.461 388.501 532.448 395.184 532.392C401.866 532.34 408.123 533.122 413.943 534.741C419.761 536.361 425.173 538.519 430.185 541.217C432.129 542.297 434.282 543.608 436.643 545.156C439.006 546.703 441.029 548.123 442.716 549.421ZM382.129 576.789C385.483 578.985 388.866 580.276 392.277 580.658C395.685 581.042 398.821 580.472 401.704 578.945C404.743 577.336 406.12 575.532 405.828 573.537C405.529 571.545 403.678 569.425 400.254 567.182C396.902 564.987 393.517 563.676 390.116 563.248C386.713 562.823 383.489 563.417 380.45 565.026C377.569 566.552 376.296 568.343 376.618 570.402C376.938 572.464 378.775 574.592 382.129 576.789Z" fill="#27DEBF"/>
<path d="M444.632 512.038V513.047C444.632 514.662 445.766 516.623 447.164 517.43L501.465 548.78C502.863 549.587 505.129 549.587 506.527 548.78L596.445 496.865C597.843 496.059 598.977 494.095 598.977 492.482V491.472C598.977 489.857 597.843 487.895 596.445 487.087L542.144 455.737C540.746 454.93 538.48 454.93 537.082 455.737L447.164 507.652C445.766 508.461 444.632 510.423 444.632 512.038Z" fill="#27DEBF"/>
<path d="M444.632 512.038V513.047C444.632 514.662 445.766 516.623 447.164 517.43L501.465 548.78C502.863 549.587 505.129 549.587 506.527 548.78L596.445 496.865C597.843 496.059 598.977 494.095 598.977 492.482V491.472C598.977 489.857 597.843 487.895 596.445 487.087L542.144 455.737C540.746 454.93 538.48 454.93 537.082 455.737L447.164 507.652C445.766 508.461 444.632 510.423 444.632 512.038Z" fill="#27DEBF"/>
<path opacity="0.2" d="M503.996 474.842L447.164 507.655C445.766 508.461 444.632 510.425 444.632 512.038V513.047C444.632 514.661 445.766 516.623 447.164 517.43L501.465 548.78C502.163 549.184 503.079 549.385 503.995 549.385H503.996V474.842Z" fill="black"/>
<path opacity="0.15" d="M503.996 474.842L447.164 507.655C445.766 508.461 444.632 510.425 444.632 512.038V513.047C444.632 514.661 445.766 516.623 447.164 517.43L501.465 548.78C502.163 549.184 503.079 549.385 503.995 549.385H503.996V474.842Z" fill="black"/>
<path opacity="0.2" d="M596.444 487.09L542.143 455.74C540.745 454.933 538.478 454.933 537.08 455.74L503.995 474.842V549.388C504.911 549.388 505.826 549.187 506.526 548.783L596.444 496.868C597.842 496.062 598.975 494.098 598.975 492.485V491.475C598.977 489.86 597.842 487.898 596.444 487.09Z" fill="black"/>
<path d="M492.77 536.907L447.164 510.575C445.766 509.769 445.766 508.46 447.164 507.653L537.082 455.738C538.48 454.931 540.746 454.931 542.144 455.738L596.445 487.088C597.843 487.895 597.843 489.204 596.445 490.01L581.529 498.622L576.307 501.638L506.529 541.926C505.131 542.732 502.864 542.732 501.466 541.926L497.043 539.371L492.77 536.907Z" fill="#27DEBF"/>
<path opacity="0.15" d="M534.17 493.166L596.445 487.09L534.721 490.585L542.144 455.74C541.386 455.302 540.377 455.124 539.387 455.16L527.741 502.26L446.136 508.991C446.077 509.561 446.41 510.141 447.164 510.578L513.068 506.752L503.996 542.533L515.595 506.606L526.851 505.953C528.268 505.87 529.56 505.298 530.565 504.399L530.572 504.398L530.574 504.39C531.511 503.547 532.197 502.422 532.475 501.123L534.17 493.166Z" fill="black"/>
<path opacity="0.3" d="M465.606 507.386L527.741 502.261L529.967 493.358L531.194 488.401L539.396 455.159C538.555 455.189 537.725 455.369 537.083 455.74L492.124 481.696L447.165 507.653C446.522 508.025 446.188 508.504 446.137 508.991L458.601 507.963L465.606 507.386Z" fill="white"/>
</svg>
