<?xml version="1.0" encoding="utf-8"?>
<!-- Generator: Adobe Illustrator 23.0.1, SVG Export Plug-In . SVG Version: 6.00 Build 0)  -->
<svg version="1.1" id="Layer_1" xmlns="http://www.w3.org/2000/svg" xmlns:xlink="http://www.w3.org/1999/xlink" x="0px" y="0px"
	 viewBox="0 0 518.4 272.5" style="enable-background:new 0 0 518.4 272.5;" xml:space="preserve">
<style type="text/css">
	.st0{fill:none;}
	.st1{fill:#FFFFFF;}
	.st2{fill:#00AEEF;}
	.st3{font-family:'HelveticaNeue-Light';}
	.st4{font-size:98.65px;}
	.st5{letter-spacing:6;}
</style>
<title>VFIX logo White SVG</title>
<g>
	<g id="Layer_1-2">
		<rect y="0" class="st0" width="272.5" height="272.5"/>
		<path class="st1" d="M159.6,173.8c0,14.6,7.5,17.3,16.6,5.8l66-82.4c9.1-11.4,4.7-20.8-10-20.8h-46c-14.7,0-26.6,11.9-26.6,26.6
			L159.6,173.8z"/>
		<path class="st1" d="M156.4,173.8c0,14.6-7.5,17.3-16.6,5.8l-66-82.4c-9.2-11.4-4.7-20.8,10-20.8h46c14.7,0,26.6,11.9,26.6,26.6
			L156.4,173.8z"/>
		<path class="st2" d="M229.8,92.3c3.7-3.7,1.9-6.7-4-6.7h-42.9c-5.9,0-10.7,3-10.7,6.7S177,99,182.9,99h29.4
			C218.2,99,226.1,96,229.8,92.3z"/>
		<path class="st2" d="M203,129.9c4.1-2.9,3.1-5.2-2.2-5.2H179c-5.3,0-9.6,2.4-9.6,5.2c0,2.9,4.3,5.2,9.6,5.2h7
			C191.2,135.2,198.9,132.8,203,129.9z"/>
		<path class="st2" d="M143,86c-3,0-5.5,6.3-5.5,14v35.7c0,7.7-3.7,8.9-8.1,2.6l-29.2-40.9C95.8,91.2,88.2,86,83.4,86s-4.8,4.9,0,11
			l56.2,70.2c4.8,6,8.8,4.6,8.8-3.1v-64C148.4,92.3,146,86,143,86z"/>
		<text transform="matrix(1 0 0 1 272.51 176.76)" class="st1 st3 st4 st5">VFIX</text>
	</g>
</g>
</svg>
