<svg id="Layer_1" data-name="Layer 1" xmlns="http://www.w3.org/2000/svg" viewBox="0 0 1876.34 467.4"><defs><style>.cls-1{fill:#00d59c;}.cls-2{fill:#009cd5;}.cls-3{fill:#191f26;}</style></defs><path class="cls-1" d="M564.2,233.7,399,398.91A234.14,234.14,0,0,1,369.38,424,233.61,233.61,0,0,1,68.49,398.91,233.67,233.67,0,0,1,233.7,0,231.94,231.94,0,0,1,369.31,43.34a229.34,229.34,0,0,0-29.69,25.08l-33.9,33.9a149.81,149.81,0,0,0-177.94,237.3A149.87,149.87,0,0,0,305.72,365a146.22,146.22,0,0,0,33.9-25.39L445.54,233.7l-76.23-76.24L399,127.78a148.12,148.12,0,0,1,33.9-25.46Z"/><path class="cls-2" d="M738.61,233.7A233.76,233.76,0,0,1,369.38,424,234.14,234.14,0,0,0,399,398.91l33.9-33.9a149.78,149.78,0,1,0,72-281.1A149.36,149.36,0,0,0,399,127.78l-29.68,29.68L293,233.7l76.32,76.24-29.69,29.68A146.22,146.22,0,0,1,305.72,365L174.41,233.7,305.72,102.32l33.9-33.9a229.34,229.34,0,0,1,29.69-25.08A233.72,233.72,0,0,1,738.61,233.7Z"/><path class="cls-3" d="M882.42,415.45c0-18.54,13.68-31.94,32.11-31.94,12,0,22.77,5.81,28.33,16.85l-14.2,8.11a15,15,0,0,0-14.21-9.61c-8.91,0-15.53,6.88-15.53,16.59S905.54,432,914.45,432a15,15,0,0,0,14.21-9.61l14.2,8.11c-5.56,11-16.33,16.86-28.33,16.86C896.1,447.39,882.42,434.15,882.42,415.45Z"/><path class="cls-3" d="M958.38,415.45c0-18.54,13.68-31.94,31.94-31.94s31.94,13.4,31.94,31.94-13.67,31.94-31.94,31.94S958.38,434,958.38,415.45Zm47.46,0c0-9.71-6.61-16.59-15.52-16.59s-15.53,6.88-15.53,16.59S981.41,432,990.32,432,1005.84,425.15,1005.84,415.45Z"/><path class="cls-3" d="M1115.61,384.56v61.77h-15.54v-37.5l-14.82,35.74h-13.06l-14.83-35.74v37.5h-15.52V384.56h20.65l16.23,39.18L1095,384.56Z"/><path class="cls-3" d="M1211.59,384.56v61.77h-15.53v-37.5l-14.83,35.74h-13l-14.83-35.74v37.5h-15.52V384.56h20.64l16.24,39.18,16.23-39.18Z"/><path class="cls-3" d="M1233.28,420.83V384.56h15.88v34.68c0,8.74,4,12.79,10.76,12.79s10.77-4,10.77-12.79V384.56h15.88v36.27c0,17.29-10.06,26.56-26.65,26.56S1233.28,438.12,1233.28,420.83Z"/><path class="cls-3" d="M1364.21,384.56v61.77h-16l-24.09-34.77v34.77h-15.88V384.56h16l24.09,34.77V384.56Z"/><path class="cls-3" d="M1386.44,384.56h15.88v61.77h-15.88Z"/><path class="cls-3" d="M1421.9,415.45c0-18.54,13.68-31.94,32.12-31.94,12,0,22.77,5.81,28.33,16.85l-14.21,8.11a15,15,0,0,0-14.21-9.61c-8.91,0-15.53,6.88-15.53,16.59S1445,432,1453.93,432a15,15,0,0,0,14.21-9.61l14.21,8.11c-5.56,11-16.33,16.86-28.33,16.86C1435.58,447.39,1421.9,434.15,1421.9,415.45Z"/><path class="cls-3" d="M1537.38,435.12H1515l-3.89,11.21h-16.94l22.5-61.77h19.06l22.5,61.77h-16.94Zm-4.76-13.59L1526.18,403l-6.44,18.52Z"/><path class="cls-3" d="M1614.94,399.74h-17.39v46.59h-15.87V399.74h-17.39V384.56h50.65Z"/><path class="cls-3" d="M1633.11,384.56H1649v61.77h-15.88Z"/><path class="cls-3" d="M1668.58,415.45c0-18.54,13.67-31.94,31.94-31.94s31.94,13.4,31.94,31.94-13.68,31.94-31.94,31.94S1668.58,434,1668.58,415.45Zm47.46,0c0-9.71-6.61-16.59-15.52-16.59S1685,405.74,1685,415.45,1691.6,432,1700.52,432,1716,425.15,1716,415.45Z"/><path class="cls-3" d="M1808,384.56v61.77h-16l-24.1-34.77v34.77H1752V384.56h16l24.08,34.77V384.56Z"/><path class="cls-3" d="M1826.13,438.92l9.18-12.45c6.79,4.68,12.27,6.36,17.21,6.36,5.47,0,7.94-2.12,7.94-5,0-2.38-1.68-4.06-8.47-5.65l-7.77-1.85c-11-2.65-16.5-8.21-16.5-17.12,0-11.56,9.09-19.67,24-19.67,8.83,0,17.12,2.81,23.65,8.91l-10.15,10.94c-5.29-4.24-9.88-5.47-14-5.47-5.2,0-7.59,1.94-7.59,4.5,0,2,1.41,3.26,8.39,4.94l7.77,1.85c11.55,2.73,16.58,8.12,16.58,17.47,0,12.44-8.82,20.74-24.53,20.74C1842.1,447.39,1832.84,444.39,1826.13,438.92Z"/><path class="cls-3" d="M1186.31,20l-106.57,299.6H989L882.42,20H964.6l69.76,207.16L1104.13,20Z"/><path class="cls-3" d="M1293.34,91.93V142h128.41v71.9H1293.34V319.62h-77V20h218.28V91.93Z"/><path class="cls-3" d="M1480,20h77v299.6h-77Z"/><path class="cls-3" d="M1789,319.62l-55.64-95-55.65,95h-87.31L1683.3,163,1596,20h86.45l50.94,85.6L1784.32,20h86.45l-87.31,143,92.88,156.64Z"/></svg>